SplineFontDB: 3.2
FontName: D-DIN-PRO-Exp-Light
FullName: D-DIN-PRO-Exp-Light
FamilyName: D-DIN-PRO-Exp
Weight: Regular
Copyright: Copyright (c) CyberFei. All rights reserved
Version: 1.1.0
ItalicAngle: 0
UnderlinePosition: -150
UnderlineWidth: 50
Ascent: 831
Descent: 169
InvalidEm: 0
sfntRevision: 0x00010000
LayerCount: 2
Layer: 0 0 "Back" 1
Layer: 1 0 "Fore" 0
XUID: [1021 868 -1451673819 21813]
StyleMap: 0x0040
FSType: 4
OS2Version: 4
OS2_WeightWidthSlopeOnly: 1
OS2_UseTypoMetrics: 0
CreationTime: 1462909513
ModificationTime: 1778060078
PfmFamily: 17
TTFWeight: 300
TTFWidth: 7
LineGap: 0
VLineGap: 0
Panose: 2 11 5 4 2 2 2 3 2 4
OS2TypoAscent: 831
OS2TypoAOffset: 0
OS2TypoDescent: -169
OS2TypoDOffset: 0
OS2TypoLinegap: 86
OS2WinAscent: 902
OS2WinAOffset: 0
OS2WinDescent: 184
OS2WinDOffset: 0
HheadAscent: 902
HheadAOffset: 0
HheadDescent: -184
HheadDOffset: 0
OS2SubXSize: 650
OS2SubYSize: 600
OS2SubXOff: 0
OS2SubYOff: 75
OS2SupXSize: 650
OS2SupYSize: 600
OS2SupXOff: 0
OS2SupYOff: 350
OS2StrikeYSize: 50
OS2StrikeYPos: 307
OS2CapHeight: 690
OS2XHeight: 512
OS2Vendor: 'MONO'
OS2CodePages: 00000001.00000000
OS2UnicodeRanges: 8000006f.4000000a.00000000.00000000
Lookup: 1 0 0 "'rtla' Right to Left Alternates lookup 0" { "'rtla' Right to Left Alternates lookup 0 subtable"  } ['rtla' ('DFLT' <'dflt' > ) ]
Lookup: 1 0 0 "'sups' Superscript lookup 1" { "'sups' Superscript lookup 1 subtable" ("superior") } ['sups' ('DFLT' <'dflt' > ) ]
Lookup: 4 0 0 "'frac' Diagonal Fractions lookup 2" { "'frac' Diagonal Fractions lookup 2 subtable"  } ['frac' ('DFLT' <'dflt' > ) ]
Lookup: 258 0 0 "'kern' Horizontal Kerning in Latin lookup 0" { "'kern' Horizontal Kerning in Latin lookup 0 subtable"  } ['kern' ('DFLT' <'dflt' > 'latn' <'dflt' > ) ]
Lookup: 258 0 0 "Pairwise Positioning (kerning) lookup 1" { "Pairwise Positioning (kerning) lookup 1 subtable"  } []
Lookup: 258 0 0 "Pairwise Positioning (kerning) lookup 2" { "Pairwise Positioning (kerning) lookup 2 subtable"  } []

StartChar: .notdef
Encoding: 65536 -1 0
Width: 600
GlyphClass: 1
Flags: W
LayerCount: 2
Fore
SplineSet
489.436523438 688.919921875 m 1
 99.796875 688.919921875 l 1
 99.796875 0.419921875 l 1
 489.436523438 0.419921875 l 1
 489.436523438 688.919921875 l 1
470.056640625 19.7998046875 m 1
 119.176757812 19.7998046875 l 1
 119.176757812 669.540039062 l 1
 470.056640625 669.540039062 l 1
 470.056640625 19.7998046875 l 1
EndSplineSet
EndChar

StartChar: exclam
Encoding: 33 33 4
Width: 232
GlyphClass: 2
Flags: MW
VStem: 67.1572 87.7197<0.419922 91.2002 0.419922 91.2002> 85.2383 52.5625<210.54 210.54>
LayerCount: 2
Fore
SplineSet
154.603515625 688.919921875 m 1x40
 67.447265625 688.919921875 l 1
 85.23828125 210.540039062 l 1
 137.80078125 210.540039062 l 1
 154.603515625 688.919921875 l 1x40
154.876953125 91.2001953125 m 1x80
 67.1572265625 91.2001953125 l 1
 67.1572265625 0.419921875 l 1
 154.876953125 0.419921875 l 1
 154.876953125 91.2001953125 l 1x80
EndSplineSet
EndChar

StartChar: quotedbl
Encoding: 34 34 5
Width: 331
GlyphClass: 2
Flags: MW
HStem: 448.2 240.72<45.7373 113.057 45.7373 113.057 208.937 277.277 45.7373 277.277>
LayerCount: 2
Fore
SplineSet
113.056640625 688.919921875 m 1
 45.7373046875 688.919921875 l 1
 45.7373046875 448.200195312 l 1
 113.056640625 448.200195312 l 1
 113.056640625 688.919921875 l 1
277.27734375 688.919921875 m 1
 208.936523438 688.919921875 l 1
 208.936523438 448.200195312 l 1
 277.27734375 448.200195312 l 1
 277.27734375 688.919921875 l 1
EndSplineSet
EndChar

StartChar: numbersign
Encoding: 35 35 6
Width: 583
GlyphClass: 2
Flags: W
LayerCount: 2
Fore
SplineSet
427.1171875 431.879882812 m 1
 554.716796875 431.879882812 l 1
 554.716796875 483.900390625 l 1
 433.302734375 483.900390625 l 1
 459.823242188 688.919921875 l 1
 401.811523438 688.919921875 l 1
 375.291992188 483.900390625 l 1
 229.302734375 483.900390625 l 1
 255.823242188 688.919921875 l 1
 197.811523438 688.919921875 l 1
 171.291992188 483.900390625 l 1
 44.716796875 483.900390625 l 1
 44.716796875 431.879882812 l 1
 164.083984375 431.879882812 l 1
 143.756835938 273.780273438 l 1
 20.2373046875 273.780273438 l 1
 20.2373046875 220.740234375 l 1
 136.553710938 220.740234375 l 1
 107.993164062 0.419921875 l 1
 167.0234375 0.419921875 l 1
 195.583984375 220.740234375 l 1
 341.573242188 220.740234375 l 1
 313.013671875 0.419921875 l 1
 372.043945312 0.419921875 l 1
 400.603515625 220.740234375 l 1
 529.216796875 220.740234375 l 1
 529.216796875 273.780273438 l 1
 406.790039062 273.780273438 l 1
 427.1171875 431.879882812 l 1
348.77734375 273.780273438 m 1
 202.790039062 273.780273438 l 1
 223.1171875 431.879882812 l 1
 369.104492188 431.879882812 l 1
 348.77734375 273.780273438 l 1
EndSplineSet
EndChar

StartChar: dollar
Encoding: 36 36 7
Width: 517
GlyphClass: 2
Flags: MW
HStem: 28.4023 62.6953<222.197 222.197> 597.053 61.9609<213.539 222.197>
VStem: 28.9658 69.624<203.4 203.4> 41.6572 72.4199<462.714 511.136> 387.683 69.5254<495.119 495.119> 396.617 72.4199<181.606 238.5 181.606 241.574>
LayerCount: 2
Fore
SplineSet
469.037109375 207.989257812 m 0xe4
 469.037109375 269.009765625 449.995117188 349.5390625 306.04296875 375.893554688 c 2
 275.237304688 381.02734375 l 1
 275.237304688 598.20703125 l 1
 309.001953125 593.705078125 376.447265625 584.712890625 387.682617188 495.119140625 c 1
 457.208007812 495.119140625 l 1
 450.940429688 563.784179688 415.470703125 647.852539062 282.220703125 659.368164062 c 2
 275.237304688 659.97265625 l 1
 275.237304688 740.940429688 l 1
 222.197265625 740.940429688 l 1
 222.197265625 659.013671875 l 1
 194.365234375 656.36328125 132.329101562 650.455078125 86.845703125 604.971679688 c 0
 56.791015625 574.916992188 41.6572265625 535.822265625 41.6572265625 486.450195312 c 0xd8
 41.6572265625 438.977539062 55.361328125 403.42578125 82.0859375 378.29296875 c 0
 121.125976562 341.577148438 171.45703125 331.510742188 222.197265625 321.362304688 c 1
 222.197265625 91.09765625 l 1
 174.983398438 97.578125 110.833984375 110.171875 98.58984375 203.400390625 c 1
 28.9658203125 203.400390625 l 1
 42.41796875 45.1787109375 170.932617188 32.4345703125 222.197265625 28.40234375 c 1
 222.197265625 -59.759765625 l 1
 275.237304688 -59.759765625 l 1
 275.237304688 29.3505859375 l 1
 304.423828125 31.9453125 371.376953125 37.8955078125 420.450195312 84.0244140625 c 0
 452.735351562 114.372070312 469.037109375 155.223632812 469.037109375 207.989257812 c 0xe4
114.077148438 493.588867188 m 0
 114.077148438 553.251953125 148.947265625 588.53515625 213.5390625 597.052734375 c 2
 222.197265625 598.194335938 l 1
 222.197265625 390.298828125 l 1
 174.903320312 400.361328125 114.077148438 416.206054688 114.077148438 493.588867188 c 0
396.6171875 201.869140625 m 0xc4
 396.6171875 102.098632812 309.596679688 93.73046875 275.237304688 90.4267578125 c 1
 275.237304688 312.1484375 l 1
 342.353515625 298.96484375 396.6171875 281.278320312 396.6171875 201.869140625 c 0xc4
EndSplineSet
EndChar

StartChar: percent
Encoding: 37 37 8
Width: 922
GlyphClass: 2
Flags: MW
HStem: -5.7002 53.0391<704.345 765.824 704.345 770.866> 271.74 53.04<148.151 206.279> 364.559 53.041<704.165 766.094> 643.02 53.04<153.398 207.499>
VStem: 39.6172 63.2412<361.218 533.37 436.47 533.37 533.37 541.53> 251.777 64.2598<431.37 436.47 436.47 533.37> 597.557 63.2412<88.791 254.909 158.009 254.909 254.909 263.069> 809.718 64.2588<153.93 158.009 158.009 254.909>
LayerCount: 2
Fore
SplineSet
39.6171875 431.370117188 m 2
 39.6171875 291.06640625 119.495117188 271.740234375 176.806640625 271.740234375 c 0
 235.750976562 271.740234375 316.037109375 291.703125 316.037109375 431.370117188 c 2
 316.037109375 541.530273438 l 2
 316.037109375 664.923828125 251.508789062 696.059570312 177.827148438 696.059570312 c 0
 128.969726562 696.059570312 39.6171875 681.890625 39.6171875 541.530273438 c 2
 39.6171875 431.370117188 l 2
672.841796875 690.959960938 m 1
 614.833984375 690.959960938 l 1
 235.635742188 0.419921875 l 1
 292.645507812 0.419921875 l 1
 672.841796875 690.959960938 l 1
251.77734375 436.469726562 m 2
 251.77734375 373.471679688 238.603515625 324.780273438 177.827148438 324.780273438 c 0
 114.466796875 324.780273438 102.858398438 377.913085938 102.858398438 436.469726562 c 2
 102.858398438 533.370117188 l 2
 102.858398438 591.48046875 115.568359375 643.01953125 177.827148438 643.01953125 c 0
 237.169921875 643.01953125 251.77734375 596.401367188 251.77734375 533.370117188 c 2
 251.77734375 436.469726562 l 2
735.766601562 417.599609375 m 0
 666.991210938 417.599609375 597.556640625 389.625 597.556640625 263.069335938 c 2
 597.556640625 153.9296875 l 2
 597.556640625 23.65234375 664.640625 -5.7001953125 734.747070312 -5.7001953125 c 0
 806.984375 -5.7001953125 873.9765625 24.65625 873.9765625 153.9296875 c 2
 873.9765625 263.0703125 l 2
 873.9765625 386.463867188 809.448242188 417.599609375 735.766601562 417.599609375 c 0
809.717773438 158.008789062 m 2
 809.717773438 95.076171875 795.880859375 47.3388671875 735.766601562 47.3388671875 c 0
 672.923828125 47.3388671875 660.797851562 99.7275390625 660.797851562 158.008789062 c 2
 660.797851562 254.909179688 l 2
 660.797851562 312.706054688 672.561523438 364.55859375 735.767578125 364.55859375 c 0
 796.419921875 364.55859375 809.717773438 316.99609375 809.717773438 254.909179688 c 2
 809.717773438 158.008789062 l 2
EndSplineSet
EndChar

StartChar: ampersand
Encoding: 38 38 9
Width: 664
GlyphClass: 2
Flags: MW
HStem: -10.7988 63.2402<231.883 287.562 231.883 298.264> 0.420898 64.2588<577.666 591.947 591.947 604.696 604.696 604.696> 643.021 57.1201<246.774 288.1>
VStem: 49.8164 70.3799<156.803 212.299 156.803 223.811> 113.056 70.3799<543.568 578.915 543.568 596.628> 366.016 69.3613<533.792 565.105>
LayerCount: 2
Fore
SplineSet
274.725585938 700.140625 m 0x74
 183.645507812 700.140625 113.055664062 641.525390625 113.055664062 551.731445312 c 0x6c
 113.055664062 495.375 145.48828125 446.743164062 198.32421875 381.620117188 c 1
 130.905273438 338.213867188 49.81640625 276.3515625 49.81640625 171.270507812 c 0
 49.81640625 114.060546875 71.5908203125 50.3212890625 139.65625 13.2646484375 c 0
 168.921875 -2.6689453125 204.323242188 -10.798828125 246.166015625 -10.798828125 c 0xb4
 350.362304688 -10.798828125 406.670898438 45.7548828125 443.388671875 84.9208984375 c 1
 468.236328125 54.8427734375 l 2
 505.396484375 12.40234375 531.501953125 0.4208984375 577.666015625 0.4208984375 c 2
 604.696289062 0.4208984375 l 1
 604.696289062 21.8408203125 604.697265625 43.2607421875 604.697265625 64.6796875 c 1
 591.947265625 64.6796875 l 2
 561.109375 64.6796875 541.08203125 73.8974609375 517.805664062 102.0234375 c 2
 489.12109375 136.68359375 l 1
 588.350585938 252.11328125 l 1
 541.719726562 293.018554688 l 1
 449.061523438 184.916992188 l 1
 295.77734375 369.078125 l 1
 308.393554688 376.647460938 l 2
 354.131835938 406.9296875 386.751953125 435.384765625 406.303710938 461.453125 c 0
 425.712890625 487.333984375 435.376953125 516.872070312 435.376953125 550.7109375 c 0
 435.376953125 595.142578125 420.575195312 630.588867188 390.885742188 658.341796875 c 0
 361.180664062 686.110351562 322.831054688 700.140625 274.725585938 700.140625 c 0x74
183.435546875 552.750976562 m 0
 183.435546875 605.079101562 218.822265625 643.020507812 274.725585938 643.020507812 c 0
 301.473632812 643.020507812 323.926757812 634.7265625 340.82421875 617.829101562 c 0
 357.721679688 600.931640625 366.015625 578.478515625 366.015625 551.731445312 c 0
 366.015625 487.796875 318.794921875 456.31640625 256.930664062 415.073242188 c 1
 252.526367188 420.357421875 l 2
 248.729492188 424.9140625 213.577148438 467.416015625 197.553710938 498.228515625 c 0
 188.233398438 516.15234375 183.435546875 534.385742188 183.435546875 552.750976562 c 0
252.286132812 52.44140625 m 0xb4
 211.48046875 52.44140625 178.6484375 63.609375 155.12109375 86.76953125 c 0
 131.83984375 109.6875 120.196289062 139.275390625 120.196289062 174.331054688 c 0
 120.196289062 250.267578125 182.694335938 298.932617188 236.452148438 334.432617188 c 1
 404.283203125 132.174804688 l 1
 366.391601562 92.1796875 322.838867188 52.44140625 252.286132812 52.44140625 c 0xb4
EndSplineSet
EndChar

StartChar: quotesingle
Encoding: 39 39 10
Width: 169
GlyphClass: 2
Flags: MW
HStem: 448.2 240.72<45.7373 113.057 45.7373 113.057>
VStem: 45.7373 67.3193<448.2 688.92 448.2 688.92>
LayerCount: 2
Fore
SplineSet
113.056640625 688.919921875 m 1
 45.7373046875 688.919921875 l 1
 45.7373046875 448.200195312 l 1
 113.056640625 448.200195312 l 1
 113.056640625 688.919921875 l 1
EndSplineSet
EndChar

StartChar: parenleft
Encoding: 40 40 11
Width: 307
GlyphClass: 2
Flags: MW
VStem: 49.8184 71.3984<267.384 365.861 249.516 419.592>
LayerCount: 2
Fore
SplineSet
186.74609375 739.921875 m 1
 119.235351562 649.594726562 49.818359375 511.8515625 49.818359375 327.33203125 c 0
 49.818359375 207.436523438 79.578125 59.9287109375 185.776367188 -85.2587890625 c 1
 241.09765625 -85.2587890625 l 1
 169.743164062 24.861328125 121.216796875 171.700195312 121.216796875 327.331054688 c 0
 121.216796875 404.391601562 134.994140625 574.411132812 241.181640625 739.921875 c 1
 186.74609375 739.921875 l 1
EndSplineSet
Substitution2: "'rtla' Right to Left Alternates lookup 0 subtable" parenright
EndChar

StartChar: parenright
Encoding: 41 41 12
Width: 307
GlyphClass: 2
Flags: MW
VStem: 176.298 71.3994<288.447 383.923 227.873 404.469>
LayerCount: 2
Fore
SplineSet
56.333984375 739.918945312 m 1
 127.739257812 628.622070312 176.297851562 481.610351562 176.297851562 327.328125 c 0
 176.297851562 249.565429688 162.516601562 78.482421875 56.416015625 -85.259765625 c 1
 111.737304688 -85.259765625 l 1
 166.482421875 -10.4150390625 247.697265625 128.416992188 247.697265625 327.329101562 c 0
 247.697265625 440.517578125 220.87109375 592.606445312 110.768554688 739.918945312 c 1
 56.333984375 739.918945312 l 1
EndSplineSet
Substitution2: "'rtla' Right to Left Alternates lookup 0 subtable" parenleft
EndChar

StartChar: asterisk
Encoding: 42 42 13
Width: 407
GlyphClass: 2
Flags: MW
HStem: 415.56 273.36<179.357 218.117 179.357 218.117>
LayerCount: 2
Fore
SplineSet
179.357421875 525.455078125 m 1
 179.357421875 415.559570312 l 1
 218.1171875 415.559570312 l 1
 218.1171875 525.455078125 l 1
 328.512695312 469.196289062 l 1
 344.954101562 501.364257812 l 1
 233.666992188 555.916992188 l 1
 344.015625 608.359375 l 1
 328.389648438 640.321289062 l 1
 218.1171875 584.125 l 1
 218.1171875 688.919921875 l 1
 179.357421875 688.919921875 l 1
 179.357421875 585.250976562 l 1
 68.98828125 640.435546875 l 1
 52.5478515625 608.270507812 l 1
 163.875976562 554.790039062 l 1
 52.5478515625 501.309570312 l 1
 68.9619140625 469.196289062 l 1
 179.357421875 525.455078125 l 1
EndSplineSet
EndChar

StartChar: plus
Encoding: 43 43 14
Width: 507
GlyphClass: 2
Flags: W
LayerCount: 2
Fore
SplineSet
215.056640625 241.139648438 m 1
 215.056640625 75.900390625 l 1
 282.376953125 75.900390625 l 1
 282.376953125 241.139648438 l 1
 446.596679688 241.139648438 l 1
 446.596679688 307.440429688 l 1
 282.376953125 307.440429688 l 1
 282.376953125 472.6796875 l 1
 215.056640625 472.6796875 l 1
 215.056640625 307.440429688 l 1
 50.8369140625 307.440429688 l 1
 50.8369140625 241.139648438 l 1
 215.056640625 241.139648438 l 1
EndSplineSet
EndChar

StartChar: comma
Encoding: 44 44 15
Width: 169
GlyphClass: 2
Flags: MW
VStem: 45.7373 67.3193<-77.2676 94.2598 -77.2676 94.2598 -137.939 94.2598>
LayerCount: 2
Fore
SplineSet
113.056640625 94.259765625 m 1
 45.7373046875 94.259765625 l 1
 45.7373046875 -137.939453125 l 1
 113.056640625 -77.267578125 l 1
 113.056640625 94.259765625 l 1
EndSplineSet
EndChar

StartChar: hyphen
Encoding: 45 45 16
Width: 418
GlyphClass: 2
Flags: MW
HStem: 312.54 67.3203<49.8174 358.877 49.8174 358.877>
VStem: 49.8174 309.06<312.54 379.86 312.54 379.86>
LayerCount: 2
Fore
SplineSet
358.876953125 379.860351562 m 1
 49.8173828125 379.860351562 l 1
 49.8173828125 312.540039062 l 1
 358.876953125 312.540039062 l 1
 358.876953125 379.860351562 l 1
EndSplineSet
EndChar

StartChar: period
Encoding: 46 46 17
Width: 191
GlyphClass: 2
Flags: MW
HStem: 0.419922 93.8398<45.7373 134.477 45.7373 134.477>
VStem: 45.7373 88.7393<0.419922 94.2598 0.419922 94.2598>
LayerCount: 2
Fore
SplineSet
134.4765625 94.259765625 m 1
 45.7373046875 94.259765625 l 1
 45.7373046875 0.419921875 l 1
 134.4765625 0.419921875 l 1
 134.4765625 94.259765625 l 1
EndSplineSet
EndChar

StartChar: slash
Encoding: 47 47 18
Width: 424
GlyphClass: 2
Flags: W
LayerCount: 2
Fore
SplineSet
361.786132812 690.959960938 m 1
 303.577148438 690.959960938 l 1
 53.0283203125 -9.7802734375 l 1
 111.236328125 -9.7802734375 l 1
 361.786132812 690.959960938 l 1
EndSplineSet
EndChar

StartChar: zero
Encoding: 48 48 19
Width: 548
GlyphClass: 2
Flags: MW
HStem: -9.78027 67.3203<216.436 317.072> 631.8 67.3193<226.856 321.777>
VStem: 58.9971 77.5186<166.244 442.59 246.75 442.59 442.59 454.829> 403.757 77.5205<239.609 246.75 246.75 442.59>
LayerCount: 2
Fore
SplineSet
58.9970703125 239.609375 m 2
 58.9970703125 92.87890625 114.448242188 -9.7802734375 269.626953125 -9.7802734375 c 0
 364.517578125 -9.7802734375 481.27734375 28.080078125 481.27734375 239.609375 c 2
 481.27734375 454.829101562 l 2
 481.27734375 587.5078125 432.7890625 699.119140625 269.626953125 699.119140625 c 0
 184.0859375 699.119140625 58.9970703125 669.568359375 58.9970703125 454.829101562 c 2
 58.9970703125 239.609375 l 2
403.756835938 246.75 m 2
 403.756835938 124.787109375 369.40625 57.5400390625 269.626953125 57.5400390625 c 0
 163.244140625 57.5400390625 136.515625 139.526367188 136.515625 246.75 c 2
 136.515625 442.58984375 l 2
 136.515625 549.82421875 163.250976562 631.799804688 269.626953125 631.799804688 c 0
 373.927734375 631.799804688 403.756835938 555.530273438 403.756835938 442.58984375 c 2
 403.756835938 246.75 l 2
EndSplineSet
EndChar

StartChar: one
Encoding: 49 49 20
Width: 357
GlyphClass: 2
Flags: W
LayerCount: 2
Fore
SplineSet
192.6171875 609.40234375 m 1
 192.6171875 0.419921875 l 1
 270.13671875 0.419921875 l 1
 270.13671875 688.919921875 l 1
 187.203125 688.919921875 l 1
 42.6767578125 596.501953125 l 1
 42.6767578125 515.5625 l 1
 192.6171875 609.40234375 l 1
EndSplineSet
Substitution2: "'sups' Superscript lookup 1 subtable" uni00B9
EndChar

StartChar: two
Encoding: 50 50 21
Width: 528
GlyphClass: 2
Flags: MW
HStem: 633.84 65.2803<234.669 274.315>
VStem: 52.877 74.46<510.42 513.99 513.99 521.13 510.42 513.99> 385.396 77.5215<504.81 505.83 505.83 518.07>
LayerCount: 2
Fore
SplineSet
462.916992188 520.110351562 m 2
 462.916992188 625.6640625 385.84375 699.120117188 256.366210938 699.120117188 c 0
 193.069335938 699.120117188 143.75390625 682.858398438 107.380859375 651.03125 c 0
 71.0869140625 619.2734375 52.876953125 576.481445312 52.876953125 521.129882812 c 2
 52.876953125 510.419921875 l 1
 127.336914062 510.419921875 l 1
 127.336914062 513.990234375 l 2
 127.336914062 552.122070312 138.22265625 582.422851562 160.92578125 603.265625 c 0
 183.487304688 623.978515625 215.012695312 633.83984375 254.326171875 633.83984375 c 0
 294.3046875 633.83984375 326.59375 623.9921875 350.139648438 603.388671875 c 0
 373.762695312 582.717773438 385.395507812 553.744140625 385.395507812 518.0703125 c 2
 385.395507812 505.830078125 l 2
 385.395507812 452.841796875 362.124023438 413.665039062 312.018554688 356.87890625 c 2
 53.896484375 64.33984375 l 1
 53.896484375 0.419921875 l 1
 469.037109375 0.419921875 l 1
 469.037109375 66.7197265625 l 1
 151.728515625 66.7197265625 l 1
 372.17578125 317.27734375 l 2
 441.373046875 390.708984375 462.916992188 442.374023438 462.916992188 504.809570312 c 2
 462.916992188 520.110351562 l 2
EndSplineSet
Substitution2: "'sups' Superscript lookup 1 subtable" uni00B2
EndChar

StartChar: three
Encoding: 51 51 22
Width: 548
GlyphClass: 2
Flags: MW
HStem: -9.78027 65.2812<243.979 298.567> 323.76 66.2998<223.218 256.368 223.218 257.388 223.218 288.729> 633.84 65.2803<232.826 286.208>
VStem: 53.8984 74.46<135.441 165.661 164.131 165.661 164.131 165.661> 62.0576 72.4199<520.62 523.17 523.17 524.19 520.62 523.17> 391.518 76.499<487.408 527.25 511.95 521.13> 403.758 77.5195<180.45 180.451 180.451 198.81 198.81 199.831>
LayerCount: 2
Fore
SplineSet
403.7578125 180.451171875 m 2xe2
 403.7578125 139.86328125 388.918945312 55.5009765625 265.547851562 55.5009765625 c 0
 222.409179688 55.5009765625 188.453125 64.2998046875 164.44140625 83.1396484375 c 0
 140.298828125 102.08203125 128.358398438 129.701171875 128.358398438 164.130859375 c 2
 128.358398438 165.661132812 l 1
 53.8984375 165.661132812 l 1
 53.8984375 163.111328125 l 2
 53.8984375 107.771484375 72.2421875 65.94140625 108.733398438 35.9091796875 c 0
 145.350585938 5.7734375 196.979492188 -9.7802734375 264.52734375 -9.7802734375 c 0
 332.606445312 -9.7802734375 385.30859375 7.51953125 423.692382812 41.3505859375 c 0
 462.013671875 75.1259765625 481.27734375 120.98046875 481.27734375 180.450195312 c 2
 481.27734375 198.809570312 l 2xf2
 481.27734375 253.779296875 463.037109375 328.104492188 372.30859375 357.797851562 c 2
 352.630859375 364.237304688 l 1
 371.771484375 372.143554688 l 2
 412.0078125 388.763671875 468.016601562 427.1328125 468.016601562 511.950195312 c 2
 468.016601562 527.25 l 2
 468.016601562 581.959960938 450.293945312 623.50390625 415.116210938 653.518554688 c 0
 379.846679688 683.610351562 330.321289062 699.120117188 265.546875 699.120117188 c 0
 200.104492188 699.120117188 150.27734375 683.280273438 115.020507812 652.551757812 c 0
 79.80859375 621.861328125 62.0576171875 579.60546875 62.0576171875 524.190429688 c 2
 62.0576171875 520.620117188 l 1
 134.477539062 520.620117188 l 1
 134.477539062 523.169921875 l 2
 134.477539062 582.116210938 166.408203125 633.83984375 262.48828125 633.83984375 c 0
 309.927734375 633.83984375 391.517578125 619.53515625 391.517578125 521.129882812 c 2
 391.517578125 506.849609375 l 2xec
 391.517578125 467.966796875 376.525390625 390.059570312 256.368164062 390.059570312 c 2
 223.217773438 390.059570312 l 1
 223.217773438 323.759765625 l 1
 257.387695312 323.759765625 l 2
 320.0703125 323.759765625 403.7578125 304.21484375 403.7578125 199.831054688 c 2
 403.7578125 180.451171875 l 2xe2
EndSplineSet
Substitution2: "'sups' Superscript lookup 1 subtable" uni00B3
EndChar

StartChar: four
Encoding: 52 52 23
Width: 563
GlyphClass: 2
Flags: W
LayerCount: 2
Fore
SplineSet
429.256835938 0.419921875 m 1
 429.256835938 130.98046875 l 1
 513.916992188 130.98046875 l 1
 513.916992188 198.299804688 l 1
 429.256835938 198.299804688 l 1
 429.256835938 380.879882812 l 1
 351.737304688 380.879882812 l 1
 351.737304688 198.299804688 l 1
 115.594726562 198.299804688 l 1
 355.293945312 688.919921875 l 1
 277.46484375 688.919921875 l 1
 40.63671875 204.1796875 l 1
 40.63671875 130.98046875 l 1
 351.737304688 130.98046875 l 1
 351.737304688 0.419921875 l 1
 429.256835938 0.419921875 l 1
EndSplineSet
EndChar

StartChar: five
Encoding: 53 53 24
Width: 534
GlyphClass: 2
Flags: MW
HStem: -9.78027 66.2998<240.144 292.054> 383.94 65.2793<270.223 283.021>
VStem: 58.9961 73.4658<135.814 161.58 161.07 161.58> 391.516 76.5<197.79 201.87 201.87 237.57>
LayerCount: 2
Fore
SplineSet
391.515625 201.870117188 m 2
 391.515625 151.627929688 380.432617188 56.51953125 260.446289062 56.51953125 c 0
 219.840820312 56.51953125 187.770507812 66.3212890625 165.46875 87.13671875 c 0
 144.181640625 107.005859375 133.067382812 132.18359375 132.461914062 161.580078125 c 1
 58.99609375 161.580078125 l 1
 58.99609375 161.0703125 l 2
 58.99609375 110.557617188 76.1455078125 70.0205078125 110.59765625 38.16796875 c 0
 144.823242188 6.5244140625 193.696289062 -9.7802734375 258.407226562 -9.7802734375 c 0
 325.701171875 -9.7802734375 376.837890625 8.6123046875 413.162109375 44.6123046875 c 0
 449.483398438 80.609375 468.015625 131.208007812 468.015625 197.790039062 c 2
 468.015625 241.650390625 l 2
 468.015625 309.095703125 451.1875 360.020507812 418.520507812 395.598632812 c 0
 385.868164062 431.16015625 340.1484375 449.219726562 279.825195312 449.219726562 c 0
 260.62109375 449.219726562 195.809570312 445.676757812 150.594726562 400.461914062 c 2
 137.536132812 387.403320312 l 1
 137.536132812 621.599609375 l 1
 448.635742188 621.599609375 l 1
 448.635742188 688.919921875 l 1
 70.2158203125 688.919921875 l 1
 70.2158203125 314.580078125 l 1
 147.360351562 314.580078125 l 1
 154.427734375 329.6953125 182.01953125 383.940429688 263.505859375 383.940429688 c 0
 302.537109375 383.940429688 391.515625 373.224609375 391.515625 237.5703125 c 2
 391.515625 201.870117188 l 2
EndSplineSet
EndChar

StartChar: six
Encoding: 54 54 25
Width: 551
GlyphClass: 2
Flags: MW
HStem: -9.78027 65.2803<250.562 305.304> 345.181 66.2998<289.619 292.396>
VStem: 52.876 77.5186<158.192 212.07 188.61 211.05> 413.955 76.501<149.387 217.17 192.69 213.091>
LayerCount: 2
Fore
SplineSet
490.456054688 217.169921875 m 2
 490.456054688 330.493164062 409.467773438 411.48046875 296.145507812 411.48046875 c 0
 283.091796875 411.48046875 240.30078125 410.184570312 212.21484375 394.124023438 c 2
 186.530273438 379.436523438 l 1
 374.354492188 688.919921875 l 1
 291.299804688 688.919921875 l 1
 121.01171875 404.770507812 l 2
 70.3154296875 326.671875 52.8759765625 273.755859375 52.8759765625 211.049804688 c 2
 52.8759765625 188.610351562 l 2
 52.8759765625 127.774414062 72.498046875 80.1474609375 111.59375 44.3095703125 c 0
 150.698242188 8.4638671875 203.677734375 -9.7802734375 271.666992188 -9.7802734375 c 0
 338.940429688 -9.7802734375 391.752929688 8.60546875 431.227539062 44.818359375 c 0
 470.62109375 80.9560546875 490.456054688 129.76171875 490.456054688 192.690429688 c 2
 490.456054688 217.169921875 l 2
413.955078125 189.630859375 m 2
 413.955078125 109.142578125 360.874023438 55.5 271.665039062 55.5 c 0
 229.459960938 55.5 194.869140625 67.205078125 169.048828125 91.2060546875 c 0
 143.158203125 115.2734375 130.39453125 148.225585938 130.39453125 188.610351562 c 2
 130.39453125 212.0703125 l 2
 130.39453125 295.2421875 182.975585938 345.180664062 270.64453125 345.180664062 c 0
 314.1484375 345.180664062 349.426757812 333.526367188 375.30078125 309.474609375 c 0
 401.16015625 285.436523438 413.955078125 252.833984375 413.955078125 213.090820312 c 2
 413.955078125 189.630859375 l 2
EndSplineSet
EndChar

StartChar: seven
Encoding: 55 55 26
Width: 486
GlyphClass: 2
Flags: W
LayerCount: 2
Fore
SplineSet
444.556640625 688.919921875 m 1
 34.5166015625 688.919921875 l 1
 34.5166015625 621.599609375 l 1
 371.024414062 621.599609375 l 1
 102.764648438 0.419921875 l 1
 179.928710938 0.419921875 l 1
 444.556640625 615.528320312 l 1
 444.556640625 688.919921875 l 1
EndSplineSet
EndChar

StartChar: eight
Encoding: 56 56 27
Width: 567
GlyphClass: 2
Flags: MW
HStem: -9.78027 65.2793<257.785 313.491> 328.859 65.2793<260.166 299.815 260.166 301.87> 633.839 65.2803<239.322 299.467>
VStem: 58.998 76.499<152.792 200.849 184.529 197.789> 74.2979 76.5<507.869 509.91 509.91 523.169 523.169 523.17> 409.877 76.5<490.682 523.17 509.91 523.169> 424.157 76.5<183.51 184.529 184.529 198.81 198.81 200.849>
LayerCount: 2
Fore
SplineSet
279.827148438 699.119140625 m 0xe4
 149.041015625 699.119140625 74.2978515625 623.333007812 74.2978515625 523.169921875 c 2
 74.2978515625 509.91015625 l 2xec
 74.2978515625 446.7578125 106.0078125 395.016601562 162.553710938 370.03125 c 2
 178.743164062 362.876953125 l 1
 145.469726562 348.799804688 111.5625 334.454101562 85.3046875 294.094726562 c 0
 67.8427734375 267.25390625 58.998046875 235.322265625 58.998046875 197.7890625 c 2
 58.998046875 182.489257812 l 2
 58.998046875 123.094726562 78.873046875 76.90625 118.580078125 42.40625 c 0
 158.375976562 7.8310546875 211.78515625 -9.7802734375 279.827148438 -9.7802734375 c 0
 347.154296875 -9.7802734375 400.395507812 7.9736328125 440.559570312 42.9130859375 c 0
 480.625976562 77.767578125 500.657226562 124.135742188 500.657226562 183.509765625 c 2
 500.657226562 198.809570312 l 2xf2
 500.657226562 240.677734375 487.509765625 317.467773438 398.182617188 356.001953125 c 2
 382.276367188 362.86328125 l 1
 398.060546875 370.00390625 l 2
 425.37109375 382.359375 446.725585938 400.681640625 462.602539062 425.307617188 c 0
 478.4296875 449.85546875 486.376953125 477.895507812 486.376953125 509.91015625 c 2
 486.376953125 523.169921875 l 2
 486.376953125 625.958007812 408.5234375 699.119140625 279.827148438 699.119140625 c 0xe4
150.797851562 523.168945312 m 2
 150.797851562 590.166015625 198.81640625 633.838867188 279.828125 633.838867188 c 0
 319.106445312 633.838867188 350.991210938 624.34765625 374.515625 604.498046875 c 0
 398.115234375 584.5859375 409.876953125 556.942382812 409.876953125 523.168945312 c 2
 409.876953125 507.869140625 l 2
 409.876953125 473.495117188 398.37109375 445.247070312 375.176757812 424.629882812 c 0
 351.948242188 403.982421875 319.801757812 394.138671875 279.828125 394.138671875 c 0
 240.50390625 394.138671875 208.698242188 404.008789062 185.499023438 424.629882812 c 0
 162.3046875 445.247070312 150.797851562 473.495117188 150.797851562 507.869140625 c 2
 150.797851562 523.168945312 l 2
424.157226562 184.529296875 m 2xf2
 424.157226562 105.931640625 372.306640625 55.4990234375 279.827148438 55.4990234375 c 0
 235.7421875 55.4990234375 200.200195312 66.5595703125 174.283203125 89.5556640625 c 0
 148.298828125 112.611328125 135.497070312 144.793945312 135.497070312 184.529296875 c 2
 135.497070312 200.848632812 l 2
 135.497070312 239.9453125 148.333007812 271.776367188 174.283203125 294.802734375 c 0
 200.200195312 317.798828125 235.7421875 328.859375 279.827148438 328.859375 c 0
 323.912109375 328.859375 359.454101562 317.798828125 385.37109375 294.802734375 c 0
 411.321289062 271.776367188 424.157226562 239.9453125 424.157226562 200.848632812 c 2
 424.157226562 184.529296875 l 2xf2
EndSplineSet
EndChar

StartChar: nine
Encoding: 57 57 28
Width: 551
GlyphClass: 2
Flags: MW
HStem: 277.86 66.2998<228.375 265.484> 633.84 65.2803<238.03 293.096>
VStem: 52.8779 76.5<415.508 499.71 476.25 496.65> 413.959 76.498<456.771 500.73 478.29 500.73 478.29 500.73>
LayerCount: 2
Fore
SplineSet
52.8779296875 472.169921875 m 2
 52.8779296875 358.846679688 133.866210938 277.860351562 247.1875 277.860351562 c 0
 283.78125 277.860351562 312.056640625 283.919921875 332.184570312 295.2421875 c 2
 357.6015625 309.540039062 l 1
 169.998046875 0.419921875 l 1
 252.045898438 0.419921875 l 1
 252.045898438 0.419921875 423.2109375 284.3515625 423.293945312 284.487304688 c 0
 474.986328125 366.333007812 490.45703125 418.702148438 490.45703125 478.290039062 c 2
 490.45703125 500.73046875 l 2
 490.45703125 561.565429688 470.8359375 609.192382812 431.740234375 645.030273438 c 0
 392.635742188 680.876953125 339.655273438 699.120117188 271.666992188 699.120117188 c 0
 204.393554688 699.120117188 151.581054688 680.734375 112.106445312 644.522460938 c 0
 72.712890625 608.383789062 52.8779296875 559.578125 52.8779296875 496.650390625 c 2
 52.8779296875 472.169921875 l 2
129.377929688 499.709960938 m 2
 129.377929688 580.181640625 182.4453125 633.83984375 271.668945312 633.83984375 c 0
 314.522460938 633.83984375 349.45703125 622.16015625 375.3046875 598.133789062 c 0
 401.196289062 574.06640625 413.958984375 541.115234375 413.958984375 500.73046875 c 2
 413.958984375 477.26953125 l 2
 413.958984375 436.2734375 401.420898438 403.134765625 375.810546875 379.353515625 c 0
 350.280273438 355.646484375 315.513671875 344.16015625 272.6875 344.16015625 c 0
 184.063476562 344.16015625 129.377929688 396.502929688 129.377929688 476.25 c 2
 129.377929688 499.709960938 l 2
EndSplineSet
EndChar

StartChar: colon
Encoding: 58 58 29
Width: 191
GlyphClass: 2
Flags: MW
VStem: 45.7373 88.7393<50.4004 144.24 50.4004 144.24 295.2 389.04>
LayerCount: 2
Fore
SplineSet
134.4765625 389.040039062 m 1
 45.7373046875 389.040039062 l 1
 45.7373046875 295.200195312 l 1
 134.4765625 295.200195312 l 1
 134.4765625 389.040039062 l 1
134.4765625 144.240234375 m 1
 45.7373046875 144.240234375 l 1
 45.7373046875 50.400390625 l 1
 134.4765625 50.400390625 l 1
 134.4765625 144.240234375 l 1
EndSplineSet
EndChar

StartChar: semicolon
Encoding: 59 59 30
Width: 191
GlyphClass: 2
Flags: MW
VStem: 45.7373 88.7393<345.18 439.02>
LayerCount: 2
Fore
SplineSet
134.4765625 439.01953125 m 1
 45.7373046875 439.01953125 l 1
 45.7373046875 345.1796875 l 1
 134.4765625 345.1796875 l 1
 134.4765625 439.01953125 l 1
134.4765625 94.259765625 m 1
 66.13671875 94.259765625 l 1
 66.13671875 -138.079101562 l 1
 134.4765625 -77.240234375 l 1
 134.4765625 94.259765625 l 1
EndSplineSet
EndChar

StartChar: less
Encoding: 60 60 31
Width: 507
GlyphClass: 2
Flags: W
LayerCount: 2
Fore
SplineSet
50.8369140625 305.84375 m 1
 50.8369140625 242.724609375 l 1
 445.577148438 82.66796875 l 1
 445.577148438 151.779296875 l 1
 134.427734375 274.321289062 l 1
 445.577148438 395.796875 l 1
 445.577148438 464.91796875 l 1
 50.8369140625 305.84375 l 1
EndSplineSet
Substitution2: "'rtla' Right to Left Alternates lookup 0 subtable" greater
EndChar

StartChar: equal
Encoding: 61 61 32
Width: 507
GlyphClass: 2
Flags: W
LayerCount: 2
Fore
SplineSet
445.577148438 393.120117188 m 1
 50.8369140625 393.120117188 l 1
 50.8369140625 325.799804688 l 1
 445.577148438 325.799804688 l 1
 445.577148438 393.120117188 l 1
445.577148438 221.759765625 m 1
 50.8369140625 221.759765625 l 1
 50.8369140625 155.459960938 l 1
 445.577148438 155.459960938 l 1
 445.577148438 221.759765625 l 1
EndSplineSet
EndChar

StartChar: greater
Encoding: 62 62 33
Width: 507
GlyphClass: 2
Flags: W
LayerCount: 2
Fore
SplineSet
50.8369140625 395.796875 m 1
 361.986328125 274.321289062 l 1
 50.8369140625 151.779296875 l 1
 50.8369140625 82.66796875 l 1
 445.577148438 242.724609375 l 1
 445.577148438 305.84375 l 1
 50.8369140625 464.91796875 l 1
 50.8369140625 395.796875 l 1
EndSplineSet
Substitution2: "'rtla' Right to Left Alternates lookup 0 subtable" less
EndChar

StartChar: question
Encoding: 63 63 34
Width: 482
GlyphClass: 2
Flags: MW
HStem: 632.82 66.2998<208.918 250.747>
VStem: 31.7275 73.3193<524.7 524.7> 192.617 74.46<187.08 231.45 231.45 235.53 187.08 231.45> 356.837 76.5<508.437 546.468>
LayerCount: 2
Fore
SplineSet
105.046875 524.700195312 m 1
 107.298828125 581.33984375 135.559570312 632.8203125 230.8671875 632.8203125 c 0
 270.625976562 632.8203125 301.926757812 624.518554688 323.919921875 606.626953125 c 0
 345.993164062 588.668945312 356.836914062 562.626953125 356.836914062 530.309570312 c 0
 356.836914062 484.379882812 340.333984375 456.94921875 302.454101562 419.721679688 c 2
 243.3671875 361.654296875 l 2
 222.76953125 341.721679688 209.353515625 323.225585938 202.791992188 306.666015625 c 0
 196.197265625 290.021484375 192.6171875 266.235351562 192.6171875 235.530273438 c 2
 192.6171875 187.080078125 l 1
 267.077148438 187.080078125 l 1
 267.077148438 231.450195312 l 2
 267.077148438 274.491210938 275.752929688 295.3125 305.018554688 324.578125 c 2
 374.29296875 393.852539062 l 2
 417.752929688 440.153320312 433.336914062 483.50390625 433.336914062 533.370117188 c 0
 433.336914062 585.24609375 415.717773438 625.083007812 380.499023438 654.485351562 c 0
 345.216796875 683.940429688 295.993164062 699.120117188 231.88671875 699.120117188 c 0
 185.950195312 699.120117188 39.7861328125 693.295898438 31.7275390625 524.700195312 c 1
 105.046875 524.700195312 l 1
273.197265625 90.1787109375 m 1
 185.4765625 90.1787109375 l 1
 185.4765625 0.4189453125 l 1
 273.197265625 0.4189453125 l 1
 273.197265625 90.1787109375 l 1
EndSplineSet
EndChar

StartChar: at
Encoding: 64 64 35
Width: 861
GlyphClass: 2
Flags: MW
HStem: -132.18 61.2002<345.088 460.804 333.15 471.863> 57.5439 53.0381<642.961 666.218 642.961 674.644> 441.065 55.0781<377.499 429.499 375.176 441.82> 630.781 61.2031<328.945 462.19 314.832 519.688>
VStem: 49.8203 69.3584<242.671 242.674 242.674 320.194> 260.96 68.3408<203.067 320.195 236.555 320.195 320.195 321.214> 514.941 67.3184<217.068 232.474 232.474 322.235> 733.22 69.3604<221.97 323.254 246.754 322.232>
LayerCount: 2
Fore
SplineSet
425.690429688 691.984375 m 0
 203.973632812 691.984375 49.8203125 544.697265625 49.8203125 320.194335938 c 2
 49.8203125 242.673828125 l 2
 49.8203125 168.302734375 65.705078125 103.020507812 97.302734375 46.4775390625 c 0
 154.8984375 -56.587890625 264.490234375 -132.1796875 425.686523438 -132.1796875 c 0
 518.0390625 -132.1796875 588.14453125 -115.275390625 660.52734375 -74.498046875 c 1
 635.401367188 -21.814453125 l 1
 560.895507812 -60.6171875 495.920898438 -70.9794921875 425.6875 -70.9794921875 c 0
 240.612304688 -70.9794921875 119.178710938 48.55859375 119.178710938 242.670898438 c 2
 119.178710938 321.2109375 l 2
 119.178710938 506.615234375 232.202148438 630.78125 425.688476562 630.78125 c 0
 613.686523438 630.78125 733.219726562 510.95703125 733.219726562 322.232421875 c 2
 733.219726562 244.711914062 l 2
 733.219726562 199.227539062 727.270507812 165.625 713.71484375 143.786132812 c 0
 700.149414062 121.931640625 679.286132812 110.58203125 653.150390625 110.58203125 c 0
 632.772460938 110.58203125 615.291015625 118.41015625 602.000976562 133.599609375 c 0
 588.405273438 149.13671875 582.259765625 171.225585938 582.259765625 198.8125 c 2
 582.259765625 485.943359375 l 1
 516.979492188 485.943359375 l 1
 516.979492188 422.5703125 l 1
 502.881835938 444.596679688 l 2
 489.720703125 465.159179688 459.828125 496.143554688 399.169921875 496.143554688 c 0
 351.181640625 496.143554688 317.23828125 480.954101562 295.149414062 451.291015625 c 0
 272.705078125 421.151367188 260.959960938 378.014648438 260.959960938 321.213867188 c 2
 260.959960938 231.454101562 l 2
 260.959960938 174.6796875 273.02734375 131.780273438 296.08203125 102.000976562 c 0
 318.803710938 72.65234375 353.819335938 57.5439453125 403.25 57.5439453125 c 0
 465.953125 57.5439453125 505.163085938 79.72265625 524.788085938 123.403320312 c 2
 531.729492188 138.852539062 l 1
 538.73828125 123.43359375 l 2
 544.049804688 111.747070312 569.205078125 57.5439453125 652.129882812 57.5439453125 c 0
 697.157226562 57.5439453125 732.870117188 73.109375 760.64453125 104.435546875 c 0
 788.147460938 135.456054688 802.580078125 182.533203125 802.580078125 246.75390625 c 2
 802.580078125 323.25390625 l 2
 802.580078125 395.540039062 786.549804688 459.256835938 754.6328125 514.779296875 c 0
 722.6796875 570.365234375 678.247070312 613.65234375 620.9296875 644.9765625 c 0
 563.66015625 676.274414062 498.690429688 691.984375 425.690429688 691.984375 c 0
422.630859375 441.065429688 m 0
 461.008789062 441.065429688 514.94140625 423.118164062 514.94140625 322.235351562 c 2
 514.94140625 232.473632812 l 2
 514.94140625 201.662109375 512.02734375 112.624023438 422.630859375 112.624023438 c 0
 386.936523438 112.624023438 329.30078125 124.00390625 329.30078125 236.5546875 c 2
 329.30078125 320.1953125 l 2
 329.30078125 351.55078125 332.3671875 441.065429688 422.630859375 441.065429688 c 0
EndSplineSet
EndChar

StartChar: A
Encoding: 65 65 36
Width: 667
GlyphClass: 2
Flags: W
LayerCount: 2
Fore
SplineSet
150.194335938 159.540039062 m 1
 505.309570312 159.540039062 l 1
 569.569335938 0.419921875 l 1
 650.828125 0.419921875 l 1
 362.456054688 688.919921875 l 1
 294.104492188 688.919921875 l 1
 6.73046875 0.419921875 l 1
 86.9541015625 0.419921875 l 1
 150.194335938 159.540039062 l 1
479.827148438 222.780273438 m 1
 175.706054688 222.780273438 l 1
 327.766601562 602.931640625 l 1
 479.827148438 222.780273438 l 1
EndSplineSet
EndChar

StartChar: B
Encoding: 66 66 37
Width: 672
GlyphClass: 2
Flags: MW
HStem: 0.419922 66.2998<147.735 377.747 377.747 379.785 147.735 425.745> 319.68 66.3008<147.736 371.626 147.736 373.665 147.736 398.041> 622.621 66.2988<147.736 371.627 70.2168 373.666 70.2168 402.583>
VStem: 516.976 76.501<460.055 534.657 460.055 556.35> 528.195 77.5205<142.303 214.151 107.942 253.163>
LayerCount: 2
Fore
SplineSet
377.747070312 0.419921875 m 2xf0
 473.743164062 0.419921875 605.715820312 27.2724609375 605.715820312 188.611328125 c 0xe8
 605.715820312 239.69140625 591.213867188 317.497070312 492.743164062 348.59375 c 2
 471.139648438 355.416015625 l 1
 492.458007812 363.08984375 l 2
 527.651367188 375.759765625 593.4765625 412.239257812 593.4765625 507.870117188 c 0
 593.4765625 561.443359375 580.932617188 688.919921875 371.626953125 688.919921875 c 2
 70.216796875 688.919921875 l 1
 70.216796875 0.419921875 l 1
 377.747070312 0.419921875 l 2xf0
516.975585938 503.791015625 m 0xf0
 516.975585938 404.841796875 440.18359375 385.98046875 371.625976562 385.98046875 c 2
 147.736328125 385.98046875 l 1
 147.736328125 622.62109375 l 1
 373.666015625 622.62109375 l 2
 431.500976562 622.62109375 516.975585938 608.908203125 516.975585938 503.791015625 c 0xf0
528.1953125 194.73046875 m 0xe8
 528.1953125 89.875 454.370117188 66.7197265625 379.78515625 66.7197265625 c 2
 147.735351562 66.7197265625 l 1
 147.735351562 319.6796875 l 1
 373.665039062 319.6796875 l 2
 422.416992188 319.6796875 528.1953125 311.595703125 528.1953125 194.73046875 c 0xe8
EndSplineSet
EndChar

StartChar: C
Encoding: 67 67 38
Width: 681
GlyphClass: 2
Flags: MW
HStem: -8.75977 68.3398<299.905 388.045> 630.78 68.3398<301.598 376.89>
VStem: 58.9951 77.5205<292.65 293.67 293.67 391.59 391.59 396.69> 537.345 76.5205<206.46 206.46>
LayerCount: 2
Fore
SplineSet
136.515625 391.58984375 m 2
 136.515625 521.772460938 179.1328125 630.780273438 347.145507812 630.780273438 c 0
 406.634765625 630.780273438 453.493164062 618.3828125 486.97265625 592.461914062 c 0
 519.768554688 567.072265625 536.51953125 530.653320312 537.34375 484.919921875 c 1
 614.884765625 484.919921875 l 1
 614.309570312 552.5390625 590.763671875 604.23046875 544.3125 641.649414062 c 0
 497.110351562 679.673828125 432.014648438 699.120117188 348.166015625 699.120117188 c 0
 255.029296875 699.120117188 184.201171875 673.587890625 134.291015625 623.349609375 c 0
 84.5048828125 573.236328125 58.9951171875 498.154296875 58.9951171875 396.690429688 c 2
 58.9951171875 293.669921875 l 2
 58.9951171875 192.196289062 84.3466796875 117.1015625 133.80078125 66.9921875 c 0
 183.375976562 16.7607421875 253.68359375 -8.759765625 346.126953125 -8.759765625 c 0
 429.962890625 -8.759765625 495.223632812 10.845703125 542.77734375 49.2158203125 c 0
 589.58203125 86.9833984375 613.28515625 138.853515625 613.865234375 206.459960938 c 1
 537.344726562 206.459960938 l 1
 536.407226562 152.34375 511.044921875 59.580078125 348.166015625 59.580078125 c 0
 177.21875 59.580078125 136.515625 170.786132812 136.515625 292.650390625 c 2
 136.515625 391.58984375 l 2
EndSplineSet
EndChar

StartChar: D
Encoding: 68 68 39
Width: 675
GlyphClass: 2
Flags: MW
HStem: 0.419922 67.3193<147.737 320.627 320.627 322.667 147.737 367.207> 621.599 67.3213<70.2168 322.667>
VStem: 531.257 77.5205<231.748 391.589 298.769 386.489>
LayerCount: 2
Fore
SplineSet
320.626953125 0.419921875 m 2
 413.787109375 0.419921875 484.454101562 25.6337890625 534.008789062 75.1884765625 c 0
 583.4453125 124.625 608.77734375 198.67578125 608.77734375 298.768554688 c 2
 608.77734375 391.588867188 l 2
 608.77734375 491.6953125 583.604492188 565.575195312 534.518554688 614.661132812 c 0
 485.302734375 663.876953125 415.145507812 688.918945312 322.666992188 688.918945312 c 0
 238.516601562 688.918945312 154.3671875 688.919921875 70.216796875 688.919921875 c 1
 70.216796875 0.419921875 l 1
 320.626953125 0.419921875 l 2
531.256835938 296.728515625 m 2
 531.256835938 166.766601562 484.018554688 67.7392578125 322.666992188 67.7392578125 c 2
 147.737304688 67.7392578125 l 1
 147.737304688 621.598632812 l 1
 322.666992188 621.598632812 l 2
 485.578125 621.598632812 531.256835938 517.805664062 531.256835938 386.489257812 c 2
 531.256835938 296.728515625 l 2
EndSplineSet
EndChar

StartChar: E
Encoding: 69 69 40
Width: 597
GlyphClass: 2
Flags: W
LayerCount: 2
Fore
SplineSet
147.737304688 621.599609375 m 1
 546.556640625 621.599609375 l 1
 546.556640625 688.919921875 l 1
 70.216796875 688.919921875 l 1
 70.216796875 0.419921875 l 1
 546.556640625 0.419921875 l 1
 546.556640625 67.740234375 l 1
 147.737304688 67.740234375 l 1
 147.737304688 316.620117188 l 1
 489.436523438 316.620117188 l 1
 489.436523438 383.940429688 l 1
 147.737304688 383.940429688 l 1
 147.737304688 621.599609375 l 1
EndSplineSet
EndChar

StartChar: F
Encoding: 70 70 41
Width: 589
GlyphClass: 2
Flags: W
LayerCount: 2
Fore
SplineSet
147.737304688 621.599609375 m 1
 546.556640625 621.599609375 l 1
 546.556640625 688.919921875 l 1
 70.216796875 688.919921875 l 1
 70.216796875 0.419921875 l 1
 147.737304688 0.419921875 l 1
 147.737304688 313.559570312 l 1
 490.45703125 313.559570312 l 1
 490.45703125 380.879882812 l 1
 147.737304688 380.879882812 l 1
 147.737304688 621.599609375 l 1
EndSplineSet
EndChar

StartChar: G
Encoding: 71 71 42
Width: 681
GlyphClass: 2
Flags: MW
HStem: -8.75977 68.3398<300.578 389.333> 630.78 68.3389<300.578 376.577>
VStem: 58.9971 77.5195<292.65 293.669 293.669 391.59 391.59 396.689> 538.396 76.5<190.441 352.32 245.73 289.08>
LayerCount: 2
Fore
SplineSet
136.516601562 391.58984375 m 2
 136.516601562 521.772460938 179.133789062 630.780273438 347.146484375 630.780273438 c 0
 406.0078125 630.780273438 452.729492188 618 486.513671875 591.404296875 c 0
 519.446289062 565.478515625 536.469726562 529.817382812 537.341796875 485.939453125 c 1
 613.865234375 485.939453125 l 1
 613.268554688 551.453125 589.62109375 602.51171875 542.752929688 640.653320312 c 0
 495.186523438 679.362304688 430.279296875 699.119140625 347.146484375 699.119140625 c 0
 254.008789062 699.119140625 183.364257812 673.5859375 133.80078125 623.366210938 c 0
 84.3466796875 573.256835938 58.9970703125 498.163085938 58.9970703125 396.689453125 c 2
 58.9970703125 293.668945312 l 2
 58.9970703125 192.1953125 84.3466796875 117.1015625 133.80078125 66.9921875 c 0
 183.364257812 16.7724609375 254.008789062 -8.759765625 347.146484375 -8.759765625 c 0
 431.520507812 -8.759765625 496.748046875 13.107421875 543.961914062 56.0595703125 c 0
 590.953125 98.80859375 614.896484375 161.483398438 614.896484375 245.73046875 c 2
 614.896484375 352.3203125 l 1
 343.577148438 352.3203125 l 1
 343.577148438 289.080078125 l 1
 538.396484375 289.080078125 l 1
 538.396484375 239.610351562 l 2
 538.396484375 141.271484375 494.390625 59.580078125 348.166992188 59.580078125 c 0
 177.219726562 59.580078125 136.516601562 170.786132812 136.516601562 292.650390625 c 2
 136.516601562 391.58984375 l 2
EndSplineSet
EndChar

StartChar: H
Encoding: 72 72 43
Width: 686
GlyphClass: 2
Flags: W
LayerCount: 2
Fore
SplineSet
606.737304688 0.419921875 m 1
 606.737304688 688.919921875 l 1
 530.237304688 688.919921875 l 1
 530.237304688 384.959960938 l 1
 147.737304688 384.959960938 l 1
 147.737304688 688.919921875 l 1
 70.216796875 688.919921875 l 1
 70.216796875 0.419921875 l 1
 147.737304688 0.419921875 l 1
 147.737304688 318.66015625 l 1
 530.237304688 318.66015625 l 1
 530.237304688 0.419921875 l 1
 606.737304688 0.419921875 l 1
EndSplineSet
EndChar

StartChar: I
Encoding: 73 73 44
Width: 243
GlyphClass: 2
Flags: MW
VStem: 77.3574 77.5195<0.419922 688.92 0.419922 688.92>
LayerCount: 2
Fore
SplineSet
154.876953125 688.919921875 m 1
 77.357421875 688.919921875 l 1
 77.357421875 0.419921875 l 1
 154.876953125 0.419921875 l 1
 154.876953125 688.919921875 l 1
EndSplineSet
EndChar

StartChar: J
Encoding: 74 74 45
Width: 340
GlyphClass: 2
Flags: MW
HStem: 0.419922 67.3203<26.3574 81.9463 26.3574 100.307 26.3574 152.655>
VStem: 175.277 77.5195<150.87 163.11 163.11 688.92>
LayerCount: 2
Fore
SplineSet
100.306640625 0.419921875 m 2
 205.00390625 0.419921875 252.796875 50.677734375 252.796875 150.870117188 c 2
 252.796875 688.919921875 l 1
 175.27734375 688.919921875 l 1
 175.27734375 163.110351562 l 2
 175.27734375 95.568359375 148.947265625 67.740234375 81.9462890625 67.740234375 c 2
 26.357421875 67.740234375 l 1
 26.357421875 0.419921875 l 1
 100.306640625 0.419921875 l 2
EndSplineSet
EndChar

StartChar: K
Encoding: 75 75 46
Width: 672
GlyphClass: 2
Flags: W
LayerCount: 2
Fore
SplineSet
147.737304688 283.233398438 m 1
 147.737304688 688.919921875 l 1
 70.216796875 688.919921875 l 1
 70.216796875 0.419921875 l 1
 147.737304688 0.419921875 l 1
 147.737304688 188.578125 l 1
 315.538085938 367.135742188 l 1
 559.327148438 0.419921875 l 1
 651.952148438 0.419921875 l 1
 365.944335938 420.901367188 l 1
 616.161132812 688.919921875 l 1
 520.842773438 688.919921875 l 1
 147.737304688 283.233398438 l 1
EndSplineSet
EndChar

StartChar: L
Encoding: 76 76 47
Width: 578
GlyphClass: 2
Flags: W
LayerCount: 2
Fore
SplineSet
147.737304688 688.919921875 m 1
 70.216796875 688.919921875 l 1
 70.216796875 0.419921875 l 1
 542.4765625 0.419921875 l 1
 542.4765625 67.740234375 l 1
 147.737304688 67.740234375 l 1
 147.737304688 688.919921875 l 1
EndSplineSet
EndChar

StartChar: M
Encoding: 77 77 48
Width: 830
GlyphClass: 2
Flags: W
LayerCount: 2
Fore
SplineSet
751.577148438 0.419921875 m 1
 751.577148438 688.919921875 l 1
 671.91015625 688.919921875 l 1
 411.407226562 223.958007812 l 1
 150.904296875 688.919921875 l 1
 70.216796875 688.919921875 l 1
 70.216796875 0.419921875 l 1
 147.737304688 0.419921875 l 1
 147.737304688 554.130859375 l 1
 383.216796875 140.16015625 l 1
 439.59765625 140.16015625 l 1
 675.077148438 554.130859375 l 1
 675.077148438 0.419921875 l 1
 751.577148438 0.419921875 l 1
EndSplineSet
EndChar

StartChar: N
Encoding: 78 78 49
Width: 723
GlyphClass: 2
Flags: W
LayerCount: 2
Fore
SplineSet
643.45703125 0.419921875 m 1
 643.45703125 688.919921875 l 1
 565.936523438 688.919921875 l 1
 565.936523438 127.630859375 l 1
 151.52734375 688.919921875 l 1
 70.216796875 688.919921875 l 1
 70.216796875 0.419921875 l 1
 147.737304688 0.419921875 l 1
 147.737304688 560.654296875 l 1
 562.142578125 0.419921875 l 1
 643.45703125 0.419921875 l 1
EndSplineSet
EndChar

StartChar: O
Encoding: 79 79 50
Width: 697
GlyphClass: 2
Flags: MW
HStem: -8.75977 68.3398<297.191 389.289> 630.78 68.3398<299.905 392.003 299.905 433.65>
VStem: 58.9971 77.5195<292.65 293.67 293.67 391.59 391.59 396.69> 553.697 76.5<237.121 396.69 293.67 391.591>
LayerCount: 2
Fore
SplineSet
343.067382812 -8.759765625 m 0
 435.510742188 -8.759765625 505.818359375 16.7607421875 555.392578125 66.9921875 c 0
 604.846679688 117.1015625 630.197265625 192.196289062 630.197265625 293.669921875 c 2
 630.197265625 396.690429688 l 2
 630.197265625 498.18359375 605.169921875 573.301757812 556.376953125 623.404296875 c 0
 507.482421875 673.610351562 437.879882812 699.120117188 346.126953125 699.120117188 c 0
 253.68359375 699.120117188 183.375976562 673.599609375 133.80078125 623.3671875 c 0
 84.3466796875 573.2578125 58.9970703125 498.1640625 58.9970703125 396.690429688 c 2
 58.9970703125 293.669921875 l 2
 58.9970703125 192.176757812 84.0244140625 117.057617188 132.817382812 66.9560546875 c 0
 181.7109375 16.7490234375 251.314453125 -8.759765625 343.067382812 -8.759765625 c 0
553.697265625 292.651367188 m 2
 553.697265625 181.590820312 520.604492188 59.580078125 345.107421875 59.580078125 c 0
 182.651367188 59.580078125 136.516601562 161.854492188 136.516601562 292.650390625 c 2
 136.516601562 391.58984375 l 2
 136.516601562 521.236328125 178.319335938 630.780273438 345.107421875 630.780273438 c 0
 522.193359375 630.780273438 553.697265625 504.591796875 553.697265625 391.590820312 c 2
 553.697265625 292.651367188 l 2
EndSplineSet
EndChar

StartChar: P
Encoding: 80 80 51
Width: 637
GlyphClass: 2
Flags: MW
HStem: 282.96 67.3203<147.736 367.546 367.546 369.585 147.735 402.441> 621.6 67.3203<147.735 363.465 363.465 367.546 70.2158 420.173>
VStem: 524.115 77.5195<438.429 519.352 390.693 531.256>
LayerCount: 2
Fore
SplineSet
367.545898438 282.959960938 m 2
 437.3359375 282.959960938 601.634765625 295.956054688 601.634765625 485.4296875 c 0
 601.634765625 553.2734375 581.51953125 603.27734375 542.081054688 637.219726562 c 0
 502.484375 671.297851562 444.643554688 688.919921875 367.545898438 688.919921875 c 2
 70.2158203125 688.919921875 l 1
 70.2158203125 0.419921875 l 1
 147.736328125 0.419921875 l 1
 147.736328125 282.959960938 l 1
 367.545898438 282.959960938 l 2
524.115234375 484.41015625 m 0
 524.115234375 392.448242188 474.995117188 350.280273438 369.584960938 350.280273438 c 2
 147.735351562 350.280273438 l 1
 147.735351562 621.599609375 l 1
 363.46484375 621.599609375 l 2
 476.881835938 621.599609375 524.115234375 578.102539062 524.115234375 484.41015625 c 0
EndSplineSet
EndChar

StartChar: Q
Encoding: 81 81 52
Width: 697
GlyphClass: 2
Flags: MW
HStem: -8.75977 68.3398<297.191 353.098> 630.78 68.3398<299.905 392.003 299.905 433.651>
VStem: 58.9971 77.5195<292.65 293.67 293.67 391.59 391.59 396.69> 553.697 76.5<237.12 396.69 293.67 391.59>
LayerCount: 2
Fore
SplineSet
630.197265625 293.669921875 m 2
 630.197265625 396.690429688 l 2
 630.197265625 498.18359375 605.169921875 573.301757812 556.376953125 623.404296875 c 0
 507.482421875 673.610351562 437.879882812 699.120117188 346.126953125 699.120117188 c 0
 253.68359375 699.120117188 183.375976562 673.599609375 133.80078125 623.3671875 c 0
 84.3466796875 573.2578125 58.9970703125 498.1640625 58.9970703125 396.690429688 c 2
 58.9970703125 293.669921875 l 2
 58.9970703125 192.176757812 84.0244140625 117.057617188 132.817382812 66.9560546875 c 0
 181.7109375 16.7490234375 251.314453125 -8.759765625 343.067382812 -8.759765625 c 0
 363.12890625 -8.759765625 400.120117188 -8.759765625 450.928710938 5.9189453125 c 1
 534.900390625 -150.895507812 l 1
 593.841796875 -119.349609375 l 1
 512.546875 33.0791015625 l 1
 549.046875 56.9814453125 630.197265625 113.297851562 630.197265625 293.669921875 c 2
345.107421875 630.780273438 m 0
 522.1953125 630.780273438 553.697265625 504.590820312 553.697265625 391.58984375 c 2
 553.697265625 292.650390625 l 2
 553.697265625 181.588867188 520.603515625 59.580078125 345.107421875 59.580078125 c 0
 182.651367188 59.580078125 136.516601562 161.854492188 136.516601562 292.650390625 c 2
 136.516601562 391.58984375 l 2
 136.516601562 521.236328125 178.319335938 630.780273438 345.107421875 630.780273438 c 0
EndSplineSet
EndChar

StartChar: R
Encoding: 82 82 53
Width: 666
GlyphClass: 2
Flags: MW
HStem: 621.599 67.3203<147.737 365.507 365.507 369.587 70.2168 408.459>
VStem: 524.117 77.5195<469.768 515.63 469.768 544.927>
LayerCount: 2
Fore
SplineSet
601.63671875 494.609375 m 0
 601.63671875 536.650390625 596.952148438 688.918945312 369.586914062 688.918945312 c 2
 70.216796875 688.918945312 l 1
 70.216796875 0.4189453125 l 1
 147.737304688 0.4189453125 l 1
 147.737304688 300.298828125 l 1
 363.920898438 300.298828125 l 1
 528.139648438 0.419921875 l 1
 616.584960938 0.419921875 l 1
 443.568359375 306.993164062 l 1
 473.32421875 313.829101562 526.424804688 326.02734375 564.022460938 373.389648438 c 0
 588.952148438 404.793945312 601.63671875 444.926757812 601.63671875 494.609375 c 0
524.1171875 494.609375 m 0
 524.1171875 391.770507812 454.71875 365.579101562 371.626953125 365.579101562 c 2
 147.737304688 365.579101562 l 1
 147.737304688 621.598632812 l 1
 365.506835938 621.598632812 l 2
 451.412109375 621.598632812 524.1171875 595.244140625 524.1171875 494.609375 c 0
EndSplineSet
EndChar

StartChar: S
Encoding: 83 83 54
Width: 611
GlyphClass: 2
Flags: MW
HStem: -5.7002 64.2578<226.887 336.101> 634.86 63.2393<256.562 333.362>
VStem: 29.0508 74.5723<188.098 188.098> 44.7139 74.4629<469.716 536.459> 474.416 74.2539<513.48 513.48> 486.374 76.5029<161.74 229.485>
LayerCount: 2
Fore
SplineSet
29.05078125 188.09765625 m 1xe4
 38.4150390625 90.38671875 97.376953125 -5.7001953125 293.086914062 -5.7001953125 c 0
 379.115234375 -5.7001953125 445.389648438 12.1533203125 492.55859375 46.875 c 0
 539.514648438 81.4384765625 562.876953125 129.770507812 562.876953125 193.709960938 c 0xe4
 562.876953125 300.018554688 498.0703125 361.82421875 361.505859375 379.916992188 c 2
 361.505859375 379.916992188 262.63671875 391.12890625 262.509765625 391.14453125 c 0
 188.961914062 400.737304688 119.176757812 427.482421875 119.176757812 511.950195312 c 0
 119.176757812 564.149414062 146.749023438 634.860351562 296.146484375 634.860351562 c 0
 370.578125 634.860351562 461.807617188 617.920898438 474.416015625 513.48046875 c 1
 548.669921875 513.48046875 l 1
 541.58984375 567.541992188 512.041992188 698.099609375 296.143554688 698.099609375 c 0
 216.98046875 698.099609375 155.51953125 680.807617188 111.036132812 647.118164062 c 0
 66.763671875 613.587890625 44.7138671875 567.087890625 44.7138671875 505.830078125 c 0xd8
 44.7138671875 401.583984375 108.45703125 341.458984375 243.036132812 324.719726562 c 2
 243.036132812 324.719726562 337.80859375 313.510742188 337.850585938 313.505859375 c 0
 424.858398438 303.702148438 486.374023438 271.381835938 486.374023438 187.587890625 c 0
 486.374023438 100.71484375 419.436523438 58.5576171875 297.1640625 58.5576171875 c 0
 156.609375 58.5576171875 112.501953125 115.762695312 103.623046875 188.09765625 c 1
 29.05078125 188.09765625 l 1xe4
EndSplineSet
EndChar

StartChar: T
Encoding: 84 84 55
Width: 549
GlyphClass: 2
Flags: W
LayerCount: 2
Fore
SplineSet
307.876953125 0.419921875 m 1
 307.876953125 621.599609375 l 1
 535.336914062 621.599609375 l 1
 535.336914062 688.919921875 l 1
 3.9169921875 688.919921875 l 1
 3.9169921875 621.599609375 l 1
 231.376953125 621.599609375 l 1
 231.376953125 0.419921875 l 1
 307.876953125 0.419921875 l 1
EndSplineSet
EndChar

StartChar: U
Encoding: 85 85 56
Width: 693
GlyphClass: 2
Flags: MW
HStem: -5.7002 66.2998<300.668 385.263>
VStem: 70.2168 77.5205<204.688 688.92 250.83 688.92 250.83 688.92> 536.357 77.5195<244.71 250.83 250.83 688.92>
LayerCount: 2
Fore
SplineSet
342.046875 60.599609375 m 0
 259.290039062 60.599609375 147.737304688 86.6416015625 147.737304688 250.830078125 c 2
 147.737304688 688.919921875 l 1
 70.216796875 688.919921875 l 1
 70.216796875 244.709960938 l 2
 70.216796875 164.666015625 94.2275390625 103.6484375 141.685546875 60.1181640625 c 0
 189.21484375 16.5224609375 255.616210938 -5.7001953125 342.046875 -5.7001953125 c 0
 428.478515625 -5.7001953125 494.87890625 16.5224609375 542.409179688 60.1181640625 c 0
 589.866210938 103.6484375 613.876953125 164.666015625 613.876953125 244.709960938 c 2
 613.876953125 688.919921875 l 1
 536.357421875 688.919921875 l 1
 536.357421875 250.830078125 l 2
 536.357421875 146.420898438 491.0390625 60.599609375 342.046875 60.599609375 c 0
EndSplineSet
EndChar

StartChar: V
Encoding: 86 86 57
Width: 605
GlyphClass: 2
Flags: W
LayerCount: 2
Fore
SplineSet
86.7587890625 688.919921875 m 1
 6.3056640625 688.919921875 l 1
 265.741210938 0.419921875 l 1
 332.651367188 0.419921875 l 1
 589.092773438 688.919921875 l 1
 508.622070312 688.919921875 l 1
 299.260742188 95.380859375 l 1
 86.7587890625 688.919921875 l 1
EndSplineSet
EndChar

StartChar: W
Encoding: 87 87 58
Width: 919
GlyphClass: 2
Flags: W
LayerCount: 2
Fore
SplineSet
709.5859375 0.419921875 m 1
 905.16015625 688.919921875 l 1
 831.39453125 688.919921875 l 1
 671.579101562 94.1123046875 l 1
 508.58984375 688.919921875 l 1
 405.075195312 688.919921875 l 1
 249.516601562 94.2001953125 l 1
 81.259765625 688.919921875 l 1
 5.4306640625 688.919921875 l 1
 204.99609375 0.419921875 l 1
 287.27734375 0.419921875 l 1
 457.306640625 609.779296875 l 1
 627.3359375 0.419921875 l 1
 709.5859375 0.419921875 l 1
EndSplineSet
EndChar

StartChar: X
Encoding: 88 88 59
Width: 649
GlyphClass: 2
Flags: W
LayerCount: 2
Fore
SplineSet
274.018554688 358.946289062 m 1
 10.3671875 0.419921875 l 1
 98.416015625 0.419921875 l 1
 315.454101562 303.650390625 l 1
 537.68359375 0.419921875 l 1
 628.88671875 0.419921875 l 1
 364.181640625 362.018554688 l 1
 604.374023438 688.919921875 l 1
 516.303710938 688.919921875 l 1
 320.66015625 417.307617188 l 1
 122.934570312 688.919921875 l 1
 31.7724609375 688.919921875 l 1
 274.018554688 358.946289062 l 1
EndSplineSet
EndChar

StartChar: Y
Encoding: 89 89 60
Width: 579
GlyphClass: 2
Flags: W
LayerCount: 2
Fore
SplineSet
323.176757812 278.388671875 m 1
 561.325195312 688.919921875 l 1
 475.12890625 688.919921875 l 1
 285.984375 338.844726562 l 1
 94.748046875 688.919921875 l 1
 8.544921875 688.919921875 l 1
 246.676757812 279.413085938 l 1
 246.676757812 0.419921875 l 1
 323.176757812 0.419921875 l 1
 323.176757812 278.388671875 l 1
EndSplineSet
EndChar

StartChar: Z
Encoding: 90 90 61
Width: 570
GlyphClass: 2
Flags: W
LayerCount: 2
Fore
SplineSet
530.237304688 1.4404296875 m 1
 530.237304688 68.759765625 l 1
 118.784179688 68.759765625 l 1
 525.13671875 617.4921875 l 1
 525.13671875 689.940429688 l 1
 46.7568359375 689.940429688 l 1
 46.7568359375 622.620117188 l 1
 440.893554688 622.620117188 l 1
 33.4970703125 73.8818359375 l 1
 33.4970703125 1.4404296875 l 1
 530.237304688 1.4404296875 l 1
EndSplineSet
EndChar

StartChar: bracketleft
Encoding: 91 91 62
Width: 317
GlyphClass: 2
Flags: MW
VStem: 70.2168 187.68<-85.2598 -17.9404 672.6 739.92 -85.2598 -17.9404>
LayerCount: 2
Fore
SplineSet
257.896484375 739.919921875 m 1
 70.216796875 739.919921875 l 1
 70.216796875 -85.259765625 l 1
 257.896484375 -85.259765625 l 1
 257.896484375 -17.9404296875 l 1
 142.63671875 -17.9404296875 l 1
 142.63671875 672.599609375 l 1
 257.896484375 672.599609375 l 1
 257.896484375 739.919921875 l 1
EndSplineSet
Substitution2: "'rtla' Right to Left Alternates lookup 0 subtable" bracketright
EndChar

StartChar: backslash
Encoding: 92 92 63
Width: 424
GlyphClass: 2
Flags: W
LayerCount: 2
Fore
SplineSet
111.236328125 690.959960938 m 1
 53.0283203125 690.959960938 l 1
 303.577148438 -9.7802734375 l 1
 361.786132812 -9.7802734375 l 1
 111.236328125 690.959960938 l 1
EndSplineSet
EndChar

StartChar: bracketright
Encoding: 93 93 64
Width: 317
GlyphClass: 2
Flags: MW
VStem: 49.8174 187.68<-85.2598 -17.9404 -85.2598 739.92 672.6 739.92 672.6 672.6>
LayerCount: 2
Fore
SplineSet
49.8173828125 672.599609375 m 1
 164.056640625 672.599609375 l 1
 164.056640625 -17.9404296875 l 1
 49.8173828125 -17.9404296875 l 1
 49.8173828125 -85.259765625 l 1
 237.497070312 -85.259765625 l 1
 237.497070312 739.919921875 l 1
 49.8173828125 739.919921875 l 1
 49.8173828125 672.599609375 l 1
EndSplineSet
Substitution2: "'rtla' Right to Left Alternates lookup 0 subtable" bracketleft
EndChar

StartChar: asciicircum
Encoding: 94 94 65
Width: 507
GlyphClass: 2
Flags: W
LayerCount: 2
Fore
SplineSet
280.819335938 690.959960938 m 1
 216.614257812 690.959960938 l 1
 50.525390625 287.040039062 l 1
 108.3984375 287.040039062 l 1
 248.180664062 634.377929688 l 1
 389.021484375 287.040039062 l 1
 446.908203125 287.040039062 l 1
 280.819335938 690.959960938 l 1
EndSplineSet
EndChar

StartChar: underscore
Encoding: 95 95 66
Width: 535
GlyphClass: 2
Flags: MW
HStem: -110.76 44.8799<-3.22266 529.217 -3.22266 529.217>
LayerCount: 2
Fore
SplineSet
529.216796875 -65.8798828125 m 1
 -3.22265625 -65.8798828125 l 1
 -3.22265625 -110.759765625 l 1
 529.216796875 -110.759765625 l 1
 529.216796875 -65.8798828125 l 1
EndSplineSet
EndChar

StartChar: grave
Encoding: 96 96 67
Width: 498
GlyphClass: 2
Flags: MW
HStem: 588.96 115.26<108.186 301.432 108.186 301.432>
LayerCount: 2
Fore
SplineSet
197.877929688 704.219726562 m 1
 108.185546875 704.219726562 l 1
 237.853515625 588.959960938 l 1
 301.431640625 588.959960938 l 1
 197.877929688 704.219726562 l 1
EndSplineSet
EndChar

StartChar: a
Encoding: 97 97 68
Width: 548
GlyphClass: 2
Flags: MW
HStem: -5.7002 55.0801<214.529 263.846> 238.081 49.9785<246.165 401.715 401.715 401.715> 457.38 57.1201<223.932 280.304>
VStem: 39.6162 70.3799<122.295 186.181 102.711 210.608> 57.0127 69.4004<368.64 368.64> 401.715 71.4014<132.003 189.631 189.631 238.081>
LayerCount: 2
Fore
SplineSet
39.6162109375 143.73046875 m 0xf4
 39.6162109375 100.859375 49.73046875 -5.7001953125 225.765625 -5.7001953125 c 0
 301.92578125 -5.7001953125 356.064453125 15.5693359375 390.211914062 56.8046875 c 2
 403.755859375 73.16015625 l 1
 403.755859375 0.419921875 l 1
 473.116210938 0.419921875 l 1
 473.116210938 333.450195312 l 2
 473.116210938 393.009765625 454.4765625 437.202148438 417.734375 467.821289062 c 0
 380.856445312 498.552734375 327.037109375 514.5 255.346679688 514.5 c 0
 192.516601562 514.5 144 500.6171875 109.04296875 473.750976562 c 0
 75.34375 447.852539062 58.109375 413.318359375 57.0126953125 368.639648438 c 1
 126.413085938 368.639648438 l 1xec
 127.795898438 401.1953125 146.146484375 457.379882812 256.366210938 457.379882812 c 0
 304.241210938 457.379882812 401.715820312 448.045898438 401.715820312 331.41015625 c 2
 401.715820312 288.059570312 l 1
 231.885742188 288.059570312 l 2
 172.129882812 288.059570312 39.6162109375 277.486328125 39.6162109375 143.73046875 c 0xf4
401.71484375 189.630859375 m 2
 401.71484375 74.375 323.609375 49.3798828125 243.106445312 49.3798828125 c 0
 185.952148438 49.3798828125 109.99609375 60.6728515625 109.99609375 144.75 c 0xf4
 109.99609375 227.611328125 188.018554688 238.081054688 246.165039062 238.081054688 c 2
 401.71484375 238.081054688 l 1
 401.71484375 189.630859375 l 2
EndSplineSet
EndChar

StartChar: b
Encoding: 98 98 69
Width: 579
GlyphClass: 2
Flags: MW
HStem: -8.75977 61.1992<272.58 320.76 272.58 341.545> 455.338 62.2217<291.337 330.776>
VStem: 65.1172 71.3994<419.645 688.92 419.645 688.92> 448.635 71.4023<227.37 231.448 231.448 278.368>
LayerCount: 2
Fore
SplineSet
309.407226562 -8.759765625 m 0
 373.68359375 -8.759765625 424.244140625 11.5830078125 462.453125 52.078125 c 0
 500.5078125 92.41015625 520.037109375 150.424804688 520.037109375 227.370117188 c 2
 520.037109375 282.450195312 l 2
 520.037109375 358.69921875 500.522460938 416.375976562 462.453125 456.72265625 c 0
 424.244140625 497.216796875 373.68359375 517.559570312 309.407226562 517.559570312 c 0
 273.267578125 517.559570312 196.756835938 508.798828125 150.509765625 440.354492188 c 2
 136.516601562 419.64453125 l 1
 136.516601562 688.919921875 l 1
 65.1171875 688.919921875 l 1
 65.1171875 0.419921875 l 1
 135.497070312 0.419921875 l 1
 135.497070312 84.28125 l 1
 149.41015625 64.4814453125 l 2
 178.209960938 23.49609375 227.05859375 -8.759765625 309.407226562 -8.759765625 c 0
295.125 455.337890625 m 0
 366.427734375 455.337890625 448.634765625 423.802734375 448.634765625 278.368164062 c 2
 448.634765625 231.448242188 l 2
 448.634765625 173.293945312 435.891601562 128.4140625 408.98828125 97.8759765625 c 0
 382.16796875 67.4306640625 344.354492188 52.439453125 297.166015625 52.439453125 c 0
 247.993164062 52.439453125 208.252929688 67.5361328125 179.39453125 98.1982421875 c 0
 150.635742188 128.752929688 136.514648438 169.48046875 136.514648438 219.208007812 c 2
 136.514648438 287.547851562 l 2
 136.514648438 337.908203125 150.426757812 378.959960938 178.850585938 409.54296875 c 0
 207.356445312 440.213867188 246.604492188 455.337890625 295.125 455.337890625 c 0
EndSplineSet
EndChar

StartChar: c
Encoding: 99 99 70
Width: 552
GlyphClass: 2
Flags: MW
HStem: -8.75977 61.2002<244.828 315.6> 455.34 62.2197<244.157 303.847>
VStem: 49.8184 71.3984<189.264 278.37 230.43 278.37 278.37 280.41> 423.097 69.375<167.7 167.7>
LayerCount: 2
Fore
SplineSet
121.216796875 278.370117188 m 2
 121.216796875 345.130859375 137.896484375 455.33984375 281.8671875 455.33984375 c 0
 325.826171875 455.33984375 360.7890625 445.236328125 385.766601562 423.932617188 c 0
 410.202148438 403.090820312 422.561523438 373.947265625 423.1171875 338.040039062 c 1
 492.484375 338.040039062 l 1
 491.94140625 394.2265625 473.368164062 437.35546875 436.995117188 468.942382812 c 0
 400.014648438 501.056640625 348.309570312 517.559570312 280.846679688 517.559570312 c 0
 207.466796875 517.559570312 151.2265625 497.15625 110.793945312 457.049804688 c 0
 70.484375 417.065429688 49.818359375 358.661132812 49.818359375 280.41015625 c 2
 49.818359375 228.389648438 l 2
 49.818359375 150.138671875 70.4833984375 91.734375 110.79296875 51.75 c 0
 151.209960938 11.6591796875 207.788085938 -8.759765625 281.8671875 -8.759765625 c 0
 349.33203125 -8.759765625 400.8515625 7.74609375 437.479492188 39.8359375 c 0
 473.330078125 71.244140625 491.704101562 113.388671875 492.471679688 167.700195312 c 1
 423.096679688 167.700195312 l 1
 421.708007812 106.346679688 382.127929688 52.4404296875 281.8671875 52.4404296875 c 0
 195.0625 52.4404296875 121.216796875 92.8662109375 121.216796875 230.4296875 c 2
 121.216796875 278.370117188 l 2
EndSplineSet
EndChar

StartChar: d
Encoding: 100 100 71
Width: 579
GlyphClass: 2
Flags: MW
HStem: -8.75977 61.2002<243.248 282.553> 455.34 62.2197<249.803 298.282>
VStem: 49.8184 71.3994<187.857 277.35 230.43 277.35 277.35 282.45> 433.337 70.3799<0.419922 86.0947 0.419922 688.92 421.224 421.224 421.224 688.92>
LayerCount: 2
Fore
SplineSet
258.407226562 -8.759765625 m 0
 306.69921875 -8.759765625 377.350585938 3.2353515625 419.34375 65.3857421875 c 2
 433.336914062 86.0947265625 l 1
 433.336914062 0.419921875 l 1
 503.716796875 0.419921875 l 1
 503.716796875 688.919921875 l 1
 433.336914062 688.919921875 l 1
 433.336914062 421.223632812 l 1
 419.399414062 441.293945312 l 2
 404.452148438 462.817382812 356.583007812 517.559570312 256.3671875 517.559570312 c 0
 193.495117188 517.559570312 143.975585938 497.256835938 106.427734375 456.770507812 c 0
 69.015625 416.431640625 49.818359375 358.724609375 49.818359375 282.450195312 c 2
 49.818359375 226.349609375 l 2
 49.818359375 149.364257812 68.8720703125 91.48828125 105.91796875 51.517578125 c 0
 143.060546875 11.4423828125 193.408203125 -8.759765625 258.407226562 -8.759765625 c 0
274.727539062 52.4404296875 m 0
 211.768554688 52.4404296875 121.217773438 78.796875 121.217773438 230.4296875 c 2
 121.217773438 277.349609375 l 2
 121.217773438 335.499023438 133.95703125 380.231445312 160.896484375 410.447265625 c 0
 187.752929688 440.5703125 225.897460938 455.33984375 273.708007812 455.33984375 c 0
 322.85546875 455.33984375 362.431640625 440.434570312 390.970703125 410.088867188 c 0
 419.44921875 379.807617188 433.337890625 338.561523438 433.337890625 287.549804688 c 2
 433.337890625 219.209960938 l 2
 433.337890625 168.874023438 419.616210938 127.991210938 391.514648438 97.7275390625 c 0
 363.303710938 67.3466796875 323.872070312 52.4404296875 274.727539062 52.4404296875 c 0
EndSplineSet
EndChar

StartChar: e
Encoding: 101 101 72
Width: 556
GlyphClass: 2
Flags: MW
HStem: -8.75977 60.1797<247.555 306.234> 456.36 61.1992<250.892 305.526>
VStem: 49.8174 71.3984<228.39 233.49 233.49 240.12 228.39 275.31> 424.155 71.4014<290.1 293.67 293.67 306.93 290.1 290.1>
LayerCount: 2
Fore
SplineSet
286.965820312 51.419921875 m 0
 197.294921875 51.419921875 121.215820312 91.6982421875 121.215820312 228.389648438 c 2
 121.215820312 240.120117188 l 1
 495.556640625 240.120117188 l 1
 495.556640625 293.669921875 l 2
 495.556640625 367.109375 475.6171875 422.087890625 436.66796875 460.063476562 c 0
 397.583007812 498.171875 343.689453125 517.559570312 273.70703125 517.559570312 c 0
 202.471679688 517.559570312 148.034179688 496.576171875 108.927734375 455.188476562 c 0
 69.8564453125 413.838867188 49.8173828125 354.296875 49.8173828125 275.309570312 c 2
 49.8173828125 233.490234375 l 2
 49.8173828125 153.180664062 70.83984375 93.4189453125 111.813476562 52.76953125 c 0
 152.922851562 11.9873046875 210.182617188 -8.759765625 284.926757812 -8.759765625 c 0
 327.541992188 -8.759765625 364.295898438 -1.2705078125 395.388671875 13.4580078125 c 0
 430.266601562 29.978515625 488.9296875 70.02734375 492.3828125 153.419921875 c 1
 421.926757812 153.419921875 l 1
 420.151367188 124.711914062 407.735351562 100.318359375 385.233398438 81.2783203125 c 0
 361.307617188 61.0341796875 328.227539062 51.419921875 286.965820312 51.419921875 c 0
273.705078125 456.360351562 m 0
 337.34765625 456.360351562 424.155273438 433.213867188 424.155273438 306.9296875 c 2
 424.155273438 290.099609375 l 1
 120.795898438 290.099609375 l 1
 122.315429688 318.592773438 125.461914062 377.583007812 164.767578125 416.888671875 c 0
 191.31640625 443.4375 228.079101562 456.360351562 273.705078125 456.360351562 c 0
EndSplineSet
EndChar

StartChar: f
Encoding: 102 102 73
Width: 359
GlyphClass: 2
Flags: MW
HStem: 639.96 48.96<277.787 318.077>
VStem: 116.117 71.3994<0.419922 457.38 0.419922 457.38 507.36 551.73 0.419922 507.36>
LayerCount: 2
Fore
SplineSet
187.516601562 554.790039062 m 2
 187.516601562 622.744140625 228.942382812 639.959960938 277.787109375 639.959960938 c 2
 318.077148438 639.959960938 l 1
 318.077148438 688.919921875 l 1
 263.506835938 688.919921875 l 2
 215.883789062 688.919921875 116.1171875 678.049804688 116.1171875 551.73046875 c 2
 116.1171875 507.360351562 l 1
 42.6767578125 507.360351562 l 1
 42.6767578125 457.379882812 l 1
 116.1171875 457.379882812 l 1
 116.1171875 0.419921875 l 1
 187.516601562 0.419921875 l 1
 187.516601562 457.379882812 l 1
 318.077148438 457.379882812 l 1
 318.077148438 507.360351562 l 1
 187.516601562 507.360351562 l 1
 187.516601562 554.790039062 l 2
EndSplineSet
EndChar

StartChar: g
Encoding: 103 103 74
Width: 579
GlyphClass: 2
Flags: MW
HStem: -162.78 58.1387<241.06 294.085> 15.7188 62.2217<246.185 283.987> 456.36 61.1982<249.801 298.28>
VStem: 49.8164 71.3994<207.612 279.39 249.81 279.39 279.39 284.489> 61.8955 70.3047<-31.2012 -31.2012> 433.336 70.3799<-24.8643 507.359 37.6494 112.154 216.865 242.67 242.67 290.61 422.243 507.359 422.243 422.243>
LayerCount: 2
Fore
SplineSet
61.8955078125 -31.201171875 m 1xec
 65.2958984375 -57.3818359375 80.138671875 -162.780273438 272.686523438 -162.780273438 c 0
 315.484375 -162.780273438 503.715820312 -160.962890625 503.715820312 37.6494140625 c 2
 503.715820312 507.359375 l 1
 433.3359375 507.359375 l 1
 433.3359375 422.243164062 l 1
 419.3984375 442.3125 l 2
 403.983398438 464.508789062 356.654296875 517.55859375 256.366210938 517.55859375 c 0
 192.772460938 517.55859375 143.09375 497.393554688 105.916992188 457.28125 c 0
 68.84375 417.28125 49.81640625 360.083007812 49.81640625 284.489257812 c 2
 49.81640625 244.708984375 l 2xf4
 49.81640625 170.515625 68.9775390625 114.380859375 106.361328125 75.046875 c 0
 143.85546875 35.5966796875 194.078125 15.71875 258.40625 15.71875 c 0
 309.567382812 15.71875 378.532226562 28.85546875 419.290039062 90.8056640625 c 2
 433.3359375 112.154296875 l 1
 433.3359375 31.529296875 l 2
 433.3359375 -81.2578125 352.715820312 -104.641601562 273.706054688 -104.641601562 c 0
 208.413085938 -104.641601562 150.119140625 -90.56640625 132.200195312 -31.201171875 c 1
 61.8955078125 -31.201171875 l 1xec
273.706054688 77.9404296875 m 0
 218.6640625 77.9404296875 121.215820312 99.20703125 121.215820312 249.809570312 c 2
 121.215820312 279.389648438 l 2
 121.215820312 336.877929688 133.973632812 381.271484375 160.89453125 411.467773438 c 0
 187.750976562 441.58984375 225.895507812 456.360351562 273.706054688 456.360351562 c 0
 322.853515625 456.360351562 362.4296875 441.454101562 390.96875 411.108398438 c 0
 419.404296875 380.873046875 433.3359375 340.313476562 433.3359375 290.610351562 c 2
 433.3359375 242.669921875 l 2
 433.3359375 191.060546875 419.853515625 150.1015625 391.927734375 121.086914062 c 0
 363.9609375 92.0302734375 324.05859375 77.9404296875 273.706054688 77.9404296875 c 0
EndSplineSet
EndChar

StartChar: h
Encoding: 104 104 75
Width: 571
GlyphClass: 2
Flags: MW
HStem: 451.26 62.2207<287.675 317.5>
VStem: 65.1172 71.3994<0.419922 298.77 298.77 321.959 421.169 688.919 0.419922 298.77> 425.178 71.4004<0.419922 309.99 0.419922 321.21>
LayerCount: 2
Fore
SplineSet
287.98828125 451.259765625 m 0
 347.012695312 451.259765625 425.177734375 428.827148438 425.177734375 309.990234375 c 2
 425.177734375 0.419921875 l 1
 496.578125 0.419921875 l 1
 496.578125 321.209960938 l 2
 496.578125 382.396484375 480.041015625 429.168945312 447.713867188 462.790039062 c 0
 415.454101562 496.33984375 369.837890625 513.48046875 309.408203125 513.48046875 c 0
 265.94140625 513.48046875 196.33203125 503.138671875 150.350585938 440.125976562 c 2
 136.516601562 421.168945312 l 1
 136.516601562 688.918945312 l 1
 112.716796875 688.918945312 88.9169921875 688.919921875 65.1171875 688.919921875 c 1
 65.1171875 0.419921875 l 1
 136.516601562 0.419921875 l 1
 136.516601562 298.76953125 l 2
 136.516601562 345.149414062 150.182617188 382.774414062 178.064453125 410.293945312 c 0
 205.8671875 437.735351562 242.926757812 451.259765625 287.98828125 451.259765625 c 0
EndSplineSet
EndChar

StartChar: i
Encoding: 105 105 76
Width: 227
GlyphClass: 2
Flags: MW
VStem: 72.2568 71.4004<0.419922 507.36 0.419922 507.36 609.36 687.9>
LayerCount: 2
Fore
SplineSet
143.657226562 687.900390625 m 1
 72.2568359375 687.900390625 l 1
 72.2568359375 609.360351562 l 1
 143.657226562 609.360351562 l 1
 143.657226562 687.900390625 l 1
143.657226562 507.360351562 m 1
 72.2568359375 507.360351562 l 1
 72.2568359375 0.419921875 l 1
 143.657226562 0.419921875 l 1
 143.657226562 507.360351562 l 1
EndSplineSet
EndChar

StartChar: j
Encoding: 106 106 77
Width: 225
GlyphClass: 2
Flags: MW
HStem: -155.64 62.2197<-58.3027 -51.9277 -58.3027 -9.85352 -58.3027 46.9829>
VStem: 71.2373 71.3994<-7.22949 -1.10938 -1.10938 507.361>
LayerCount: 2
Fore
SplineSet
141.6171875 688.919921875 m 1
 69.197265625 688.919921875 l 1
 69.197265625 609.360351562 l 1
 141.6171875 609.360351562 l 1
 141.6171875 688.919921875 l 1
-9.853515625 -155.639648438 m 2
 103.819335938 -155.639648438 142.63671875 -94.169921875 142.63671875 -7.2294921875 c 2
 142.63671875 507.361328125 l 1
 71.2373046875 507.361328125 l 1
 71.2373046875 -1.109375 l 2
 71.2373046875 -64.2763671875 45.9365234375 -93.4189453125 -20.052734375 -93.4189453125 c 0
 -32.802734375 -93.4189453125 -45.552734375 -93.419921875 -58.302734375 -93.419921875 c 1
 -58.302734375 -155.639648438 l 1
 -9.853515625 -155.639648438 l 2
EndSplineSet
EndChar

StartChar: k
Encoding: 107 107 78
Width: 557
GlyphClass: 2
Flags: W
LayerCount: 2
Fore
SplineSet
136.516601562 232.158203125 m 1
 136.516601562 688.919921875 l 1
 65.1171875 688.919921875 l 1
 65.1171875 0.419921875 l 1
 136.516601562 0.419921875 l 1
 136.516601562 149.95703125 l 1
 254.338867188 267.778320312 l 1
 441.904296875 0.419921875 l 1
 526.1484375 0.419921875 l 1
 302.483398438 315.946289062 l 1
 494.874023438 507.360351562 l 1
 407.46875 507.360351562 l 1
 136.516601562 232.158203125 l 1
EndSplineSet
EndChar

StartChar: l
Encoding: 108 108 79
Width: 296
GlyphClass: 2
Flags: MW
HStem: 0.419922 62.2197<217.607 228.827 228.827 266.057 196.967 266.057>
VStem: 65.1172 71.3994<100.707 688.92 154.95 688.92 154.95 688.92>
LayerCount: 2
Fore
SplineSet
65.1171875 149.849609375 m 2
 65.1171875 51.5634765625 108.564453125 0.419921875 217.607421875 0.419921875 c 2
 266.056640625 0.419921875 l 1
 266.056640625 62.6396484375 l 1
 228.827148438 62.6396484375 l 2
 165.107421875 62.6396484375 136.516601562 86.8662109375 136.516601562 154.950195312 c 2
 136.516601562 688.919921875 l 1
 65.1171875 688.919921875 l 1
 65.1171875 149.849609375 l 2
EndSplineSet
EndChar

StartChar: m
Encoding: 109 109 80
Width: 917
GlyphClass: 2
Flags: MW
HStem: 451.26 62.2207<287.232 300.578 613.046 664.796>
VStem: 65.1172 71.3994<0.419922 298.77 298.77 321.959 0.419922 507.36 0.419922 298.77> 418.038 72.4199<0.419922 307.95 307.95 311.01 0.419922 307.95> 770.957 71.4004<0.419922 309.99 0.419922 321.21>
LayerCount: 2
Fore
SplineSet
635.806640625 451.259765625 m 0
 693.78515625 451.259765625 770.95703125 428.921875 770.95703125 309.990234375 c 2
 770.95703125 0.419921875 l 1
 842.357421875 0.419921875 l 1
 842.357421875 321.209960938 l 2
 842.357421875 383.083984375 825.646484375 429.989257812 793.03515625 463.245117188 c 0
 760.46875 496.45703125 713.974609375 513.48046875 652.126953125 513.48046875 c 0
 537.131835938 513.48046875 494.641601562 457.806640625 468.875 423.986328125 c 1
 455.765625 445.2890625 439.653320312 471.470703125 399.702148438 492.419921875 c 0
 373.014648438 506.415039062 342.674804688 513.48046875 308.38671875 513.48046875 c 0
 266.078125 513.48046875 195.185546875 502.965820312 149.330078125 440.125976562 c 2
 135.497070312 421.168945312 l 1
 135.497070312 507.359375 l 1
 112.037109375 507.359375 88.5771484375 507.360351562 65.1171875 507.360351562 c 1
 65.1171875 0.419921875 l 1
 136.516601562 0.419921875 l 1
 136.516601562 298.76953125 l 2
 136.516601562 345.149414062 150.182617188 382.774414062 178.064453125 410.293945312 c 0
 205.8671875 437.735351562 242.926757812 451.259765625 287.98828125 451.259765625 c 0
 313.166992188 451.259765625 418.038085938 448.108398438 418.038085938 311.009765625 c 2
 418.038085938 0.419921875 l 1
 490.458007812 0.419921875 l 1
 490.458007812 307.950195312 l 2
 490.458007812 352.838867188 502.82421875 388.618164062 528.438476562 413.8671875 c 0
 554.045898438 439.109375 590.286132812 451.259765625 635.806640625 451.259765625 c 0
EndSplineSet
EndChar

StartChar: n
Encoding: 110 110 81
Width: 571
GlyphClass: 2
Flags: MW
HStem: 451.26 62.2207<287.995 317.5>
VStem: 65.1172 71.3994<0.419922 298.77 298.77 321.959 0.419922 507.36 0.419922 298.77> 425.178 71.4004<0.419922 309.99 0.419922 321.21>
LayerCount: 2
Fore
SplineSet
287.98828125 451.259765625 m 0
 347.012695312 451.259765625 425.177734375 428.827148438 425.177734375 309.990234375 c 2
 425.177734375 0.419921875 l 1
 496.578125 0.419921875 l 1
 496.578125 321.209960938 l 2
 496.578125 382.396484375 480.041015625 429.168945312 447.713867188 462.790039062 c 0
 415.454101562 496.33984375 369.837890625 513.48046875 309.408203125 513.48046875 c 0
 266.58203125 513.48046875 195.428710938 503.297851562 149.331054688 440.125976562 c 2
 135.498046875 421.168945312 l 1
 135.498046875 507.359375 l 1
 112.038085938 507.359375 88.5771484375 507.360351562 65.1171875 507.360351562 c 1
 65.1171875 0.419921875 l 1
 136.516601562 0.419921875 l 1
 136.516601562 298.76953125 l 2
 136.516601562 345.149414062 150.182617188 382.774414062 178.064453125 410.293945312 c 0
 205.8671875 437.735351562 242.926757812 451.259765625 287.98828125 451.259765625 c 0
EndSplineSet
EndChar

StartChar: o
Encoding: 111 111 82
Width: 571
GlyphClass: 2
Flags: MW
HStem: -8.75977 61.1992<245.178 318.208> 455.339 62.2197<245.178 318.202 245.178 323.943>
VStem: 49.8174 71.3994<189.27 278.369 230.429 278.369 278.369 280.409> 440.477 71.4004<228.39 230.429 230.429 278.369>
LayerCount: 2
Fore
SplineSet
281.8671875 -8.759765625 m 0
 354.549804688 -8.759765625 410.453125 11.62890625 450.900390625 51.75 c 0
 491.209960938 91.7353515625 511.876953125 150.138671875 511.876953125 228.389648438 c 2
 511.876953125 280.41015625 l 2
 511.876953125 357.9609375 491.2265625 416.212890625 450.87890625 456.560546875 c 0
 410.426757812 497.012695312 354.536132812 517.55859375 281.8671875 517.55859375 c 0
 208.489257812 517.55859375 152.0625 497.155273438 111.28125 457.02734375 c 0
 70.640625 417.037109375 49.8173828125 358.647460938 49.8173828125 280.409179688 c 2
 49.8173828125 228.388671875 l 2
 49.8173828125 150.151367188 70.640625 91.76171875 111.28125 51.7724609375 c 0
 152.0625 11.6435546875 208.489257812 -8.759765625 281.8671875 -8.759765625 c 0
280.846679688 455.338867188 m 0
 367.0390625 455.338867188 440.4765625 415.192382812 440.4765625 278.369140625 c 2
 440.4765625 230.428710938 l 2
 440.4765625 164.02734375 424.357421875 52.439453125 280.846679688 52.439453125 c 0
 194.615234375 52.439453125 121.216796875 92.8486328125 121.216796875 230.428710938 c 2
 121.216796875 278.369140625 l 2
 121.216796875 344.65625 137.50390625 455.338867188 280.846679688 455.338867188 c 0
EndSplineSet
EndChar

StartChar: p
Encoding: 112 112 83
Width: 579
GlyphClass: 2
Flags: MW
HStem: -8.75977 61.1992<272.9 320.76 272.58 341.545> 455.338 61.2021<289.32 329.429>
VStem: 65.1172 71.3994<-164.82 84.5488 -164.82 507.36 -164.82 84.5488> 448.635 71.4023<227.37 231.448 231.448 277.348>
LayerCount: 2
Fore
SplineSet
135.497070312 507.359375 m 1
 112.037109375 507.359375 88.5771484375 507.360351562 65.1171875 507.360351562 c 1
 65.1171875 -164.8203125 l 1
 136.516601562 -164.8203125 l 1
 136.516601562 84.548828125 l 1
 150.458007812 64.44140625 l 2
 184.18359375 15.798828125 236.393554688 -8.759765625 309.407226562 -8.759765625 c 0
 373.68359375 -8.759765625 424.244140625 11.5830078125 462.453125 52.078125 c 0
 500.5078125 92.41015625 520.037109375 150.424804688 520.037109375 227.370117188 c 2
 520.037109375 282.450195312 l 2
 520.037109375 358.701171875 500.520507812 416.192382812 462.474609375 456.189453125 c 0
 424.271484375 496.3515625 373.69921875 516.540039062 309.407226562 516.540039062 c 0
 269.233398438 516.540039062 195.962890625 506.48828125 149.41015625 440.23828125 c 2
 135.497070312 420.4375 l 1
 135.497070312 507.359375 l 1
295.125 455.337890625 m 0
 363.732421875 455.337890625 448.634765625 425.42578125 448.634765625 277.34765625 c 2
 448.634765625 231.448242188 l 2
 448.634765625 173.293945312 435.891601562 128.4140625 408.98828125 97.8759765625 c 0
 382.16796875 67.4306640625 344.354492188 52.439453125 297.166015625 52.439453125 c 0
 247.993164062 52.439453125 208.252929688 67.5361328125 179.39453125 98.1982421875 c 0
 150.635742188 128.752929688 136.514648438 169.48046875 136.514648438 219.208007812 c 2
 136.514648438 287.547851562 l 2
 136.514648438 337.908203125 150.426757812 378.959960938 178.850585938 409.54296875 c 0
 207.356445312 440.213867188 246.604492188 455.337890625 295.125 455.337890625 c 0
EndSplineSet
EndChar

StartChar: q
Encoding: 113 113 84
Width: 579
GlyphClass: 2
Flags: MW
HStem: -8.75977 61.2002<243.246 270.643> 455.34 61.2002<249.801 298.28>
VStem: 49.8164 71.3994<187.857 277.35 230.43 277.35 277.35 282.45> 433.337 70.3799<-164.82 86.0947 -164.82 507.36 421.224 421.224 421.224 507.36>
LayerCount: 2
Fore
SplineSet
433.336914062 86.0947265625 m 1
 433.336914062 -164.8203125 l 1
 503.716796875 -164.8203125 l 1
 503.716796875 507.360351562 l 1
 433.336914062 507.360351562 l 1
 433.336914062 421.223632812 l 1
 419.399414062 441.293945312 l 2
 402.922851562 465.01953125 355.811523438 516.540039062 257.385742188 516.540039062 c 0
 193.793945312 516.540039062 143.928710938 496.373046875 106.404296875 456.23828125 c 0
 69.015625 416.248046875 49.81640625 358.7265625 49.81640625 282.450195312 c 2
 49.81640625 226.349609375 l 2
 49.81640625 149.364257812 68.87109375 91.4892578125 105.916992188 51.517578125 c 0
 143.059570312 11.4423828125 193.407226562 -8.759765625 258.40625 -8.759765625 c 0
 282.87890625 -8.759765625 370.76171875 -6.5166015625 419.34375 65.3857421875 c 2
 433.336914062 86.0947265625 l 1
274.725585938 52.4404296875 m 0
 211.766601562 52.4404296875 121.215820312 78.796875 121.215820312 230.4296875 c 2
 121.215820312 277.349609375 l 2
 121.215820312 335.499023438 133.955078125 380.231445312 160.89453125 410.447265625 c 0
 187.750976562 440.5703125 225.895507812 455.33984375 273.706054688 455.33984375 c 0
 322.853515625 455.33984375 362.4296875 440.434570312 390.96875 410.088867188 c 0
 419.447265625 379.807617188 433.3359375 338.561523438 433.3359375 287.549804688 c 2
 433.3359375 219.209960938 l 2
 433.3359375 168.874023438 419.614257812 127.991210938 391.512695312 97.7275390625 c 0
 363.301757812 67.3466796875 323.870117188 52.4404296875 274.725585938 52.4404296875 c 0
EndSplineSet
EndChar

StartChar: r
Encoding: 114 114 85
Width: 373
GlyphClass: 2
Flags: MW
HStem: 452.28 62.2197<283.251 302.583>
VStem: 65.1172 71.3994<0.419922 293.67 293.67 317.561 0.419922 507.36 0.419922 293.67>
LayerCount: 2
Fore
SplineSet
135.49609375 507.360351562 m 1
 65.1171875 507.360351562 l 1
 65.1171875 0.419921875 l 1
 136.516601562 0.419921875 l 1
 136.516601562 293.669921875 l 2
 136.516601562 341.452148438 150.897460938 380.427734375 180.102539062 409.272460938 c 0
 209.232421875 438.04296875 247.64453125 452.280273438 294.107421875 452.280273438 c 0
 311.057617188 452.280273438 327.559570312 450.337890625 343.577148438 446.451171875 c 1
 343.577148438 512.453125 l 1
 332.921875 513.813476562 321.530273438 514.5 309.40625 514.5 c 0
 257.095703125 514.5 190.377929688 500.200195312 149.564453125 437.409179688 c 2
 135.49609375 415.763671875 l 1
 135.49609375 507.360351562 l 1
EndSplineSet
EndChar

StartChar: s
Encoding: 115 115 86
Width: 515
GlyphClass: 2
Flags: MW
HStem: -5.7002 57.1201<231.845 286.812> 459.42 55.0801<220.169 278.157>
VStem: 39.6748 67.416<144.24 144.24> 47.7783 67.3193<344.269 390.158> 395.494 67.3857<370.68 370.68> 403.759 67.3184<123.411 170.721>
LayerCount: 2
Fore
SplineSet
403.758789062 142.709960938 m 0xd4
 403.758789062 85.162109375 350.83203125 51.419921875 256.369140625 51.419921875 c 0
 207.3203125 51.419921875 170.025390625 59.53515625 144.864257812 77.2958984375 c 0
 121.458007812 93.818359375 108.608398438 116.576171875 107.090820312 144.240234375 c 1
 39.6748046875 144.240234375 l 1
 40.80078125 98.2724609375 58.9833984375 62.7470703125 94.6728515625 36.13671875 c 0
 131.629882812 8.5810546875 183.942382812 -5.7001953125 252.287109375 -5.7001953125 c 0
 321.3359375 -5.7001953125 374.9453125 8.2509765625 413.66796875 35.2587890625 c 0
 452.1484375 62.09765625 471.077148438 99.01171875 471.077148438 147.809570312 c 0xe4
 471.077148438 210.369140625 440.840820312 267.268554688 305.455078125 283.01171875 c 2
 225.884765625 293.211914062 l 2
 164.65625 299.782226562 115.09765625 315.306640625 115.09765625 373.23046875 c 0
 115.09765625 409.70703125 136.51953125 459.419921875 253.307617188 459.419921875 c 0
 303.006835938 459.419921875 391.943359375 448.48828125 395.494140625 370.6796875 c 1
 462.879882812 370.6796875 l 1xd8
 461.952148438 414.287109375 443.903320312 448.267578125 407.967773438 474.115234375 c 0
 370.973632812 500.724609375 319.283203125 514.5 252.288085938 514.5 c 0
 188.05078125 514.5 138.073242188 500.92578125 101.723632812 474.637695312 c 0
 65.5537109375 448.478515625 47.7783203125 413.205078125 47.7783203125 367.110351562 c 0
 47.7783203125 299.17578125 83.7197265625 248.725585938 209.331054688 233.947265625 c 2
 283.758789062 224.771484375 l 2
 353.514648438 217.544921875 403.758789062 198.731445312 403.758789062 142.709960938 c 0xd4
EndSplineSet
EndChar

StartChar: t
Encoding: 116 116 87
Width: 378
GlyphClass: 2
Flags: MW
HStem: 0.419922 60.1797<268.607 282.887 282.887 319.097 251.565 319.097>
VStem: 120.197 71.3994<101.079 457.38 147.81 457.38 147.81 457.38 507.36 623.105 147.81 507.36>
LayerCount: 2
Fore
SplineSet
282.88671875 60.599609375 m 2
 220.243164062 60.599609375 191.596679688 85.3623046875 191.596679688 147.809570312 c 2
 191.596679688 457.379882812 l 1
 330.317382812 457.379882812 l 1
 330.317382812 507.360351562 l 1
 191.596679688 507.360351562 l 1
 191.596679688 652.505859375 l 1
 120.197265625 623.10546875 l 1
 120.197265625 507.360351562 l 1
 28.396484375 507.360351562 l 1
 28.396484375 457.379882812 l 1
 120.197265625 457.379882812 l 1
 120.197265625 142.709960938 l 2
 120.197265625 59.4482421875 156.642578125 0.419921875 268.607421875 0.419921875 c 2
 319.096679688 0.419921875 l 1
 319.096679688 60.599609375 l 1
 282.88671875 60.599609375 l 2
EndSplineSet
EndChar

StartChar: u
Encoding: 117 117 88
Width: 571
GlyphClass: 2
Flags: MW
HStem: -6.71973 62.2188<242.535 301.458>
VStem: 65.1172 71.3994<174.624 507.359 209.009 507.359 209.009 507.359> 425.177 71.4004<199.829 209.009 209.009 507.359>
LayerCount: 2
Fore
SplineSet
65.1171875 199.829101562 m 2
 65.1171875 149.41796875 73.423828125 -6.7197265625 279.827148438 -6.7197265625 c 0
 323.087890625 -6.7197265625 496.577148438 -4.0478515625 496.577148438 199.829101562 c 2
 496.577148438 507.359375 l 1
 425.176757812 507.359375 l 1
 425.176757812 209.008789062 l 2
 425.176757812 88.142578125 359.659179688 55.4990234375 280.846679688 55.4990234375 c 0
 204.223632812 55.4990234375 136.516601562 89.3515625 136.516601562 209.008789062 c 2
 136.516601562 507.359375 l 1
 65.1171875 507.359375 l 1
 65.1171875 199.829101562 l 2
EndSplineSet
EndChar

StartChar: v
Encoding: 118 118 89
Width: 511
GlyphClass: 2
Flags: W
LayerCount: 2
Fore
SplineSet
89.9130859375 507.360351562 m 1
 13.6298828125 507.360351562 l 1
 213.633789062 0.419921875 l 1
 287.879882812 0.419921875 l 1
 487.883789062 507.360351562 l 1
 411.61328125 507.360351562 l 1
 251.290039062 79.1298828125 l 1
 89.9130859375 507.360351562 l 1
EndSplineSet
EndChar

StartChar: w
Encoding: 119 119 90
Width: 823
GlyphClass: 2
Flags: W
LayerCount: 2
Fore
SplineSet
89.630859375 507.360351562 m 1
 13.107421875 507.360351562 l 1
 187.368164062 0.419921875 l 1
 261.14453125 0.419921875 l 1
 406.306640625 413.65625 l 1
 551.469726562 0.419921875 l 1
 626.275390625 0.419921875 l 1
 801.526367188 507.360351562 l 1
 725.0234375 507.360351562 l 1
 587.166992188 78.9453125 l 1
 436.5859375 507.360351562 l 1
 377.061523438 507.360351562 l 1
 227.512695312 78.8662109375 l 1
 89.630859375 507.360351562 l 1
EndSplineSet
EndChar

StartChar: x
Encoding: 120 120 91
Width: 485
GlyphClass: 2
Flags: W
LayerCount: 2
Fore
SplineSet
91.2197265625 0.419921875 m 1
 236.942382812 209.043945312 l 1
 384.76171875 0.419921875 l 1
 458.821289062 0.419921875 l 1
 272.481445312 263.080078125 l 1
 446.543945312 507.360351562 l 1
 372.545898438 507.360351562 l 1
 237.010742188 314.0390625 l 1
 100.42578125 507.360351562 l 1
 26.3076171875 507.360351562 l 1
 200.446289062 260.002929688 l 1
 17.15234375 0.419921875 l 1
 91.2197265625 0.419921875 l 1
EndSplineSet
EndChar

StartChar: y
Encoding: 121 121 92
Width: 511
GlyphClass: 2
Flags: MW
HStem: -155.64 63.2393<75.3174 104.387 75.3174 152.34>
LayerCount: 2
Fore
SplineSet
75.3173828125 -155.639648438 m 1
 104.38671875 -155.639648438 l 2
 200.29296875 -155.639648438 242.857421875 -117.465820312 266.57421875 -56.4814453125 c 2
 487.904296875 507.360351562 l 1
 413.6640625 507.360351562 l 1
 255.509765625 82.4541015625 l 1
 89.9755859375 507.360351562 l 1
 13.732421875 507.360351562 l 1
 221.706054688 -7.046875 l 1
 214.623046875 -27.1142578125 l 2
 196.178710938 -77.8369140625 164.389648438 -92.400390625 104.38671875 -92.400390625 c 2
 75.3173828125 -92.400390625 l 1
 75.3173828125 -155.639648438 l 1
EndSplineSet
EndChar

StartChar: z
Encoding: 122 122 93
Width: 498
GlyphClass: 2
Flags: W
LayerCount: 2
Fore
SplineSet
438.436523438 61.6201171875 m 1
 125.893554688 61.6201171875 l 1
 438.436523438 440.237304688 l 1
 438.436523438 507.360351562 l 1
 49.8173828125 507.360351562 l 1
 49.8173828125 445.139648438 l 1
 360.250976562 445.139648438 l 1
 49.8173828125 66.5361328125 l 1
 49.8173828125 0.419921875 l 1
 438.436523438 0.419921875 l 1
 438.436523438 61.6201171875 l 1
EndSplineSet
EndChar

StartChar: braceleft
Encoding: 123 123 94
Width: 372
GlyphClass: 2
Flags: MW
HStem: -85.2598 59.1602<248.837 269.627 269.627 312.977 248.837 312.977> 298.013 63.7324<49.8184 49.8184> 680.759 59.1602<269.628 312.978>
VStem: 139.578 72.4189<-16.5181 205.95 33.5703 205.95 205.95 207.989>
LayerCount: 2
Fore
SplineSet
139.578125 24.3896484375 m 2
 139.578125 -57.42578125 182.348632812 -85.259765625 246.166992188 -85.259765625 c 2
 312.9765625 -85.259765625 l 1
 312.9765625 -26.099609375 l 1
 269.626953125 -26.099609375 l 2
 228.047851562 -26.099609375 211.997070312 -5.228515625 211.997070312 33.5703125 c 2
 211.997070312 205.950195312 l 2
 211.997070312 243.446289062 207.106445312 270.22265625 198.626953125 285.969726562 c 0
 190.170898438 301.673828125 175.317382812 313.803710938 152.727539062 322.1953125 c 2
 133.413085938 329.369140625 l 1
 152.727539062 336.54296875 l 2
 175.280273438 344.918945312 190.122070312 357.180664062 198.599609375 373.224609375 c 0
 207.12109375 389.357421875 211.998046875 416.317382812 211.998046875 453.80859375 c 2
 211.998046875 621.088867188 l 2
 211.998046875 659.885742188 228.046875 680.758789062 269.627929688 680.758789062 c 2
 312.977539062 680.758789062 l 1
 312.977539062 739.918945312 l 1
 246.16796875 739.918945312 l 2
 182.379882812 739.918945312 139.578125 712.110351562 139.578125 630.268554688 c 2
 139.578125 450.749023438 l 2
 139.578125 383.870117188 108.637695312 364.447265625 49.818359375 361.745117188 c 1
 49.818359375 298.012695312 l 1
 110.25390625 295.236328125 139.578125 274.814453125 139.578125 207.989257812 c 2
 139.578125 24.3896484375 l 2
EndSplineSet
Substitution2: "'rtla' Right to Left Alternates lookup 0 subtable" braceright
EndChar

StartChar: bar
Encoding: 124 124 95
Width: 283
GlyphClass: 2
Flags: MW
VStem: 102.857 68.3398<-84.2402 739.92 -84.2402 739.92>
LayerCount: 2
Fore
SplineSet
171.197265625 739.919921875 m 1
 102.857421875 739.919921875 l 1
 102.857421875 -84.240234375 l 1
 171.197265625 -84.240234375 l 1
 171.197265625 739.919921875 l 1
EndSplineSet
EndChar

StartChar: braceright
Encoding: 125 125 96
Width: 372
GlyphClass: 2
Flags: MW
HStem: -85.2598 59.1602<49.8174 93.168 49.8174 115.607 49.8174 153.19> 298.021 63.7188<312.977 312.977> 680.76 59.1602<49.8174 93.167 93.167 113.957>
VStem: 150.798 71.3994<24.3896 33.5703 33.5703 205.95>
LayerCount: 2
Fore
SplineSet
222.197265625 630.26953125 m 2
 222.197265625 701.40234375 190.76171875 739.919921875 115.607421875 739.919921875 c 2
 49.8173828125 739.919921875 l 1
 49.8173828125 680.759765625 l 1
 93.1669921875 680.759765625 l 2
 134.74609375 680.759765625 150.796875 659.888671875 150.796875 621.08984375 c 2
 150.796875 453.809570312 l 2
 150.796875 416.318359375 155.673828125 389.357421875 164.1953125 373.225585938 c 0
 172.671875 357.181640625 187.513671875 344.919921875 210.067382812 336.54296875 c 2
 229.380859375 329.369140625 l 1
 210.067382812 322.1953125 l 2
 187.477539062 313.803710938 172.624023438 301.673828125 164.16796875 285.969726562 c 0
 155.688476562 270.22265625 150.797851562 243.446289062 150.797851562 205.950195312 c 2
 150.797851562 33.5703125 l 2
 150.797851562 -5.2265625 134.749023438 -26.099609375 93.16796875 -26.099609375 c 2
 49.8173828125 -26.099609375 l 1
 49.8173828125 -85.259765625 l 1
 115.607421875 -85.259765625 l 2
 190.772460938 -85.259765625 222.197265625 -46.73046875 222.197265625 24.3896484375 c 2
 222.197265625 207.990234375 l 2
 222.197265625 275.647460938 252.220703125 295.317382812 312.9765625 298.020507812 c 1
 312.9765625 361.739257812 l 1
 253.827148438 364.37109375 222.197265625 383.078125 222.197265625 450.75 c 2
 222.197265625 630.26953125 l 2
EndSplineSet
Substitution2: "'rtla' Right to Left Alternates lookup 0 subtable" braceleft
EndChar

StartChar: asciitilde
Encoding: 126 126 97
Width: 507
GlyphClass: 2
Flags: MW
HStem: 211.561 61.2002<321.747 345.673> 273.78 60.1807<149.133 176.569 148.072 188.758>
LayerCount: 2
Fore
SplineSet
407.030273438 329.873046875 m 1
 386.572265625 294.397460938 365.801757812 272.760742188 328.788085938 272.760742188 c 0
 309.569335938 272.760742188 297.666015625 277.322265625 256.522460938 300.361328125 c 0
 208.642578125 331.00390625 187.549804688 333.9609375 165.587890625 333.9609375 c 0
 130.556640625 333.9609375 79.0185546875 319.421875 42.8857421875 245.692382812 c 1
 90.3232421875 217.551757812 l 1
 110.774414062 253.109375 130.638671875 273.780273438 167.626953125 273.780273438 c 0
 209.888671875 273.780273438 236.208984375 240.430664062 286.322265625 219.651367188 c 0
 299.244140625 214.29296875 313.6875 211.560546875 329.806640625 211.560546875 c 0
 361.5390625 211.560546875 415.98046875 224.184570312 453.58984375 300.973632812 c 1
 407.030273438 329.873046875 l 1
EndSplineSet
EndChar

StartChar: exclamdown
Encoding: 161 161 99
Width: 232
GlyphClass: 2
Flags: MW
VStem: 67.1572 88.7393<414.54 507.36 414.54 507.36> 85.2227 52.5928<297.24 297.24>
LayerCount: 2
Fore
SplineSet
155.896484375 507.360351562 m 1x80
 67.1572265625 507.360351562 l 1
 67.1572265625 414.540039062 l 1
 155.896484375 414.540039062 l 1
 155.896484375 507.360351562 l 1x80
137.815429688 297.240234375 m 1x40
 85.22265625 297.240234375 l 1
 67.462890625 -155.639648438 l 1
 154.587890625 -155.639648438 l 1
 137.815429688 297.240234375 l 1x40
EndSplineSet
EndChar

StartChar: cent
Encoding: 162 162 100
Width: 552
GlyphClass: 2
Flags: MW
HStem: -7.77246 61.0703<249.948 256.876> 453.222 64.0029<248.127 256.877>
VStem: 49.8174 71.3984<192.287 278.37 230.43 278.37 278.37 280.411> 256.876 46.9199<53.4863 454.296 53.4863 454.481 53.2979 454.296> 423.097 69.375<167.701 167.701>
LayerCount: 2
Fore
SplineSet
303.795898438 53.486328125 m 1
 303.795898438 454.295898438 l 1
 326.766601562 451.482421875 365.0859375 446.790039062 394.01171875 416.227539062 c 0
 413.061523438 396.099609375 422.630859375 369.677734375 423.116210938 338.040039062 c 1
 492.484375 338.040039062 l 1
 491.98046875 389.649414062 476.137695312 430.473632812 445.241210938 461.689453125 c 0
 413.848632812 493.40625 369.411132812 511.905273438 310.833007812 516.565429688 c 2
 303.796875 517.125 l 1
 303.796875 608.340820312 l 1
 256.876953125 608.340820312 l 1
 256.876953125 517.224609375 l 1
 226.1328125 514.341796875 155.048828125 507.677734375 102.490234375 447.75 c 0
 67.6669921875 408.045898438 49.8173828125 352.618164062 49.8173828125 280.411132812 c 2
 49.8173828125 228.390625 l 2
 49.8173828125 156.18359375 67.6669921875 100.755859375 102.490234375 61.0517578125 c 0
 137.3984375 21.2490234375 186.133789062 -1.7900390625 249.948242188 -7.7724609375 c 2
 256.876953125 -8.421875 l 1
 256.876953125 -101.579101562 l 1
 303.796875 -101.579101562 l 1
 303.796875 -8.3232421875 l 1
 332.693359375 -6.0244140625 397.793945312 -0.845703125 445.268554688 46.62890625 c 0
 475.946289062 77.306640625 491.762695312 117.275390625 492.471679688 167.701171875 c 1
 423.096679688 167.701171875 l 1
 421.759765625 108.387695312 385.76953125 63.5244140625 312.383789062 54.5380859375 c 2
 303.795898438 53.486328125 l 1
121.215820312 230.4296875 m 2
 121.215820312 278.370117188 l 2
 121.215820312 380.58203125 163.58984375 441.04296875 248.126953125 453.221679688 c 2
 256.875976562 454.481445312 l 1
 256.875976562 53.2978515625 l 1
 219.419921875 58.6943359375 121.215820312 72.841796875 121.215820312 230.4296875 c 2
EndSplineSet
EndChar

StartChar: sterling
Encoding: 163 163 101
Width: 499
GlyphClass: 2
Flags: MW
HStem: 0.420898 68.3389<133.86 461.896 133.86 461.896 133.86 461.896> 632.821 66.2998<262.079 313.6>
VStem: 104.896 77.5205<145.163 293.161 182.491 293.161 182.491 293.161 182.491 359.461 359.461 504.811> 385.237 73.4951<543.061 543.061>
LayerCount: 2
Fore
SplineSet
104.896484375 172.291015625 m 2
 104.896484375 118.03515625 90.015625 86.1240234375 51.857421875 66.5341796875 c 1
 51.857421875 0.4208984375 l 1
 461.896484375 0.4208984375 l 1
 461.896484375 68.759765625 l 1
 133.860351562 68.759765625 l 1
 155.3984375 90.2978515625 165.084960938 99.984375 173.686523438 123.879882812 c 0
 179.423828125 139.817382812 182.416992188 159.3515625 182.416992188 182.491210938 c 2
 182.416992188 293.161132812 l 1
 355.817382812 293.161132812 l 1
 355.817382812 359.4609375 l 1
 182.416992188 359.4609375 l 1
 182.416992188 517.05078125 l 2
 182.416992188 551.244140625 188.012695312 632.821289062 283.907226562 632.821289062 c 0
 343.291992188 632.821289062 382.4375 608.6484375 385.237304688 543.060546875 c 1
 458.732421875 543.060546875 l 1
 457.759765625 578.092773438 449.75390625 699.12109375 284.926757812 699.12109375 c 0
 239.23046875 699.12109375 104.896484375 691.9140625 104.896484375 504.810546875 c 2
 104.896484375 359.4609375 l 1
 28.396484375 359.4609375 l 1
 28.396484375 293.161132812 l 1
 104.896484375 293.161132812 l 1
 104.896484375 172.291015625 l 2
EndSplineSet
EndChar

StartChar: currency
Encoding: 164 164 102
Width: 606
GlyphClass: 2
Flags: MW
HStem: 126.901 59.1592<278.237 316.416 278.237 317.548> 458.401 59.1592<278.237 316.416>
VStem: 101.837 62.2207<303.009 341.453 303.009 353.153> 430.277 63.2393<303.024 341.438>
LayerCount: 2
Fore
SplineSet
493.516601562 322.231445312 m 0
 493.516601562 362.2421875 482.442382812 398.384765625 460.15625 431.157226562 c 2
 456.602539062 436.3828125 l 1
 526.05078125 505.831054688 l 1
 480.689453125 551.192382812 l 1
 410.264648438 482.779296875 l 1
 392.795898438 494.424804688 358.090820312 517.560546875 297.166992188 517.560546875 c 0
 257.064453125 517.560546875 220.845703125 507.104492188 188.0625 486.123046875 c 2
 182.927734375 482.836914062 l 1
 113.606445312 551.153320312 l 1
 68.2451171875 505.791992188 l 1
 137.7734375 435.256835938 l 1
 125.59375 417.91015625 101.836914062 384.075195312 101.836914062 322.231445312 c 0
 101.836914062 282.833007812 112.280273438 246.951171875 133.275390625 214.146484375 c 2
 136.5859375 208.973632812 l 1
 68.2353515625 140.622070312 l 1
 113.655273438 94.376953125 l 1
 183.033203125 162.749023438 l 1
 200.801757812 150.782226562 236.262695312 126.901367188 297.166992188 126.901367188 c 0
 337.9296875 126.901367188 374.076171875 137.677734375 406.12109375 159.259765625 c 2
 411.301757812 162.748046875 l 1
 481.69921875 93.3564453125 l 1
 527.119140625 139.6015625 l 1
 457.642578125 209.077148438 l 1
 469.647460938 226.90234375 493.516601562 262.345703125 493.516601562 322.231445312 c 0
297.166992188 186.060546875 m 0
 259.307617188 186.060546875 227.168945312 199.1328125 201.923828125 225.099609375 c 0
 176.69921875 251.045898438 164.057617188 283.787109375 164.057617188 322.231445312 c 0
 164.057617188 360.674804688 176.69921875 393.416015625 201.923828125 419.362304688 c 0
 227.168945312 445.329101562 259.307617188 458.401367188 297.166992188 458.401367188 c 0
 335.665039062 458.401367188 368.01171875 445.35546875 392.959960938 419.322265625 c 0
 417.83203125 393.369140625 430.27734375 360.645507812 430.27734375 322.231445312 c 0
 430.27734375 283.81640625 417.83203125 251.092773438 392.959960938 225.139648438 c 0
 368.01171875 199.106445312 335.665039062 186.060546875 297.166992188 186.060546875 c 0
EndSplineSet
EndChar

StartChar: yen
Encoding: 165 165 103
Width: 530
GlyphClass: 2
Flags: W
LayerCount: 2
Fore
SplineSet
222.197265625 146.280273438 m 1
 222.197265625 0.419921875 l 1
 299.716796875 0.419921875 l 1
 299.716796875 146.280273438 l 1
 466.997070312 146.280273438 l 1
 466.997070312 198.299804688 l 1
 299.716796875 198.299804688 l 1
 299.716796875 276.83984375 l 1
 466.997070312 276.83984375 l 1
 466.997070312 329.879882812 l 1
 315.963867188 329.879882812 l 1
 509.763671875 688.919921875 l 1
 425.30859375 688.919921875 l 1
 261.510742188 362.373046875 l 1
 95.6123046875 688.919921875 l 1
 11.162109375 688.919921875 l 1
 205.982421875 329.879882812 l 1
 55.9365234375 329.879882812 l 1
 55.9365234375 276.83984375 l 1
 222.197265625 276.83984375 l 1
 222.197265625 198.299804688 l 1
 55.9365234375 198.299804688 l 1
 55.9365234375 146.280273438 l 1
 222.197265625 146.280273438 l 1
EndSplineSet
EndChar

StartChar: brokenbar
Encoding: 166 166 104
Width: 283
GlyphClass: 2
Flags: MW
VStem: 102.857 68.3398<-68.9404 275.82 -68.9404 275.82 380.88 724.62>
LayerCount: 2
Fore
SplineSet
171.197265625 724.620117188 m 1
 102.857421875 724.620117188 l 1
 102.857421875 380.879882812 l 1
 171.197265625 380.879882812 l 1
 171.197265625 724.620117188 l 1
171.197265625 275.8203125 m 1
 102.857421875 275.8203125 l 1
 102.857421875 -68.9404296875 l 1
 171.197265625 -68.9404296875 l 1
 171.197265625 275.8203125 l 1
EndSplineSet
EndChar

StartChar: section
Encoding: 167 167 105
Width: 558
GlyphClass: 2
Flags: MW
HStem: -170.94 61.1982<253.851 301.006> 652.201 61.2002<249.15 293.08>
VStem: 70.2168 72.4189<223.847 306.455 223.268 319.469> 85.6309 68.4102<-15.9023 -15.9023> 95.7178 72.4189<529.836 580.531 529.836 587.828> 386.417 72.4199<-39.4907 -2.81201> 405.796 72.4209<252.575 304.547 226.091 324.986>
LayerCount: 2
Fore
SplineSet
85.630859375 -15.90234375 m 1xd4
 88.53515625 -111.711914062 148.889648438 -170.940429688 271.666992188 -170.940429688 c 0
 330.345703125 -170.940429688 375.911132812 -157.282226562 409.197265625 -130.782226562 c 0
 442.299804688 -104.428710938 458.836914062 -68.236328125 458.836914062 -20.490234375 c 0xd4
 458.836914062 34.421875 438.633789062 79.275390625 372.736328125 107.098632812 c 2
 353.875 115.0625 l 1
 373.331054688 121.422851562 l 2
 418.14453125 136.073242188 478.216796875 174.833007812 478.216796875 277.348632812 c 0
 478.216796875 331.74609375 463.224609375 370.903320312 434.374023438 396.583984375 c 0
 404.522460938 423.155273438 367.208007812 441.814453125 322.02734375 452.458984375 c 0
 223.36328125 472.944335938 168.13671875 494.680664062 168.13671875 564.991210938 c 0
 168.13671875 596.071289062 181.345703125 652.201171875 276.766601562 652.201171875 c 0
 309.393554688 652.201171875 383.852539062 646.96875 388.256835938 564.481445312 c 1
 456.674804688 564.481445312 l 1
 455.563476562 598.920898438 445.297851562 713.401367188 277.787109375 713.401367188 c 0
 220.512695312 713.401367188 176.208984375 699.608398438 143.94921875 672.83203125 c 0
 111.736328125 646.096679688 95.7177734375 610.6640625 95.7177734375 564.991210938 c 0xca
 95.7177734375 484.439453125 143.573242188 456.015625 178.703125 441.504882812 c 2
 197.374023438 433.79296875 l 1
 178.284179688 427.198242188 l 2
 128.374023438 409.956054688 70.216796875 368.727539062 70.216796875 270.209960938 c 0xe0
 70.216796875 177.484375 121.370117188 119.723632812 228.444335938 95.0986328125 c 0
 283.211914062 83.4580078125 322.716796875 70.5224609375 347.545898438 55.408203125 c 0
 373.450195312 39.640625 386.416992188 13.8466796875 386.416992188 -19.470703125 c 0
 386.416992188 -59.5107421875 367.349609375 -109.7421875 271.666015625 -109.7421875 c 0
 236.036132812 -109.7421875 158.3671875 -103.59765625 154.041015625 -15.90234375 c 1
 85.630859375 -15.90234375 l 1xd4
405.795898438 273.266601562 m 0xe2
 405.795898438 231.883789062 390.168945312 155.458007812 274.725585938 155.458007812 c 0
 219.76953125 155.458007812 142.635742188 173.26953125 142.635742188 273.266601562 c 0
 142.635742188 339.642578125 178.303710938 392.096679688 274.725585938 392.096679688 c 0
 323.6328125 392.096679688 405.795898438 376.705078125 405.795898438 273.266601562 c 0xe2
EndSplineSet
EndChar

StartChar: dieresis
Encoding: 168 168 106
Width: 498
GlyphClass: 2
Flags: MW
HStem: 593.04 81.5996<98.7773 170.177 98.7773 170.177 318.077 388.457>
LayerCount: 2
Fore
SplineSet
170.176757812 674.639648438 m 1
 98.77734375 674.639648438 l 1
 98.77734375 593.040039062 l 1
 170.176757812 593.040039062 l 1
 170.176757812 674.639648438 l 1
388.45703125 674.639648438 m 1
 318.077148438 674.639648438 l 1
 318.077148438 593.040039062 l 1
 388.45703125 593.040039062 l 1
 388.45703125 674.639648438 l 1
EndSplineSet
EndChar

StartChar: copyright
Encoding: 169 169 107
Width: 806
GlyphClass: 2
Flags: MW
HStem: -8.75977 44.8799<313.9 490.478 313.9 499.893> 151.381 42.8398<377.109 427.47> 489.001 43.8604<386.209 419.432> 644.041 45.8994<309.831 491.688>
VStem: 58.9971 49.9795<245.707 431.356 245.707 446.291> 235.458 53.04<292.991 360.991 323.251 360.991 360.991 363.031> 505.698 51.0215<272.761 272.761> 690.378 49.9795<250.645 429.667>
LayerCount: 2
Fore
SplineSet
58.9970703125 340.58984375 m 0
 58.9970703125 129.196289062 197.4765625 -8.759765625 400.186523438 -8.759765625 c 0
 599.599609375 -8.759765625 740.357421875 126.125 740.357421875 340.58984375 c 0
 740.357421875 549.126953125 604.836914062 689.940429688 400.186523438 689.940429688 c 0
 197.484375 689.940429688 58.9970703125 551.9921875 58.9970703125 340.58984375 c 0
690.377929688 340.590820312 m 0
 690.377929688 160.69921875 580.76953125 36.1201171875 400.186523438 36.1201171875 c 0
 227.61328125 36.1201171875 108.9765625 150.823242188 108.9765625 340.590820312 c 0
 108.9765625 522.122070312 219.474609375 644.041015625 400.186523438 644.041015625 c 0
 583.189453125 644.041015625 690.377929688 518.743164062 690.377929688 340.590820312 c 0
405.288085938 194.220703125 m 0
 345.028320312 194.220703125 288.498046875 221.372070312 288.498046875 323.250976562 c 2
 288.498046875 360.991210938 l 2
 288.498046875 402.858398438 298.040039062 435.301757812 318.646484375 457.033203125 c 0
 339.108398438 478.610351562 368.151367188 489.000976562 404.267578125 489.000976562 c 0
 434.595703125 489.000976562 459.365234375 482.31640625 477.799804688 468.01953125 c 0
 495.336914062 454.418945312 504.603515625 435.068359375 505.65625 411.481445312 c 1
 557.739257812 411.481445312 l 1
 556.93359375 448.633789062 543.461914062 477.291992188 517.219726562 498.903320312 c 0
 490.080078125 521.252929688 452.393554688 532.861328125 403.248046875 532.861328125 c 0
 350.990234375 532.861328125 310.506835938 518.098632812 280.556640625 489.114257812 c 0
 250.783203125 460.301757812 235.458007812 418.763671875 235.458007812 363.03125 c 2
 235.458007812 321.2109375 l 2
 235.458007812 264.770507812 250.805664062 223.08984375 280.525390625 194.647460938 c 0
 310.469726562 165.990234375 350.970703125 151.380859375 403.248046875 151.380859375 c 0
 451.69140625 151.380859375 489.038085938 162.970703125 516.200195312 185.338867188 c 0
 542.44140625 206.950195312 555.9140625 235.608398438 556.719726562 272.760742188 c 1
 505.698242188 272.760742188 l 1
 504.1171875 225.969726562 470.434570312 194.220703125 405.288085938 194.220703125 c 0
EndSplineSet
EndChar

StartChar: ordfeminine
Encoding: 170 170 108
Width: 377
GlyphClass: 2
Flags: MW
HStem: 434.941 43.8594<145.667 171.969> 577.741 34.6797<170.688 257.896> 707.28 40.7998<159.248 190.96>
VStem: 40.6367 55.0801<511.278 552.528 511.278 558.713> 50.9814 52.2158<664.44 664.44> 257.898 57.1182<522.896 555.811 555.811 577.741>
LayerCount: 2
Fore
SplineSet
40.63671875 525.2109375 m 0xf4
 40.63671875 493.04296875 54.091796875 434.94140625 151.306640625 434.94140625 c 0
 192.630859375 434.94140625 224.392578125 446.93359375 247.8984375 470.439453125 c 2
 260.95703125 483.498046875 l 1
 260.95703125 439.020507812 l 1
 315.016601562 439.020507812 l 1
 315.016601562 637.41015625 l 2
 315.016601562 690.934570312 293.477539062 748.080078125 180.88671875 748.080078125 c 0
 137.609375 748.080078125 105.272460938 739.676757812 83.3271484375 724.000976562 c 0
 62.9580078125 709.450195312 52.3134765625 690.083984375 50.9814453125 664.440429688 c 1
 103.197265625 664.440429688 l 1xec
 105.106445312 679.9296875 117.079101562 707.280273438 177.827148438 707.280273438 c 0
 204.09375 707.280273438 257.896484375 702.930664062 257.896484375 641.491210938 c 2
 257.896484375 612.420898438 l 1
 160.487304688 612.420898438 l 2
 94.9599609375 612.420898438 40.63671875 592.21484375 40.63671875 525.2109375 c 0xf4
257.8984375 555.810546875 m 2
 257.8984375 489.98046875 210.05859375 478.80078125 167.626953125 478.80078125 c 0
 123.708007812 478.80078125 95.716796875 494.28515625 95.716796875 528.270507812 c 0xf4
 95.716796875 576.78515625 150.423828125 577.741210938 170.6875 577.741210938 c 2
 257.8984375 577.741210938 l 1
 257.8984375 555.810546875 l 2
-2.7119140625 706.770507812 m 1024
EndSplineSet
EndChar

StartChar: guillemotleft
Encoding: 171 171 109
Width: 551
GlyphClass: 2
Flags: W
LayerCount: 2
Fore
SplineSet
242.596679688 454.231445312 m 1
 24.166015625 262.049804688 l 1
 242.596679688 69.8681640625 l 1
 242.596679688 142.270507812 l 1
 103.905273438 262.049804688 l 1
 242.596679688 381.829101562 l 1
 242.596679688 454.231445312 l 1
476.176757812 454.231445312 m 1
 257.74609375 262.049804688 l 1
 476.176757812 69.8681640625 l 1
 476.176757812 142.270507812 l 1
 337.485351562 262.049804688 l 1
 476.176757812 381.829101562 l 1
 476.176757812 454.231445312 l 1
EndSplineSet
EndChar

StartChar: logicalnot
Encoding: 172 172 110
Width: 507
GlyphClass: 2
Flags: MW
HStem: 132 197.88<374.177 446.597 50.8369 446.597>
LayerCount: 2
Fore
SplineSet
374.176757812 266.639648438 m 1
 374.176757812 132 l 1
 446.596679688 132 l 1
 446.596679688 329.879882812 l 1
 50.8369140625 329.879882812 l 1
 50.8369140625 266.639648438 l 1
 374.176757812 266.639648438 l 1
EndSplineSet
EndChar

StartChar: uni00AD
Encoding: 173 173 111
Width: 418
GlyphClass: 2
Flags: MW
HStem: 312.54 67.3203<49.8174 358.877 49.8174 358.877>
VStem: 49.8174 309.06<312.54 379.86 312.54 379.86>
LayerCount: 2
Fore
SplineSet
358.876953125 379.860351562 m 1
 49.8173828125 379.860351562 l 1
 49.8173828125 312.540039062 l 1
 358.876953125 312.540039062 l 1
 358.876953125 379.860351562 l 1
EndSplineSet
EndChar

StartChar: registered
Encoding: 174 174 112
Width: 517
GlyphClass: 2
Flags: MW
HStem: 313.56 19.3809<229.655 276.96 229.655 305.773> 582.841 21.4199<251.862 262.487 262.487 270.227> 669.54 19.3799<229.655 276.637>
VStem: 70.2168 22.4395<477.177 525.998 477.177 556.893> 303.797 25.5<539.631 552.689 527.214 562.377> 415.997 21.4199<477.155 526.031>
LayerCount: 2
Fore
SplineSet
70.216796875 501.75 m 0
 70.216796875 392.234375 146.946289062 313.559570312 253.306640625 313.559570312 c 0
 358.239257812 313.559570312 437.416992188 389.927734375 437.416992188 501.75 c 0
 437.416992188 606.287109375 362.26171875 688.919921875 253.306640625 688.919921875 c 0
 149.75390625 688.919921875 70.216796875 612.036132812 70.216796875 501.75 c 0
253.306640625 332.940429688 m 0
 206.002929688 332.940429688 166.818359375 348.684570312 137.0703125 380.223632812 c 0
 107.364257812 411.717773438 92.65625 452.603515625 92.65625 501.75 c 0
 92.65625 550.245117188 107.38671875 590.78515625 137.0703125 622.256835938 c 0
 166.818359375 653.795898438 206.002929688 669.540039062 253.306640625 669.540039062 c 0
 299.966796875 669.540039062 339.24609375 653.780273438 369.95703125 622.35546875 c 0
 400.697265625 590.901367188 415.997070312 550.311523438 415.997070312 501.75 c 0
 415.997070312 452.559570312 400.908203125 411.639648438 370.499023438 380.157226562 c 0
 340.09375 348.678710938 300.61328125 332.940429688 253.306640625 332.940429688 c 0
329.296875 546.630859375 m 0
 329.296875 558.748046875 328.579101562 604.260742188 264.52734375 604.260742188 c 0
 239.197265625 604.260742188 213.8671875 604.259765625 188.537109375 604.259765625 c 1
 188.537109375 401.280273438 l 1
 215.056640625 401.280273438 l 1
 215.056640625 489 l 1
 257.38671875 489 l 1
 262.266601562 489 l 1
 303.06640625 401.280273438 l 1
 330.08984375 401.280273438 l 1
 288.975585938 490.361328125 l 1
 307.356445312 498.309570312 329.296875 507.797851562 329.296875 546.630859375 c 0
303.796875 546.630859375 m 0
 303.796875 532.631835938 298.388671875 509.401367188 262.487304688 509.401367188 c 2
 215.056640625 509.401367188 l 1
 215.056640625 582.840820312 l 1
 262.487304688 582.840820312 l 2
 277.965820312 582.840820312 303.796875 578.123046875 303.796875 546.630859375 c 0
EndSplineSet
EndChar

StartChar: macron
Encoding: 175 175 113
Width: 498
GlyphClass: 2
Flags: MW
HStem: 602.22 63.2402<96.7373 392.537 96.7373 392.537>
VStem: 96.7373 295.8<602.22 665.46 602.22 665.46>
LayerCount: 2
Fore
SplineSet
392.537109375 665.459960938 m 1
 96.7373046875 665.459960938 l 1
 96.7373046875 602.219726562 l 1
 392.537109375 602.219726562 l 1
 392.537109375 665.459960938 l 1
EndSplineSet
EndChar

StartChar: degree
Encoding: 176 176 114
Width: 397
GlyphClass: 2
Flags: MW
HStem: 427.8 42.8398<175.313 221.359 167.856 234.39> 658.32 40.7998<175.3 214.318 175.3 220.918>
VStem: 58.9961 44.8809<544.461 583.479> 285.437 44.8809<537.333 583.466 526.256 591.734>
LayerCount: 2
Fore
SplineSet
195.16796875 427.799804688 m 0
 273.612304688 427.799804688 330.317382812 488.54296875 330.317382812 563.969726562 c 0
 330.317382812 602.962890625 317.36328125 634.768554688 291.282226562 660.528320312 c 0
 265.153320312 686.334960938 233.46875 699.120117188 195.166992188 699.120117188 c 0
 155.432617188 699.120117188 123.279296875 686.286132812 97.5546875 660.561523438 c 0
 71.802734375 634.810546875 58.99609375 602.989257812 58.99609375 563.969726562 c 0
 58.99609375 524.952148438 71.8076171875 492.9375 97.5888671875 466.833984375 c 0
 123.322265625 440.780273438 155.458984375 427.799804688 195.16796875 427.799804688 c 0
285.436523438 563.969726562 m 0
 285.436523438 510.697265625 247.55078125 470.639648438 195.166992188 470.639648438 c 0
 140.544921875 470.639648438 103.876953125 511.6328125 103.876953125 563.969726562 c 0
 103.876953125 618.557617188 141.421875 658.3203125 195.166992188 658.3203125 c 0
 246.668945312 658.3203125 285.436523438 619.499023438 285.436523438 563.969726562 c 0
EndSplineSet
EndChar

StartChar: plusminus
Encoding: 177 177 115
Width: 507
GlyphClass: 2
Flags: W
LayerCount: 2
Fore
SplineSet
215.056640625 286.01953125 m 1
 215.056640625 121.799804688 l 1
 282.376953125 121.799804688 l 1
 282.376953125 286.01953125 l 1
 446.596679688 286.01953125 l 1
 446.596679688 353.33984375 l 1
 282.376953125 353.33984375 l 1
 282.376953125 517.559570312 l 1
 215.056640625 517.559570312 l 1
 215.056640625 353.33984375 l 1
 50.8369140625 353.33984375 l 1
 50.8369140625 286.01953125 l 1
 215.056640625 286.01953125 l 1
446.596679688 56.51953125 m 1
 50.8369140625 56.51953125 l 1
 50.8369140625 -10.7998046875 l 1
 446.596679688 -10.7998046875 l 1
 446.596679688 56.51953125 l 1
EndSplineSet
EndChar

StartChar: uni00B2
Encoding: 178 178 116
Width: 370
GlyphClass: 2
Flags: MW
HStem: 806.221 49.9795<159.039 192.034>
VStem: 44.7168 61.2012<740.94 742.47 740.94 740.94> 249.737 64.2588<722.148 744.51 736.35 741.451>
LayerCount: 2
Fore
SplineSet
178.846679688 806.220703125 m 0
 205.221679688 806.220703125 249.737304688 797.865234375 249.737304688 741.451171875 c 2
 249.737304688 735.331054688 l 2
 249.737304688 708.965820312 238.935546875 686.698242188 208.793945312 656.541992188 c 2
 48.796875 489.499023438 l 1
 48.796875 439.01953125 l 1
 316.037109375 439.01953125 l 1
 316.037109375 492.059570312 l 1
 133.63671875 492.059570312 l 1
 174.134765625 535.19921875 213.584960938 579.37109375 255.125976562 621.484375 c 0
 299.9140625 666.889648438 313.99609375 698.048828125 313.99609375 736.349609375 c 2
 313.99609375 744.509765625 l 2
 313.99609375 812.786132812 266.849609375 856.200195312 180.88671875 856.200195312 c 0
 137.190429688 856.200195312 103.95703125 845.7890625 80.232421875 825.860351562 c 0
 56.6171875 806.0234375 44.716796875 778.776367188 44.716796875 742.469726562 c 2
 44.716796875 740.940429688 l 1
 105.91796875 740.940429688 l 1
 106.032226562 763.564453125 114.74609375 806.220703125 178.846679688 806.220703125 c 0
EndSplineSet
EndChar

StartChar: uni00B3
Encoding: 179 179 117
Width: 368
GlyphClass: 2
Flags: MW
HStem: 432.9 48.958<157.846 198.643> 625.678 51<152.836 169.666 152.836 184.649> 806.218 49.9805<155.624 190.111>
VStem: 43.6963 55.0938<523.027 541.018 540.508 541.018> 245.656 61.2012<724.143 753.689 738.388 753.689> 252.796 61.2012<532.403 556.829 547.649 555.808>
LayerCount: 2
Fore
SplineSet
175.786132812 481.858398438 m 0xf4
 139.905273438 481.858398438 99.6796875 492.688476562 98.7900390625 541.017578125 c 1
 43.6962890625 541.017578125 l 1
 43.6962890625 540.5078125 l 2
 43.6962890625 505.546875 55.08984375 479.71484375 77.6103515625 461.259765625 c 0
 100.24609375 442.7109375 133.013671875 432.900390625 176.806640625 432.900390625 c 0
 220.478515625 432.900390625 253.877929688 443.4609375 277.963867188 463.744140625 c 0
 301.952148438 483.944335938 313.997070312 511.375 313.997070312 547.649414062 c 2
 313.997070312 556.829101562 l 2xf4
 313.997070312 604.556640625 293.9765625 634.369140625 252.700195312 649.610351562 c 2
 234.744140625 656.240234375 l 1
 252.32421875 663.817382812 l 2
 289.303710938 679.7578125 306.857421875 706.170898438 306.857421875 745.529296875 c 2
 306.857421875 753.689453125 l 2
 306.857421875 816.978515625 260.771484375 856.198242188 176.805664062 856.198242188 c 0
 134.442382812 856.198242188 102.385742188 846.274414062 79.6982421875 827.369140625 c 0
 57.2431640625 808.655273438 45.84765625 782.780273438 45.736328125 748.078125 c 1
 100.817382812 748.078125 l 1
 100.9375 765.716796875 108.333984375 806.217773438 173.74609375 806.217773438 c 0
 206.4765625 806.217773438 245.65625 795.732421875 245.65625 745.528320312 c 2
 245.65625 738.387695312 l 2xf8
 245.65625 709.8984375 232.240234375 676.677734375 169.666015625 676.677734375 c 2
 152.8359375 676.677734375 l 1
 152.8359375 625.677734375 l 1
 169.666015625 625.677734375 l 2
 199.6328125 625.677734375 252.795898438 620.022460938 252.795898438 555.807617188 c 2
 252.795898438 547.6484375 l 2
 252.795898438 517.157226562 239.119140625 481.858398438 175.786132812 481.858398438 c 0xf4
EndSplineSet
EndChar

StartChar: acute
Encoding: 180 180 118
Width: 498
GlyphClass: 2
Flags: MW
HStem: 588.96 115.26<167.867 350.402 228.839 350.402>
LayerCount: 2
Fore
SplineSet
350.40234375 704.219726562 m 1
 266.018554688 704.219726562 l 1
 167.8671875 588.959960938 l 1
 228.838867188 588.959960938 l 1
 350.40234375 704.219726562 l 1
EndSplineSet
EndChar

StartChar: uni00B5
Encoding: 181 181 119
Width: 570
GlyphClass: 2
Flags: MW
HStem: -5.7002 61.1992<238.613 296.851>
VStem: 65.1172 71.3994<-155.64 44.5713 195.749 507.359 -155.64 44.5713> 423.137 72.4199<188.65 213.09 213.09 507.36>
LayerCount: 2
Fore
SplineSet
276.766601562 55.4990234375 m 0
 197.469726562 55.4990234375 136.516601562 97.943359375 136.516601562 195.749023438 c 2
 136.516601562 507.359375 l 1
 112.716796875 507.359375 88.9169921875 507.360351562 65.1171875 507.360351562 c 1
 65.1171875 -155.639648438 l 1
 136.516601562 -155.639648438 l 1
 136.516601562 44.5712890625 l 1
 149.505859375 31.9072265625 l 2
 174.809570312 7.2353515625 212.698242188 -5.7001953125 264.52734375 -5.7001953125 c 0
 329.174804688 -5.7001953125 377.459960938 17.6767578125 411.321289062 64.5625 c 2
 425.176757812 83.7470703125 l 1
 425.176757812 0.419921875 l 1
 495.556640625 0.419921875 l 1
 495.556640625 507.360351562 l 1
 423.13671875 507.360351562 l 1
 423.13671875 213.08984375 l 2
 423.13671875 164.2109375 410.516601562 125.174804688 384.35546875 97.1962890625 c 0
 358.1953125 69.2197265625 321.837890625 55.4990234375 276.766601562 55.4990234375 c 0
EndSplineSet
EndChar

StartChar: paragraph
Encoding: 182 182 120
Width: 682
GlyphClass: 2
Flags: MW
VStem: 70.2158 324.361<448.202 514.89>
LayerCount: 2
Fore
SplineSet
328.27734375 274.798828125 m 1
 328.27734375 -155.639648438 l 1
 394.577148438 -155.639648438 l 1
 394.577148438 626.700195312 l 1
 499.63671875 626.700195312 l 1
 499.63671875 -155.639648438 l 1
 565.936523438 -155.639648438 l 1
 565.936523438 688.919921875 l 1
 304.306640625 688.919921875 l 2
 229.36328125 688.919921875 172.071289062 670.545898438 131.366210938 634.725585938 c 0
 90.7783203125 599.0078125 70.2158203125 548.430664062 70.2158203125 481.349609375 c 0
 70.2158203125 415.053710938 91.52734375 364.86328125 133.802734375 329.090820312 c 0
 176.13671875 293.26953125 237.407226562 274.798828125 318.5859375 274.798828125 c 2
 328.27734375 274.798828125 l 1
EndSplineSet
EndChar

StartChar: periodcentered
Encoding: 183 183 121
Width: 191
GlyphClass: 2
Flags: MW
HStem: 223.8 93.8398<45.7373 134.477 45.7373 134.477>
VStem: 45.7373 88.7393<223.8 317.64 223.8 317.64>
LayerCount: 2
Fore
SplineSet
134.4765625 317.639648438 m 1
 45.7373046875 317.639648438 l 1
 45.7373046875 223.799804688 l 1
 134.4765625 223.799804688 l 1
 134.4765625 317.639648438 l 1
EndSplineSet
EndChar

StartChar: cedilla
Encoding: 184 184 122
Width: 498
GlyphClass: 2
Flags: MW
HStem: -154.62 151.98<166.949 303.812 237.09 303.812>
LayerCount: 2
Fore
SplineSet
303.8125 -2.6396484375 m 1
 245.71875 -2.6396484375 l 1
 166.94921875 -154.620117188 l 1
 237.08984375 -154.620117188 l 1
 303.8125 -2.6396484375 l 1
EndSplineSet
EndChar

StartChar: uni00B9
Encoding: 185 185 123
Width: 258
GlyphClass: 2
Flags: MW
VStem: 36.5566 150.96<734.835 799.382 734.835 734.835>
LayerCount: 2
Fore
SplineSet
123.256835938 788.895507812 m 1
 123.256835938 439.01953125 l 1
 187.516601562 439.01953125 l 1
 187.516601562 849.059570312 l 1
 117.760742188 849.059570312 l 1
 36.556640625 799.381835938 l 1
 36.556640625 734.834960938 l 1
 123.256835938 788.895507812 l 1
EndSplineSet
EndChar

StartChar: ordmasculine
Encoding: 186 186 124
Width: 377
GlyphClass: 2
Flags: MW
HStem: 434.94 49.9795<166.836 201.454> 698.1 49.9814<172.462 193.001>
VStem: 43.6973 57.1201<574.17 574.171 574.171 609.87 609.87 609.871> 267.077 58.1396<555.799 609.871 574.171 609.87>
LayerCount: 2
Fore
SplineSet
183.947265625 748.081054688 m 0
 160.977539062 748.081054688 43.697265625 747.26953125 43.697265625 609.87109375 c 2
 43.697265625 574.170898438 l 2
 43.697265625 527.920898438 56.166015625 493.856445312 80.142578125 470.510742188 c 0
 104.205078125 447.080078125 138.370117188 434.940429688 183.947265625 434.940429688 c 0
 218.9609375 434.940429688 325.216796875 441.458984375 325.216796875 574.170898438 c 2
 325.216796875 609.87109375 l 2
 325.216796875 655.3671875 312.4765625 689.052734375 287.82421875 712.44140625 c 0
 263.026367188 735.967773438 228.807617188 748.081054688 183.947265625 748.081054688 c 0
267.077148438 574.169921875 m 2
 267.077148438 537.428710938 254.700195312 484.919921875 183.947265625 484.919921875 c 0
 149.725585938 484.919921875 100.817382812 498.20703125 100.817382812 574.169921875 c 2
 100.817382812 609.870117188 l 2
 100.817382812 643.434570312 111.879882812 698.099609375 183.947265625 698.099609375 c 0
 202.055664062 698.099609375 267.077148438 695.479492188 267.077148438 609.870117188 c 2
 267.077148438 574.169921875 l 2
-5.7734375 706.76953125 m 1024
EndSplineSet
EndChar

StartChar: guillemotright
Encoding: 187 187 125
Width: 551
GlyphClass: 2
Flags: W
LayerCount: 2
Fore
SplineSet
65.1171875 381.829101562 m 1
 203.80859375 262.049804688 l 1
 65.1171875 142.270507812 l 1
 65.1171875 69.8203125 l 1
 284.540039062 262.049804688 l 1
 65.1171875 454.279296875 l 1
 65.1171875 381.829101562 l 1
298.697265625 381.829101562 m 1
 437.388671875 262.049804688 l 1
 298.697265625 142.270507812 l 1
 298.697265625 69.8203125 l 1
 518.120117188 262.049804688 l 1
 298.697265625 454.279296875 l 1
 298.697265625 381.829101562 l 1
EndSplineSet
EndChar

StartChar: onequarter
Encoding: 188 188 126
Width: 809
GlyphClass: 3
Flags: W
LayerCount: 2
Fore
SplineSet
195.74609375 0.419921875 m 1
 575.94140625 690.959960938 l 1
 517.93359375 690.959960938 l 1
 138.735351562 0.419921875 l 1
 195.74609375 0.419921875 l 1
113.056640625 627.650390625 m 1
 113.056640625 278.879882812 l 1
 177.317382812 278.879882812 l 1
 177.317382812 688.919921875 l 1
 107.540039062 688.919921875 l 1
 25.3369140625 639.215820312 l 1
 25.3369140625 573.590820312 l 1
 113.056640625 627.650390625 l 1
725.056640625 0.419921875 m 1
 725.056640625 71.8203125 l 1
 766.876953125 71.8203125 l 1
 766.876953125 124.860351562 l 1
 725.056640625 124.860351562 l 1
 725.056640625 221.759765625 l 1
 660.796875 221.759765625 l 1
 660.796875 124.860351562 l 1
 524.567382812 124.860351562 l 1
 665.327148438 410.459960938 l 1
 602.810546875 410.459960938 l 1
 463.936523438 130.713867188 l 1
 463.936523438 71.8203125 l 1
 660.796875 71.8203125 l 1
 660.796875 0.419921875 l 1
 725.056640625 0.419921875 l 1
EndSplineSet
Ligature2: "'frac' Diagonal Fractions lookup 2 subtable" one slash four
EndChar

StartChar: onehalf
Encoding: 189 189 127
Width: 820
GlyphClass: 3
Flags: MW
HStem: 367.62 49.9795<609.878 642.874>
VStem: 495.557 61.2012<302.34 303.87 302.34 302.34> 700.577 64.2588<283.548 305.91 297.75 302.85>
LayerCount: 2
Fore
SplineSet
570.841796875 690.959960938 m 1
 512.833984375 690.959960938 l 1
 133.635742188 0.419921875 l 1
 190.645507812 0.419921875 l 1
 570.841796875 690.959960938 l 1
113.056640625 627.650390625 m 1
 113.056640625 278.879882812 l 1
 177.317382812 278.879882812 l 1
 177.317382812 688.919921875 l 1
 107.540039062 688.919921875 l 1
 25.3369140625 639.215820312 l 1
 25.3369140625 573.590820312 l 1
 113.056640625 627.650390625 l 1
629.686523438 367.620117188 m 0
 656.061523438 367.620117188 700.577148438 359.263671875 700.577148438 302.849609375 c 2
 700.577148438 296.73046875 l 2
 700.577148438 270.365234375 689.775390625 248.09765625 659.634765625 217.940429688 c 2
 499.63671875 50.8994140625 l 1
 499.63671875 0.419921875 l 1
 766.876953125 0.419921875 l 1
 766.876953125 53.4599609375 l 1
 584.4765625 53.4599609375 l 1
 624.974609375 96.599609375 664.42578125 140.76953125 705.965820312 182.883789062 c 0
 750.79296875 228.331054688 764.8359375 259.486328125 764.8359375 297.75 c 2
 764.8359375 305.91015625 l 2
 764.8359375 374.186523438 717.690429688 417.599609375 631.7265625 417.599609375 c 0
 588.030273438 417.599609375 554.797851562 407.188476562 531.073242188 387.259765625 c 0
 507.45703125 367.422851562 495.556640625 340.176757812 495.556640625 303.870117188 c 2
 495.556640625 302.33984375 l 1
 556.7578125 302.33984375 l 1
 556.872070312 324.959960938 565.583984375 367.620117188 629.686523438 367.620117188 c 0
EndSplineSet
Ligature2: "'frac' Diagonal Fractions lookup 2 subtable" one slash two
EndChar

StartChar: threequarters
Encoding: 190 190 128
Width: 914
GlyphClass: 3
Flags: MW
HStem: 271.74 49.9795<161.125 198.291> 465.54 49.9795<151.818 168.648 151.818 169.668 151.818 189.285> 646.08 49.9785<154.605 189.384>
VStem: 42.6787 55.0947<379.86 379.86> 245.658 61.1992<563.723 592.529 585.389 585.39> 252.798 60.1787<386.489 386.49 386.49 395.669 395.669 395.67>
LayerCount: 2
Fore
SplineSet
42.6787109375 379.860351562 m 1xf4
 42.8056640625 339.90625 60.1201171875 271.740234375 176.807617188 271.740234375 c 0
 219.7734375 271.740234375 252.833007812 282.279296875 276.943359375 302.583984375 c 0
 300.931640625 322.784179688 312.9765625 350.21484375 312.9765625 386.489257812 c 2
 312.9765625 395.668945312 l 2xf4
 312.9765625 444.918945312 293.159179688 474.9296875 252.762695312 489.447265625 c 2
 234.51953125 496.002929688 l 1
 252.32421875 503.677734375 l 2
 289.303710938 519.6171875 306.857421875 546.03125 306.857421875 585.388671875 c 2
 306.857421875 592.529296875 l 2
 306.857421875 625.3125 295.586914062 649.96875 272.993164062 668.168945312 c 0
 250.309570312 686.44140625 218.193359375 696.05859375 175.787109375 696.05859375 c 0
 133.422851562 696.05859375 101.3671875 686.135742188 78.6796875 667.229492188 c 0
 56.2236328125 648.516601562 44.828125 622.640625 44.7177734375 587.939453125 c 1
 100.831054688 587.939453125 l 1
 101.305664062 613.642578125 114.494140625 646.080078125 172.727539062 646.080078125 c 0
 206.040039062 646.080078125 245.658203125 635.538085938 245.658203125 585.389648438 c 2
 245.658203125 578.25 l 2xf8
 245.658203125 549.196289062 231.994140625 515.51953125 168.6484375 515.51953125 c 2
 151.818359375 515.51953125 l 1
 151.818359375 465.540039062 l 1
 169.66796875 465.540039062 l 2
 208.90234375 465.540039062 252.797851562 452.778320312 252.797851562 395.669921875 c 2
 252.797851562 386.490234375 l 2
 252.797851562 356.396484375 238.887695312 321.719726562 174.767578125 321.719726562 c 0
 147.482421875 321.719726562 98.80078125 328.883789062 97.7734375 379.860351562 c 1
 42.6787109375 379.860351562 l 1xf4
300.805664062 0.419921875 m 1
 681.001953125 690.959960938 l 1
 622.994140625 690.959960938 l 1
 243.795898438 0.419921875 l 1
 300.805664062 0.419921875 l 1
830.1171875 0.419921875 m 1
 830.1171875 71.8203125 l 1
 871.936523438 71.8203125 l 1
 871.936523438 124.860351562 l 1
 830.1171875 124.860351562 l 1
 830.1171875 221.759765625 l 1
 765.857421875 221.759765625 l 1
 765.857421875 124.860351562 l 1
 629.626953125 124.860351562 l 1
 770.38671875 410.459960938 l 1
 707.87109375 410.459960938 l 1
 568.997070312 130.713867188 l 1
 568.997070312 71.8203125 l 1
 765.857421875 71.8203125 l 1
 765.857421875 0.419921875 l 1
 830.1171875 0.419921875 l 1
EndSplineSet
Ligature2: "'frac' Diagonal Fractions lookup 2 subtable" three slash four
EndChar

StartChar: questiondown
Encoding: 191 191 129
Width: 482
GlyphClass: 2
Flags: MW
HStem: -165.84 66.2998<223.225 264.036>
VStem: 39.6182 76.499<-13.2075 24.4434 -13.2075 29.6289> 206.898 74.46<295.71 299.79 299.79 321.72> 367.908 73.3184<8.58008 8.58008>
LayerCount: 2
Fore
SplineSet
287.4765625 507.360351562 m 1
 199.756835938 507.360351562 l 1
 199.756835938 416.580078125 l 1
 287.4765625 416.580078125 l 1
 287.4765625 507.360351562 l 1
116.1171875 2.9697265625 m 0
 116.1171875 45.9169921875 131.341796875 75.798828125 170.584960938 113.63671875 c 2
 170.584960938 113.63671875 227.672851562 166.645507812 227.705078125 166.67578125 c 0
 249.650390625 187.291992188 263.806640625 206.388671875 270.681640625 223.576171875 c 0
 277.625976562 240.936523438 281.358398438 265.033203125 281.358398438 295.709960938 c 2
 281.358398438 321.719726562 l 1
 206.8984375 321.719726562 l 1
 206.8984375 299.790039062 l 2
 206.8984375 254.899414062 197.221679688 232.526367188 166.788085938 203.4765625 c 2
 100.552734375 140.297851562 l 2
 62.494140625 102.216796875 39.6181640625 60.3681640625 39.6181640625 -1.1103515625 c 0
 39.6181640625 -52.9873046875 57.232421875 -92.6328125 92.4228515625 -121.688476562 c 0
 127.703125 -150.819335938 176.946289062 -165.83984375 241.067382812 -165.83984375 c 0
 287.00390625 -165.83984375 433.16796875 -160.016601562 441.2265625 8.580078125 c 1
 367.908203125 8.580078125 l 1
 365.678710938 -47.9931640625 337.694335938 -99.5400390625 243.107421875 -99.5400390625 c 0
 203.341796875 -99.5400390625 171.8984375 -91.23046875 149.59375 -73.38671875 c 0
 127.169921875 -55.447265625 116.1171875 -29.384765625 116.1171875 2.9697265625 c 0
EndSplineSet
EndChar

StartChar: Agrave
Encoding: 192 192 130
Width: 667
GlyphClass: 2
Flags: W
LayerCount: 2
Fore
SplineSet
150.194335938 159.540039062 m 1
 505.309570312 159.540039062 l 1
 569.569335938 0.419921875 l 1
 650.828125 0.419921875 l 1
 362.456054688 688.919921875 l 1
 294.104492188 688.919921875 l 1
 6.73046875 0.419921875 l 1
 86.9541015625 0.419921875 l 1
 150.194335938 159.540039062 l 1
479.827148438 222.780273438 m 1
 175.706054688 222.780273438 l 1
 327.766601562 602.931640625 l 1
 479.827148438 222.780273438 l 1
279.396484375 880.6796875 m 1
 192.325195312 880.6796875 l 1
 317.490234375 765.419921875 l 1
 379.348632812 765.419921875 l 1
 279.396484375 880.6796875 l 1
EndSplineSet
EndChar

StartChar: Aacute
Encoding: 193 193 131
Width: 667
GlyphClass: 2
Flags: W
LayerCount: 2
Fore
SplineSet
150.194335938 159.540039062 m 1
 505.309570312 159.540039062 l 1
 569.569335938 0.419921875 l 1
 650.828125 0.419921875 l 1
 362.456054688 688.919921875 l 1
 294.104492188 688.919921875 l 1
 6.73046875 0.419921875 l 1
 86.9541015625 0.419921875 l 1
 150.194335938 159.540039062 l 1
479.827148438 222.780273438 m 1
 175.706054688 222.780273438 l 1
 327.766601562 602.931640625 l 1
 479.827148438 222.780273438 l 1
443.828125 880.6796875 m 1
 357.756835938 880.6796875 l 1
 256.904296875 765.419921875 l 1
 318.663085938 765.419921875 l 1
 443.828125 880.6796875 l 1
EndSplineSet
EndChar

StartChar: Acircumflex
Encoding: 194 194 132
Width: 667
GlyphClass: 2
Flags: W
LayerCount: 2
Fore
SplineSet
150.194335938 159.540039062 m 1
 505.309570312 159.540039062 l 1
 569.569335938 0.419921875 l 1
 650.828125 0.419921875 l 1
 362.456054688 688.919921875 l 1
 294.104492188 688.919921875 l 1
 6.73046875 0.419921875 l 1
 86.9541015625 0.419921875 l 1
 150.194335938 159.540039062 l 1
479.827148438 222.780273438 m 1
 175.706054688 222.780273438 l 1
 327.766601562 602.931640625 l 1
 479.827148438 222.780273438 l 1
358.014648438 893.940429688 m 1
 298.5390625 893.940429688 l 1
 178.647460938 760.3203125 l 1
 239.784179688 760.3203125 l 1
 328.8203125 855.715820312 l 1
 416.796875 760.3203125 l 1
 477.907226562 760.3203125 l 1
 358.014648438 893.940429688 l 1
EndSplineSet
EndChar

StartChar: Atilde
Encoding: 195 195 133
Width: 667
GlyphClass: 2
Flags: MW
HStem: 763.38 56.1006<383.757 408.523> 802.14 56.1006<250.246 267.481>
LayerCount: 2
Fore
SplineSet
150.194335938 159.540039062 m 1x00
 505.309570312 159.540039062 l 1
 569.569335938 0.419921875 l 1
 650.828125 0.419921875 l 1
 362.456054688 688.919921875 l 1
 294.104492188 688.919921875 l 1
 6.73046875 0.419921875 l 1
 86.9541015625 0.419921875 l 1
 150.194335938 159.540039062 l 1x00
479.827148438 222.780273438 m 1
 175.706054688 222.780273438 l 1
 327.766601562 602.931640625 l 1
 479.827148438 222.780273438 l 1
470.052734375 848.685546875 m 1
 446.073242188 828.325195312 427.961914062 819.48046875 399.163085938 819.48046875 c 0x80
 342.228515625 819.48046875 320.952148438 858.240234375 262.485351562 858.240234375 c 0
 238.005859375 858.240234375 215.7109375 851.783203125 186.497070312 824.834960938 c 1
 186.497070312 772.502929688 l 1
 211.735351562 793.315429688 229.708984375 802.139648438 257.38671875 802.139648438 c 0x40
 277.575195312 802.139648438 287.7109375 799.33203125 323.899414062 783.045898438 c 0
 358.084960938 765.952148438 373.44921875 763.379882812 394.064453125 763.379882812 c 0x80
 422.982421875 763.379882812 448.030273438 773.890625 470.052734375 795.600585938 c 1
 470.052734375 848.685546875 l 1
EndSplineSet
EndChar

StartChar: Adieresis
Encoding: 196 196 134
Width: 667
GlyphClass: 2
Flags: W
LayerCount: 2
Fore
SplineSet
150.194335938 159.540039062 m 1
 505.309570312 159.540039062 l 1
 569.569335938 0.419921875 l 1
 650.828125 0.419921875 l 1
 362.456054688 688.919921875 l 1
 294.104492188 688.919921875 l 1
 6.73046875 0.419921875 l 1
 86.9541015625 0.419921875 l 1
 150.194335938 159.540039062 l 1
479.827148438 222.780273438 m 1
 175.706054688 222.780273438 l 1
 327.766601562 602.931640625 l 1
 479.827148438 222.780273438 l 1
254.836914062 856.200195312 m 1
 183.436523438 856.200195312 l 1
 183.436523438 774.599609375 l 1
 254.836914062 774.599609375 l 1
 254.836914062 856.200195312 l 1
473.1171875 856.200195312 m 1
 402.737304688 856.200195312 l 1
 402.737304688 774.599609375 l 1
 473.1171875 774.599609375 l 1
 473.1171875 856.200195312 l 1
EndSplineSet
EndChar

StartChar: Aring
Encoding: 197 197 135
Width: 667
GlyphClass: 2
Flags: MW
HStem: 843.96 28.5596<315.724 341.483 315.724 345.728>
VStem: 240.557 29.5801<774.447 796.351> 387.437 29.5801<773.721 796.332 773.721 801.313>
LayerCount: 2
Fore
SplineSet
417.016601562 783.26953125 m 0
 417.016601562 809.39453125 408.610351562 830.330078125 391.71875 847.221679688 c 0
 374.788085938 864.15234375 354.1796875 872.51953125 328.787109375 872.51953125 c 0
 302.66015625 872.51953125 281.9296875 864.118164062 265.395507812 847.272460938 c 0
 248.828125 830.392578125 240.556640625 809.432617188 240.556640625 783.26953125 c 0
 240.556640625 765.624023438 245.479492188 722.610351562 291.061523438 702.555664062 c 2
 297.934570312 699.532226562 l 1
 6.7216796875 0.419921875 l 1
 86.9541015625 0.419921875 l 1
 150.194335938 159.540039062 l 1
 505.309570312 159.540039062 l 1
 569.569335938 0.419921875 l 1
 650.836914062 0.419921875 l 1
 358.611328125 699.528320312 l 1
 373.239257812 705.96484375 388.942382812 712.873046875 402.997070312 733.956054688 c 0
 412.30078125 747.911132812 417.016601562 764.172851562 417.016601562 783.26953125 c 0
270.13671875 783.26953125 m 0
 270.13671875 819.358398438 294.90625 843.959960938 328.787109375 843.959960938 c 0
 362.66796875 843.959960938 387.436523438 819.357421875 387.436523438 783.26953125 c 0
 387.436523438 749.977539062 364.08203125 722.580078125 328.787109375 722.580078125 c 0
 293.491210938 722.580078125 270.13671875 749.979492188 270.13671875 783.26953125 c 0
479.827148438 222.780273438 m 1
 175.706054688 222.780273438 l 1
 327.766601562 602.931640625 l 1
 479.827148438 222.780273438 l 1
EndSplineSet
EndChar

StartChar: AE
Encoding: 198 198 136
Width: 1007
GlyphClass: 2
Flags: W
LayerCount: 2
Fore
SplineSet
564.916992188 621.599609375 m 1
 957.6171875 621.599609375 l 1
 957.6171875 688.919921875 l 1
 433.01953125 688.919921875 l 1
 8.943359375 0.419921875 l 1
 93.9677734375 0.419921875 l 1
 193.927734375 164.639648438 l 1
 487.396484375 164.639648438 l 1
 487.396484375 0.419921875 l 1
 957.6171875 0.419921875 l 1
 957.6171875 67.740234375 l 1
 564.916992188 67.740234375 l 1
 564.916992188 316.620117188 l 1
 901.516601562 316.620117188 l 1
 901.516601562 383.940429688 l 1
 564.916992188 383.940429688 l 1
 564.916992188 621.599609375 l 1
487.396484375 227.879882812 m 1
 232.55078125 227.879882812 l 1
 487.396484375 646.317382812 l 1
 487.396484375 227.879882812 l 1
EndSplineSet
EndChar

StartChar: Ccedilla
Encoding: 199 199 137
Width: 681
GlyphClass: 2
Flags: MW
HStem: -8.76562 68.3457<331.122 331.122> 630.78 68.3398<301.599 376.89>
VStem: 58.9961 77.5195<292.65 293.67 293.67 391.59 391.59 396.69> 537.345 76.5205<206.46 206.46>
LayerCount: 2
Fore
SplineSet
537.344726562 206.459960938 m 1
 536.407226562 152.34375 511.044921875 59.580078125 348.166015625 59.580078125 c 0
 177.21875 59.580078125 136.515625 170.786132812 136.515625 292.650390625 c 2
 136.515625 391.58984375 l 2
 136.515625 521.772460938 179.1328125 630.780273438 347.145507812 630.780273438 c 0
 406.634765625 630.780273438 453.493164062 618.3828125 486.97265625 592.461914062 c 0
 519.768554688 567.072265625 536.51953125 530.653320312 537.34375 484.919921875 c 1
 614.885742188 484.919921875 l 1
 614.310546875 552.5390625 590.764648438 604.23046875 544.313476562 641.649414062 c 0
 497.111328125 679.673828125 432.015625 699.120117188 348.166992188 699.120117188 c 0
 255.030273438 699.120117188 184.202148438 673.587890625 134.291992188 623.349609375 c 0
 84.505859375 573.236328125 58.99609375 498.154296875 58.99609375 396.690429688 c 2
 58.99609375 293.669921875 l 2
 58.99609375 194.885742188 83.0146484375 121.23046875 129.84765625 71.44921875 c 0
 176.810546875 21.53125 243.44921875 -5.419921875 331.122070312 -8.765625 c 2
 343.158203125 -9.224609375 l 1
 267.918945312 -154.620117188 l 1
 338.083007812 -154.620117188 l 1
 404.083984375 -5.3564453125 l 1
 436.158203125 -0.7744140625 507.146484375 10.67578125 559.9453125 64.9140625 c 0
 595.3125 101.24609375 613.35546875 148.051757812 613.865234375 206.459960938 c 1
 537.344726562 206.459960938 l 1
EndSplineSet
EndChar

StartChar: Egrave
Encoding: 200 200 138
Width: 597
GlyphClass: 2
Flags: W
LayerCount: 2
Fore
SplineSet
147.737304688 621.599609375 m 1
 546.556640625 621.599609375 l 1
 546.556640625 688.919921875 l 1
 70.216796875 688.919921875 l 1
 70.216796875 0.419921875 l 1
 546.556640625 0.419921875 l 1
 546.556640625 67.740234375 l 1
 147.737304688 67.740234375 l 1
 147.737304688 316.620117188 l 1
 489.436523438 316.620117188 l 1
 489.436523438 383.940429688 l 1
 147.737304688 383.940429688 l 1
 147.737304688 621.599609375 l 1
255.936523438 880.6796875 m 1
 168.865234375 880.6796875 l 1
 294.030273438 765.419921875 l 1
 355.888671875 765.419921875 l 1
 255.936523438 880.6796875 l 1
EndSplineSet
EndChar

StartChar: Eacute
Encoding: 201 201 139
Width: 597
GlyphClass: 2
Flags: W
LayerCount: 2
Fore
SplineSet
147.737304688 621.599609375 m 1
 546.556640625 621.599609375 l 1
 546.556640625 688.919921875 l 1
 70.216796875 688.919921875 l 1
 70.216796875 0.419921875 l 1
 546.556640625 0.419921875 l 1
 546.556640625 67.740234375 l 1
 147.737304688 67.740234375 l 1
 147.737304688 316.620117188 l 1
 489.436523438 316.620117188 l 1
 489.436523438 383.940429688 l 1
 147.737304688 383.940429688 l 1
 147.737304688 621.599609375 l 1
428.528320312 880.6796875 m 1
 342.456054688 880.6796875 l 1
 241.603515625 765.419921875 l 1
 303.36328125 765.419921875 l 1
 428.528320312 880.6796875 l 1
EndSplineSet
EndChar

StartChar: Ecircumflex
Encoding: 202 202 140
Width: 597
GlyphClass: 2
Flags: W
LayerCount: 2
Fore
SplineSet
147.737304688 621.599609375 m 1
 546.556640625 621.599609375 l 1
 546.556640625 688.919921875 l 1
 70.216796875 688.919921875 l 1
 70.216796875 0.419921875 l 1
 546.556640625 0.419921875 l 1
 546.556640625 67.740234375 l 1
 147.737304688 67.740234375 l 1
 147.737304688 316.620117188 l 1
 489.436523438 316.620117188 l 1
 489.436523438 383.940429688 l 1
 147.737304688 383.940429688 l 1
 147.737304688 621.599609375 l 1
334.5546875 893.940429688 m 1
 275.079101562 893.940429688 l 1
 155.1875 760.3203125 l 1
 216.32421875 760.3203125 l 1
 305.360351562 855.715820312 l 1
 393.336914062 760.3203125 l 1
 454.447265625 760.3203125 l 1
 334.5546875 893.940429688 l 1
EndSplineSet
EndChar

StartChar: Edieresis
Encoding: 203 203 141
Width: 597
GlyphClass: 2
Flags: W
LayerCount: 2
Fore
SplineSet
147.737304688 621.599609375 m 1
 546.556640625 621.599609375 l 1
 546.556640625 688.919921875 l 1
 70.216796875 688.919921875 l 1
 70.216796875 0.419921875 l 1
 546.556640625 0.419921875 l 1
 546.556640625 67.740234375 l 1
 147.737304688 67.740234375 l 1
 147.737304688 316.620117188 l 1
 489.436523438 316.620117188 l 1
 489.436523438 383.940429688 l 1
 147.737304688 383.940429688 l 1
 147.737304688 621.599609375 l 1
231.376953125 856.200195312 m 1
 159.9765625 856.200195312 l 1
 159.9765625 774.599609375 l 1
 231.376953125 774.599609375 l 1
 231.376953125 856.200195312 l 1
449.657226562 856.200195312 m 1
 379.27734375 856.200195312 l 1
 379.27734375 774.599609375 l 1
 449.657226562 774.599609375 l 1
 449.657226562 856.200195312 l 1
EndSplineSet
EndChar

StartChar: Igrave
Encoding: 204 204 142
Width: 243
GlyphClass: 2
Flags: W
LayerCount: 2
Fore
SplineSet
154.876953125 688.919921875 m 1
 77.357421875 688.919921875 l 1
 77.357421875 0.419921875 l 1
 154.876953125 0.419921875 l 1
 154.876953125 688.919921875 l 1
67.2373046875 880.6796875 m 1
 -19.8349609375 880.6796875 l 1
 105.331054688 765.419921875 l 1
 167.188476562 765.419921875 l 1
 67.2373046875 880.6796875 l 1
EndSplineSet
EndChar

StartChar: Iacute
Encoding: 205 205 143
Width: 243
GlyphClass: 2
Flags: W
LayerCount: 2
Fore
SplineSet
154.876953125 688.919921875 m 1
 77.357421875 688.919921875 l 1
 77.357421875 0.419921875 l 1
 154.876953125 0.419921875 l 1
 154.876953125 688.919921875 l 1
239.828125 880.6796875 m 1
 153.756835938 880.6796875 l 1
 52.904296875 765.419921875 l 1
 114.663085938 765.419921875 l 1
 239.828125 880.6796875 l 1
EndSplineSet
EndChar

StartChar: Icircumflex
Encoding: 206 206 144
Width: 243
GlyphClass: 2
Flags: W
LayerCount: 2
Fore
SplineSet
154.876953125 688.919921875 m 1
 77.357421875 688.919921875 l 1
 77.357421875 0.419921875 l 1
 154.876953125 0.419921875 l 1
 154.876953125 688.919921875 l 1
145.854492188 893.940429688 m 1
 86.37890625 893.940429688 l 1
 -33.5126953125 760.3203125 l 1
 27.625 760.3203125 l 1
 116.66015625 855.715820312 l 1
 204.63671875 760.3203125 l 1
 265.747070312 760.3203125 l 1
 145.854492188 893.940429688 l 1
EndSplineSet
EndChar

StartChar: Idieresis
Encoding: 207 207 145
Width: 243
GlyphClass: 2
Flags: W
LayerCount: 2
Fore
SplineSet
154.876953125 688.919921875 m 1
 77.357421875 688.919921875 l 1
 77.357421875 0.419921875 l 1
 154.876953125 0.419921875 l 1
 154.876953125 688.919921875 l 1
42.6767578125 856.200195312 m 1
 -28.72265625 856.200195312 l 1
 -28.72265625 774.599609375 l 1
 42.6767578125 774.599609375 l 1
 42.6767578125 856.200195312 l 1
260.95703125 856.200195312 m 1
 190.577148438 856.200195312 l 1
 190.577148438 774.599609375 l 1
 260.95703125 774.599609375 l 1
 260.95703125 856.200195312 l 1
EndSplineSet
EndChar

StartChar: Eth
Encoding: 208 208 146
Width: 727
GlyphClass: 2
Flags: MW
HStem: 0.419922 67.3193<199.757 372.646 372.646 374.687 199.757 419.226> 621.599 67.3213<199.757 374.687 122.237 456.143>
VStem: 583.277 77.5195<231.748 391.589 298.769 386.489>
LayerCount: 2
Fore
SplineSet
374.686523438 688.919921875 m 2
 122.237304688 688.919921875 l 1
 122.237304688 383.940429688 l 1
 31.45703125 383.940429688 l 1
 31.45703125 316.620117188 l 1
 122.237304688 316.620117188 l 1
 122.237304688 0.419921875 l 1
 372.646484375 0.419921875 l 2
 465.805664062 0.419921875 536.47265625 25.6337890625 586.028320312 75.1884765625 c 0
 635.465820312 124.625 660.796875 198.67578125 660.796875 298.768554688 c 2
 660.796875 391.588867188 l 2
 660.796875 491.6953125 635.624023438 565.576171875 586.5390625 614.662109375 c 0
 537.322265625 663.877929688 467.166015625 688.919921875 374.686523438 688.919921875 c 2
374.686523438 621.598632812 m 2
 537.598632812 621.598632812 583.27734375 517.805664062 583.27734375 386.489257812 c 2
 583.27734375 296.728515625 l 2
 583.27734375 166.766601562 536.038085938 67.7392578125 374.686523438 67.7392578125 c 2
 199.756835938 67.7392578125 l 1
 199.756835938 316.619140625 l 1
 373.157226562 316.619140625 l 1
 373.157226562 383.939453125 l 1
 199.756835938 383.939453125 l 1
 199.756835938 621.598632812 l 1
 374.686523438 621.598632812 l 2
EndSplineSet
EndChar

StartChar: Ntilde
Encoding: 209 209 147
Width: 723
GlyphClass: 2
Flags: MW
HStem: 763.38 56.1006<409.257 434.023> 802.14 56.1006<275.745 292.981>
LayerCount: 2
Fore
SplineSet
643.45703125 0.419921875 m 1x00
 643.45703125 688.919921875 l 1
 565.936523438 688.919921875 l 1
 565.936523438 127.630859375 l 1
 151.52734375 688.919921875 l 1
 70.216796875 688.919921875 l 1
 70.216796875 0.419921875 l 1
 147.737304688 0.419921875 l 1
 147.737304688 560.654296875 l 1
 562.142578125 0.419921875 l 1
 643.45703125 0.419921875 l 1x00
495.552734375 848.685546875 m 1
 471.573242188 828.325195312 453.461914062 819.48046875 424.663085938 819.48046875 c 0x80
 367.736328125 819.48046875 346.444335938 858.240234375 287.983398438 858.240234375 c 0
 263.506835938 858.240234375 241.21484375 851.787109375 211.997070312 824.834960938 c 1
 211.997070312 772.502929688 l 1
 237.235351562 793.315429688 255.208984375 802.139648438 282.88671875 802.139648438 c 0x40
 303.075195312 802.139648438 313.2109375 799.33203125 349.399414062 783.045898438 c 0
 383.584960938 765.952148438 398.94921875 763.379882812 419.564453125 763.379882812 c 0x80
 448.482421875 763.379882812 473.530273438 773.890625 495.552734375 795.600585938 c 1
 495.552734375 848.685546875 l 1
EndSplineSet
EndChar

StartChar: Ograve
Encoding: 210 210 148
Width: 697
GlyphClass: 2
Flags: MW
HStem: -8.75977 68.3398<297.191 389.289> 630.78 68.3398<299.905 392.003 299.905 433.65>
VStem: 58.9971 77.5195<292.65 293.67 293.67 391.59 391.59 396.69> 553.697 76.5<237.121 396.69 293.67 391.591>
LayerCount: 2
Fore
SplineSet
343.067382812 -8.759765625 m 0
 435.510742188 -8.759765625 505.818359375 16.7607421875 555.392578125 66.9921875 c 0
 604.846679688 117.1015625 630.197265625 192.196289062 630.197265625 293.669921875 c 2
 630.197265625 396.690429688 l 2
 630.197265625 498.18359375 605.169921875 573.301757812 556.376953125 623.404296875 c 0
 507.482421875 673.610351562 437.879882812 699.120117188 346.126953125 699.120117188 c 0
 253.68359375 699.120117188 183.375976562 673.599609375 133.80078125 623.3671875 c 0
 84.3466796875 573.2578125 58.9970703125 498.1640625 58.9970703125 396.690429688 c 2
 58.9970703125 293.669921875 l 2
 58.9970703125 192.176757812 84.0244140625 117.057617188 132.817382812 66.9560546875 c 0
 181.7109375 16.7490234375 251.314453125 -8.759765625 343.067382812 -8.759765625 c 0
553.697265625 292.651367188 m 2
 553.697265625 181.590820312 520.604492188 59.580078125 345.107421875 59.580078125 c 0
 182.651367188 59.580078125 136.516601562 161.854492188 136.516601562 292.650390625 c 2
 136.516601562 391.58984375 l 2
 136.516601562 521.236328125 178.319335938 630.780273438 345.107421875 630.780273438 c 0
 522.193359375 630.780273438 553.697265625 504.591796875 553.697265625 391.590820312 c 2
 553.697265625 292.651367188 l 2
295.716796875 880.680664062 m 1
 208.645507812 880.680664062 l 1
 333.810546875 765.420898438 l 1
 395.668945312 765.420898438 l 1
 295.716796875 880.680664062 l 1
EndSplineSet
EndChar

StartChar: Oacute
Encoding: 211 211 149
Width: 697
GlyphClass: 2
Flags: MW
HStem: -8.75977 68.3398<297.191 389.289> 630.78 68.3398<299.905 392.003 299.905 433.65>
VStem: 58.9971 77.5195<292.65 293.67 293.67 391.59 391.59 396.69> 553.697 76.5<237.121 396.69 293.67 391.591>
LayerCount: 2
Fore
SplineSet
343.067382812 -8.759765625 m 0
 435.510742188 -8.759765625 505.818359375 16.7607421875 555.392578125 66.9921875 c 0
 604.846679688 117.1015625 630.197265625 192.196289062 630.197265625 293.669921875 c 2
 630.197265625 396.690429688 l 2
 630.197265625 498.18359375 605.169921875 573.301757812 556.376953125 623.404296875 c 0
 507.482421875 673.610351562 437.879882812 699.120117188 346.126953125 699.120117188 c 0
 253.68359375 699.120117188 183.375976562 673.599609375 133.80078125 623.3671875 c 0
 84.3466796875 573.2578125 58.9970703125 498.1640625 58.9970703125 396.690429688 c 2
 58.9970703125 293.669921875 l 2
 58.9970703125 192.176757812 84.0244140625 117.057617188 132.817382812 66.9560546875 c 0
 181.7109375 16.7490234375 251.314453125 -8.759765625 343.067382812 -8.759765625 c 0
553.697265625 292.651367188 m 2
 553.697265625 181.590820312 520.604492188 59.580078125 345.107421875 59.580078125 c 0
 182.651367188 59.580078125 136.516601562 161.854492188 136.516601562 292.650390625 c 2
 136.516601562 391.58984375 l 2
 136.516601562 521.236328125 178.319335938 630.780273438 345.107421875 630.780273438 c 0
 522.193359375 630.780273438 553.697265625 504.591796875 553.697265625 391.590820312 c 2
 553.697265625 292.651367188 l 2
458.108398438 880.680664062 m 1
 372.036132812 880.680664062 l 1
 271.18359375 765.420898438 l 1
 332.943359375 765.420898438 l 1
 458.108398438 880.680664062 l 1
EndSplineSet
EndChar

StartChar: Ocircumflex
Encoding: 212 212 150
Width: 697
GlyphClass: 2
Flags: MW
HStem: -8.75977 68.3398<297.191 389.289> 630.78 68.3398<299.905 392.003 299.905 433.65>
VStem: 58.9971 77.5195<292.65 293.67 293.67 391.59 391.59 396.69> 553.697 76.5<237.121 396.69 293.67 391.591>
LayerCount: 2
Fore
SplineSet
343.067382812 -8.759765625 m 0
 435.510742188 -8.759765625 505.818359375 16.7607421875 555.392578125 66.9921875 c 0
 604.846679688 117.1015625 630.197265625 192.196289062 630.197265625 293.669921875 c 2
 630.197265625 396.690429688 l 2
 630.197265625 498.18359375 605.169921875 573.301757812 556.376953125 623.404296875 c 0
 507.482421875 673.610351562 437.879882812 699.120117188 346.126953125 699.120117188 c 0
 253.68359375 699.120117188 183.375976562 673.599609375 133.80078125 623.3671875 c 0
 84.3466796875 573.2578125 58.9970703125 498.1640625 58.9970703125 396.690429688 c 2
 58.9970703125 293.669921875 l 2
 58.9970703125 192.176757812 84.0244140625 117.057617188 132.817382812 66.9560546875 c 0
 181.7109375 16.7490234375 251.314453125 -8.759765625 343.067382812 -8.759765625 c 0
553.697265625 292.651367188 m 2
 553.697265625 181.590820312 520.604492188 59.580078125 345.107421875 59.580078125 c 0
 182.651367188 59.580078125 136.516601562 161.854492188 136.516601562 292.650390625 c 2
 136.516601562 391.58984375 l 2
 136.516601562 521.236328125 178.319335938 630.780273438 345.107421875 630.780273438 c 0
 522.193359375 630.780273438 553.697265625 504.591796875 553.697265625 391.590820312 c 2
 553.697265625 292.651367188 l 2
374.334960938 893.94140625 m 1
 314.859375 893.94140625 l 1
 194.966796875 760.321289062 l 1
 256.104492188 760.321289062 l 1
 345.140625 855.716796875 l 1
 433.116210938 760.321289062 l 1
 494.2265625 760.321289062 l 1
 374.334960938 893.94140625 l 1
EndSplineSet
EndChar

StartChar: Otilde
Encoding: 213 213 151
Width: 697
GlyphClass: 2
Flags: MW
HStem: -8.75977 68.3398<297.191 389.289> 630.78 68.3398<299.905 392.003 299.905 433.65> 763.381 56.1006<400.077 424.843> 802.141 56.1006<266.564 283.801>
VStem: 58.9971 77.5195<292.65 293.67 293.67 391.59 391.59 396.69> 553.697 76.5<237.121 396.69 293.67 391.591>
LayerCount: 2
Fore
SplineSet
343.067382812 -8.759765625 m 0xcc
 435.510742188 -8.759765625 505.818359375 16.7607421875 555.392578125 66.9921875 c 0
 604.846679688 117.1015625 630.197265625 192.196289062 630.197265625 293.669921875 c 2
 630.197265625 396.690429688 l 2
 630.197265625 498.18359375 605.169921875 573.301757812 556.376953125 623.404296875 c 0
 507.482421875 673.610351562 437.879882812 699.120117188 346.126953125 699.120117188 c 0
 253.68359375 699.120117188 183.375976562 673.599609375 133.80078125 623.3671875 c 0
 84.3466796875 573.2578125 58.9970703125 498.1640625 58.9970703125 396.690429688 c 2
 58.9970703125 293.669921875 l 2
 58.9970703125 192.176757812 84.0244140625 117.057617188 132.817382812 66.9560546875 c 0
 181.7109375 16.7490234375 251.314453125 -8.759765625 343.067382812 -8.759765625 c 0xcc
553.697265625 292.651367188 m 2
 553.697265625 181.590820312 520.604492188 59.580078125 345.107421875 59.580078125 c 0
 182.651367188 59.580078125 136.516601562 161.854492188 136.516601562 292.650390625 c 2
 136.516601562 391.58984375 l 2
 136.516601562 521.236328125 178.319335938 630.780273438 345.107421875 630.780273438 c 0
 522.193359375 630.780273438 553.697265625 504.591796875 553.697265625 391.590820312 c 2
 553.697265625 292.651367188 l 2
486.373046875 848.686523438 m 1
 462.392578125 828.326171875 444.282226562 819.481445312 415.483398438 819.481445312 c 0xec
 358.556640625 819.481445312 337.263671875 858.241210938 278.802734375 858.241210938 c 0
 254.326171875 858.241210938 232.034179688 851.788085938 202.817382812 824.8359375 c 1
 202.817382812 772.50390625 l 1
 228.055664062 793.31640625 246.029296875 802.140625 273.70703125 802.140625 c 0xdc
 293.895507812 802.140625 304.030273438 799.333007812 340.219726562 783.046875 c 0
 374.405273438 765.953125 389.76953125 763.380859375 410.383789062 763.380859375 c 0xec
 439.301757812 763.380859375 464.350585938 773.891601562 486.373046875 795.6015625 c 1
 486.373046875 848.686523438 l 1
EndSplineSet
EndChar

StartChar: Odieresis
Encoding: 214 214 152
Width: 697
GlyphClass: 2
Flags: MW
HStem: -8.75977 68.3398<297.191 389.289> 630.78 68.3398<299.905 392.003 299.905 433.65>
VStem: 58.9971 77.5195<292.65 293.67 293.67 391.59 391.59 396.69> 553.697 76.5<237.121 396.69 293.67 391.591>
LayerCount: 2
Fore
SplineSet
343.067382812 -8.759765625 m 0
 435.510742188 -8.759765625 505.818359375 16.7607421875 555.392578125 66.9921875 c 0
 604.846679688 117.1015625 630.197265625 192.196289062 630.197265625 293.669921875 c 2
 630.197265625 396.690429688 l 2
 630.197265625 498.18359375 605.169921875 573.301757812 556.376953125 623.404296875 c 0
 507.482421875 673.610351562 437.879882812 699.120117188 346.126953125 699.120117188 c 0
 253.68359375 699.120117188 183.375976562 673.599609375 133.80078125 623.3671875 c 0
 84.3466796875 573.2578125 58.9970703125 498.1640625 58.9970703125 396.690429688 c 2
 58.9970703125 293.669921875 l 2
 58.9970703125 192.176757812 84.0244140625 117.057617188 132.817382812 66.9560546875 c 0
 181.7109375 16.7490234375 251.314453125 -8.759765625 343.067382812 -8.759765625 c 0
553.697265625 292.651367188 m 2
 553.697265625 181.590820312 520.604492188 59.580078125 345.107421875 59.580078125 c 0
 182.651367188 59.580078125 136.516601562 161.854492188 136.516601562 292.650390625 c 2
 136.516601562 391.58984375 l 2
 136.516601562 521.236328125 178.319335938 630.780273438 345.107421875 630.780273438 c 0
 522.193359375 630.780273438 553.697265625 504.591796875 553.697265625 391.590820312 c 2
 553.697265625 292.651367188 l 2
271.157226562 856.201171875 m 1
 199.756835938 856.201171875 l 1
 199.756835938 774.600585938 l 1
 271.157226562 774.600585938 l 1
 271.157226562 856.201171875 l 1
489.436523438 856.201171875 m 1
 419.056640625 856.201171875 l 1
 419.056640625 774.600585938 l 1
 489.436523438 774.600585938 l 1
 489.436523438 856.201171875 l 1
EndSplineSet
EndChar

StartChar: multiply
Encoding: 215 215 153
Width: 507
GlyphClass: 2
Flags: W
LayerCount: 2
Fore
SplineSet
82.5634765625 397.709960938 m 1
 204.94140625 275.33203125 l 1
 82.541015625 151.912109375 l 1
 126.827148438 107.626953125 l 1
 249.2265625 230.026367188 l 1
 371.626953125 107.626953125 l 1
 415.913085938 151.912109375 l 1
 293.512695312 275.33203125 l 1
 415.890625 397.709960938 l 1
 371.626953125 441.973632812 l 1
 249.2265625 319.573242188 l 1
 126.827148438 441.973632812 l 1
 82.5634765625 397.709960938 l 1
EndSplineSet
EndChar

StartChar: Oslash
Encoding: 216 216 154
Width: 697
GlyphClass: 2
Flags: MW
HStem: -8.75977 68.3398<317.75 389.288> 630.78 68.3398<299.905 371.799>
VStem: 58.9971 77.5186<292.65 293.67 293.67 391.59 391.59 396.69> 553.696 76.5<237.12 396.69 293.67 391.59>
LayerCount: 2
Fore
SplineSet
346.126953125 699.120117188 m 0
 253.68359375 699.120117188 183.375976562 673.599609375 133.80078125 623.3671875 c 0
 84.3466796875 573.2578125 58.9970703125 498.1640625 58.9970703125 396.690429688 c 2
 58.9970703125 293.669921875 l 2
 58.9970703125 149.9453125 110.607421875 91.1884765625 132.361328125 66.9482421875 c 1
 75.6689453125 -19.98046875 l 1
 130.872070312 -19.98046875 l 1
 168.393554688 36.837890625 l 1
 191.826171875 22.3642578125 242.217773438 -8.759765625 343.06640625 -8.759765625 c 0
 435.509765625 -8.759765625 505.817382812 16.7607421875 555.391601562 66.9921875 c 0
 604.845703125 117.1015625 630.196289062 192.196289062 630.196289062 293.669921875 c 2
 630.196289062 396.690429688 l 2
 630.196289062 542.640625 577.666015625 600.614257812 555.767578125 624.362304688 c 1
 612.504882812 711.360351562 l 1
 558.364257812 711.360351562 l 1
 520.828125 653.446289062 l 1
 497.549804688 668.0390625 447.967773438 699.120117188 346.126953125 699.120117188 c 0
136.515625 391.58984375 m 2
 136.515625 521.236328125 178.318359375 630.780273438 345.106445312 630.780273438 c 0
 398.4921875 630.780273438 441.647460938 619.71484375 473.971679688 596.728515625 c 2
 480.001953125 592.440429688 l 1
 175.454101562 131.387695312 l 1
 159.723632812 157.772460938 136.515625 196.702148438 136.515625 292.650390625 c 2
 136.515625 391.58984375 l 2
553.696289062 292.650390625 m 2
 553.696289062 181.588867188 520.602539062 59.580078125 345.106445312 59.580078125 c 0
 290.393554688 59.580078125 246.564453125 70.6171875 214.200195312 93.6318359375 c 2
 208.169921875 97.9189453125 l 1
 512.63671875 558.849609375 l 1
 528.879882812 532.270507812 553.696289062 491.662109375 553.696289062 391.58984375 c 2
 553.696289062 292.650390625 l 2
EndSplineSet
EndChar

StartChar: Ugrave
Encoding: 217 217 155
Width: 693
GlyphClass: 2
Flags: MW
HStem: -5.7002 66.2998<300.668 385.263>
VStem: 70.2168 77.5205<204.688 688.92 250.83 688.92 250.83 688.92> 536.357 77.5195<244.71 250.83 250.83 688.92>
LayerCount: 2
Fore
SplineSet
342.046875 60.599609375 m 0
 259.290039062 60.599609375 147.737304688 86.6416015625 147.737304688 250.830078125 c 2
 147.737304688 688.919921875 l 1
 70.216796875 688.919921875 l 1
 70.216796875 244.709960938 l 2
 70.216796875 164.666015625 94.2275390625 103.6484375 141.685546875 60.1181640625 c 0
 189.21484375 16.5224609375 255.616210938 -5.7001953125 342.046875 -5.7001953125 c 0
 428.478515625 -5.7001953125 494.87890625 16.5224609375 542.409179688 60.1181640625 c 0
 589.866210938 103.6484375 613.876953125 164.666015625 613.876953125 244.709960938 c 2
 613.876953125 688.919921875 l 1
 536.357421875 688.919921875 l 1
 536.357421875 250.830078125 l 2
 536.357421875 146.420898438 491.0390625 60.599609375 342.046875 60.599609375 c 0
292.657226562 880.6796875 m 1
 205.584960938 880.6796875 l 1
 330.750976562 765.419921875 l 1
 392.609375 765.419921875 l 1
 292.657226562 880.6796875 l 1
EndSplineSet
EndChar

StartChar: Uacute
Encoding: 218 218 156
Width: 693
GlyphClass: 2
Flags: MW
HStem: -5.7002 66.2998<300.668 385.263>
VStem: 70.2168 77.5205<204.688 688.92 250.83 688.92 250.83 688.92> 536.357 77.5195<244.71 250.83 250.83 688.92>
LayerCount: 2
Fore
SplineSet
342.046875 60.599609375 m 0
 259.290039062 60.599609375 147.737304688 86.6416015625 147.737304688 250.830078125 c 2
 147.737304688 688.919921875 l 1
 70.216796875 688.919921875 l 1
 70.216796875 244.709960938 l 2
 70.216796875 164.666015625 94.2275390625 103.6484375 141.685546875 60.1181640625 c 0
 189.21484375 16.5224609375 255.616210938 -5.7001953125 342.046875 -5.7001953125 c 0
 428.478515625 -5.7001953125 494.87890625 16.5224609375 542.409179688 60.1181640625 c 0
 589.866210938 103.6484375 613.876953125 164.666015625 613.876953125 244.709960938 c 2
 613.876953125 688.919921875 l 1
 536.357421875 688.919921875 l 1
 536.357421875 250.830078125 l 2
 536.357421875 146.420898438 491.0390625 60.599609375 342.046875 60.599609375 c 0
465.248046875 880.6796875 m 1
 379.176757812 880.6796875 l 1
 278.32421875 765.419921875 l 1
 340.083007812 765.419921875 l 1
 465.248046875 880.6796875 l 1
EndSplineSet
EndChar

StartChar: Ucircumflex
Encoding: 219 219 157
Width: 693
GlyphClass: 2
Flags: MW
HStem: -5.7002 66.2998<300.668 385.263>
VStem: 70.2168 77.5205<204.688 688.92 250.83 688.92 250.83 688.92> 536.357 77.5195<244.71 250.83 250.83 688.92>
LayerCount: 2
Fore
SplineSet
342.046875 60.599609375 m 0
 259.290039062 60.599609375 147.737304688 86.6416015625 147.737304688 250.830078125 c 2
 147.737304688 688.919921875 l 1
 70.216796875 688.919921875 l 1
 70.216796875 244.709960938 l 2
 70.216796875 164.666015625 94.2275390625 103.6484375 141.685546875 60.1181640625 c 0
 189.21484375 16.5224609375 255.616210938 -5.7001953125 342.046875 -5.7001953125 c 0
 428.478515625 -5.7001953125 494.87890625 16.5224609375 542.409179688 60.1181640625 c 0
 589.866210938 103.6484375 613.876953125 164.666015625 613.876953125 244.709960938 c 2
 613.876953125 688.919921875 l 1
 536.357421875 688.919921875 l 1
 536.357421875 250.830078125 l 2
 536.357421875 146.420898438 491.0390625 60.599609375 342.046875 60.599609375 c 0
371.274414062 893.940429688 m 1
 311.798828125 893.940429688 l 1
 191.907226562 760.3203125 l 1
 253.044921875 760.3203125 l 1
 342.080078125 855.715820312 l 1
 430.056640625 760.3203125 l 1
 491.166992188 760.3203125 l 1
 371.274414062 893.940429688 l 1
EndSplineSet
EndChar

StartChar: Udieresis
Encoding: 220 220 158
Width: 693
GlyphClass: 2
Flags: MW
HStem: -5.7002 66.2998<300.668 385.263>
VStem: 70.2168 77.5205<204.688 688.92 250.83 688.92 250.83 688.92> 536.357 77.5195<244.71 250.83 250.83 688.92>
LayerCount: 2
Fore
SplineSet
342.046875 60.599609375 m 0
 259.290039062 60.599609375 147.737304688 86.6416015625 147.737304688 250.830078125 c 2
 147.737304688 688.919921875 l 1
 70.216796875 688.919921875 l 1
 70.216796875 244.709960938 l 2
 70.216796875 164.666015625 94.2275390625 103.6484375 141.685546875 60.1181640625 c 0
 189.21484375 16.5224609375 255.616210938 -5.7001953125 342.046875 -5.7001953125 c 0
 428.478515625 -5.7001953125 494.87890625 16.5224609375 542.409179688 60.1181640625 c 0
 589.866210938 103.6484375 613.876953125 164.666015625 613.876953125 244.709960938 c 2
 613.876953125 688.919921875 l 1
 536.357421875 688.919921875 l 1
 536.357421875 250.830078125 l 2
 536.357421875 146.420898438 491.0390625 60.599609375 342.046875 60.599609375 c 0
268.096679688 856.200195312 m 1
 196.697265625 856.200195312 l 1
 196.697265625 774.599609375 l 1
 268.096679688 774.599609375 l 1
 268.096679688 856.200195312 l 1
486.376953125 856.200195312 m 1
 415.997070312 856.200195312 l 1
 415.997070312 774.599609375 l 1
 486.376953125 774.599609375 l 1
 486.376953125 856.200195312 l 1
EndSplineSet
EndChar

StartChar: Yacute
Encoding: 221 221 159
Width: 579
GlyphClass: 2
Flags: W
LayerCount: 2
Fore
SplineSet
323.176757812 278.388671875 m 1
 561.325195312 688.919921875 l 1
 475.12890625 688.919921875 l 1
 285.984375 338.844726562 l 1
 94.748046875 688.919921875 l 1
 8.544921875 688.919921875 l 1
 246.676757812 279.413085938 l 1
 246.676757812 0.419921875 l 1
 323.176757812 0.419921875 l 1
 323.176757812 278.388671875 l 1
408.12890625 880.6796875 m 1
 322.056640625 880.6796875 l 1
 221.204101562 765.419921875 l 1
 282.962890625 765.419921875 l 1
 408.12890625 880.6796875 l 1
EndSplineSet
EndChar

StartChar: Thorn
Encoding: 222 222 160
Width: 637
GlyphClass: 2
Flags: MW
HStem: 158.52 67.3203<147.736 365.506 365.506 367.545 147.735 400.401> 497.16 67.3203<147.736 362.445 362.445 365.506 147.736 416.2>
VStem: 523.095 76.5<311.339 394.912 266.253 408.674>
LayerCount: 2
Fore
SplineSet
365.505859375 158.51953125 m 2
 435.295898438 158.51953125 599.594726562 171.515625 599.594726562 360.990234375 c 0
 599.594726562 428.833984375 579.479492188 478.836914062 540.041015625 512.780273438 c 0
 500.444335938 546.858398438 442.604492188 564.48046875 365.505859375 564.48046875 c 2
 147.736328125 564.48046875 l 1
 147.736328125 688.919921875 l 1
 70.2158203125 688.919921875 l 1
 70.2158203125 0.419921875 l 1
 147.736328125 0.419921875 l 1
 147.736328125 158.51953125 l 1
 365.505859375 158.51953125 l 2
523.094726562 359.969726562 m 0
 523.094726562 262.708007812 465.06640625 225.83984375 367.544921875 225.83984375 c 2
 147.735351562 225.83984375 l 1
 147.735351562 497.16015625 l 1
 362.4453125 497.16015625 l 2
 469.954101562 497.16015625 523.094726562 457.377929688 523.094726562 359.969726562 c 0
EndSplineSet
EndChar

StartChar: germandbls
Encoding: 223 223 161
Width: 559
GlyphClass: 2
Flags: MW
HStem: -3.66016 61.1992<299.292 308.387 308.387 353.74 299.292 361.391> 390.06 61.2002<278.298 296.148 296.148 302.268 278.298 349.71> 634.859 62.2207<232.635 316.07 217.142 321.03>
VStem: 65.1172 71.3994<0.419922 495.63 0.419922 504.81> 419.058 71.3994<530.147 569.454 530.147 579.594> 428.237 71.3994<195.663 255.688 195.663 282.778>
LayerCount: 2
Fore
SplineSet
419.057617188 541.530273438 m 0xf8
 419.057617188 464.879882812 361.58984375 451.259765625 302.267578125 451.259765625 c 2
 278.297851562 451.259765625 l 1
 278.297851562 390.059570312 l 1
 296.1484375 390.059570312 l 2
 403.271484375 390.059570312 428.237304688 343.286132812 428.237304688 222.26953125 c 0
 428.237304688 102.543945312 404.193359375 57.5390625 303.287109375 57.5390625 c 0
 295.296875 57.5390625 287.306640625 57.5400390625 279.317382812 57.5400390625 c 1
 279.317382812 -3.66015625 l 1
 308.38671875 -3.66015625 l 2
 414.39453125 -3.66015625 461.14453125 28.0087890625 482.221679688 87.6279296875 c 0
 493.662109375 119.985351562 499.63671875 165.995117188 499.63671875 225.330078125 c 0xf4
 499.63671875 286.046875 493.583984375 330.50390625 482.34765625 358.111328125 c 0
 471.247070312 385.385742188 451.147460938 404.859375 420.784179688 417.134765625 c 2
 404.34375 423.78125 l 1
 433.915039062 437.3671875 456.131835938 447.57421875 473.274414062 474.716796875 c 0
 484.544921875 492.5625 490.45703125 515.705078125 490.45703125 544.58984375 c 0
 490.45703125 594.317382812 472.817382812 631.233398438 437.477539062 657.255859375 c 0
 401.935546875 683.427734375 350.2734375 697.080078125 281.8671875 697.080078125 c 0
 152.416015625 697.080078125 65.1171875 649.764648438 65.1171875 495.629882812 c 2
 65.1171875 0.419921875 l 1
 136.516601562 0.419921875 l 1
 136.516601562 504.809570312 l 2
 136.516601562 596.02734375 180.342773438 634.859375 284.927734375 634.859375 c 0
 357.131835938 634.859375 419.057617188 617.657226562 419.057617188 541.530273438 c 0xf8
EndSplineSet
EndChar

StartChar: agrave
Encoding: 224 224 162
Width: 548
GlyphClass: 2
Flags: MW
HStem: -5.7002 55.0801<214.529 263.846> 238.081 49.9785<246.165 401.715 401.715 401.715> 457.38 57.1201<223.932 280.304>
VStem: 39.6162 70.3799<122.295 186.181 102.711 210.608> 57.0127 69.4004<368.64 368.64> 401.715 71.4014<132.003 189.631 189.631 238.081>
LayerCount: 2
Fore
SplineSet
39.6162109375 143.73046875 m 0xf4
 39.6162109375 100.859375 49.73046875 -5.7001953125 225.765625 -5.7001953125 c 0
 301.92578125 -5.7001953125 356.064453125 15.5693359375 390.211914062 56.8046875 c 2
 403.755859375 73.16015625 l 1
 403.755859375 0.419921875 l 1
 473.116210938 0.419921875 l 1
 473.116210938 333.450195312 l 2
 473.116210938 393.009765625 454.4765625 437.202148438 417.734375 467.821289062 c 0
 380.856445312 498.552734375 327.037109375 514.5 255.346679688 514.5 c 0
 192.516601562 514.5 144 500.6171875 109.04296875 473.750976562 c 0
 75.34375 447.852539062 58.109375 413.318359375 57.0126953125 368.639648438 c 1
 126.413085938 368.639648438 l 1xec
 127.795898438 401.1953125 146.146484375 457.379882812 256.366210938 457.379882812 c 0
 304.241210938 457.379882812 401.715820312 448.045898438 401.715820312 331.41015625 c 2
 401.715820312 288.059570312 l 1
 231.885742188 288.059570312 l 2
 172.129882812 288.059570312 39.6162109375 277.486328125 39.6162109375 143.73046875 c 0xf4
401.71484375 189.630859375 m 2
 401.71484375 74.375 323.609375 49.3798828125 243.106445312 49.3798828125 c 0
 185.952148438 49.3798828125 109.99609375 60.6728515625 109.99609375 144.75 c 0xf4
 109.99609375 227.611328125 188.018554688 238.081054688 246.165039062 238.081054688 c 2
 401.71484375 238.081054688 l 1
 401.71484375 189.630859375 l 2
209.014648438 699.12109375 m 1
 121.943359375 699.12109375 l 1
 247.108398438 583.861328125 l 1
 308.966796875 583.861328125 l 1
 209.014648438 699.12109375 l 1
EndSplineSet
EndChar

StartChar: aacute
Encoding: 225 225 163
Width: 548
GlyphClass: 2
Flags: MW
HStem: -5.7002 55.0801<214.529 263.846> 238.081 49.9785<246.165 401.715 401.715 401.715> 457.38 57.1201<223.932 280.304>
VStem: 39.6162 70.3799<122.295 186.181 102.711 210.608> 57.0127 69.4004<368.64 368.64> 401.715 71.4014<132.003 189.631 189.631 238.081>
LayerCount: 2
Fore
SplineSet
39.6162109375 143.73046875 m 0xf4
 39.6162109375 100.859375 49.73046875 -5.7001953125 225.765625 -5.7001953125 c 0
 301.92578125 -5.7001953125 356.064453125 15.5693359375 390.211914062 56.8046875 c 2
 403.755859375 73.16015625 l 1
 403.755859375 0.419921875 l 1
 473.116210938 0.419921875 l 1
 473.116210938 333.450195312 l 2
 473.116210938 393.009765625 454.4765625 437.202148438 417.734375 467.821289062 c 0
 380.856445312 498.552734375 327.037109375 514.5 255.346679688 514.5 c 0
 192.516601562 514.5 144 500.6171875 109.04296875 473.750976562 c 0
 75.34375 447.852539062 58.109375 413.318359375 57.0126953125 368.639648438 c 1
 126.413085938 368.639648438 l 1xec
 127.795898438 401.1953125 146.146484375 457.379882812 256.366210938 457.379882812 c 0
 304.241210938 457.379882812 401.715820312 448.045898438 401.715820312 331.41015625 c 2
 401.715820312 288.059570312 l 1
 231.885742188 288.059570312 l 2
 172.129882812 288.059570312 39.6162109375 277.486328125 39.6162109375 143.73046875 c 0xf4
401.71484375 189.630859375 m 2
 401.71484375 74.375 323.609375 49.3798828125 243.106445312 49.3798828125 c 0
 185.952148438 49.3798828125 109.99609375 60.6728515625 109.99609375 144.75 c 0xf4
 109.99609375 227.611328125 188.018554688 238.081054688 246.165039062 238.081054688 c 2
 401.71484375 238.081054688 l 1
 401.71484375 189.630859375 l 2
376.506835938 699.12109375 m 1
 290.434570312 699.12109375 l 1
 189.58203125 583.861328125 l 1
 251.341796875 583.861328125 l 1
 376.506835938 699.12109375 l 1
EndSplineSet
EndChar

StartChar: acircumflex
Encoding: 226 226 164
Width: 548
GlyphClass: 2
Flags: MW
HStem: -5.7002 55.0801<214.529 263.846> 238.081 49.9785<246.165 401.715 401.715 401.715> 457.38 57.1201<223.932 280.304>
VStem: 39.6162 70.3799<122.295 186.181 102.711 210.608> 57.0127 69.4004<368.64 368.64> 401.715 71.4014<132.003 189.631 189.631 238.081>
LayerCount: 2
Fore
SplineSet
39.6162109375 143.73046875 m 0xf4
 39.6162109375 100.859375 49.73046875 -5.7001953125 225.765625 -5.7001953125 c 0
 301.92578125 -5.7001953125 356.064453125 15.5693359375 390.211914062 56.8046875 c 2
 403.755859375 73.16015625 l 1
 403.755859375 0.419921875 l 1
 473.116210938 0.419921875 l 1
 473.116210938 333.450195312 l 2
 473.116210938 393.009765625 454.4765625 437.202148438 417.734375 467.821289062 c 0
 380.856445312 498.552734375 327.037109375 514.5 255.346679688 514.5 c 0
 192.516601562 514.5 144 500.6171875 109.04296875 473.750976562 c 0
 75.34375 447.852539062 58.109375 413.318359375 57.0126953125 368.639648438 c 1
 126.413085938 368.639648438 l 1xec
 127.795898438 401.1953125 146.146484375 457.379882812 256.366210938 457.379882812 c 0
 304.241210938 457.379882812 401.715820312 448.045898438 401.715820312 331.41015625 c 2
 401.715820312 288.059570312 l 1
 231.885742188 288.059570312 l 2
 172.129882812 288.059570312 39.6162109375 277.486328125 39.6162109375 143.73046875 c 0xf4
401.71484375 189.630859375 m 2
 401.71484375 74.375 323.609375 49.3798828125 243.106445312 49.3798828125 c 0
 185.952148438 49.3798828125 109.99609375 60.6728515625 109.99609375 144.75 c 0xf4
 109.99609375 227.611328125 188.018554688 238.081054688 246.165039062 238.081054688 c 2
 401.71484375 238.081054688 l 1
 401.71484375 189.630859375 l 2
287.6328125 712.380859375 m 1
 228.157226562 712.380859375 l 1
 108.264648438 578.760742188 l 1
 169.40234375 578.760742188 l 1
 258.438476562 674.15625 l 1
 346.4140625 578.760742188 l 1
 407.524414062 578.760742188 l 1
 287.6328125 712.380859375 l 1
EndSplineSet
EndChar

StartChar: atilde
Encoding: 227 227 165
Width: 548
GlyphClass: 2
Flags: MW
HStem: -5.7002 55.0801<214.529 263.846> 238.081 49.9785<246.165 401.715 401.715 401.715> 457.38 57.1201<223.932 280.304> 581.821 56.0996<313.376 338.143> 620.581 56.0996<179.903 197.099>
VStem: 39.6162 70.3799<122.295 186.181 102.711 210.608> 57.0127 69.4004<368.64 368.64> 401.715 71.4014<132.003 189.631 189.631 238.081>
LayerCount: 2
Fore
SplineSet
39.6162109375 143.73046875 m 0xe5
 39.6162109375 100.859375 49.73046875 -5.7001953125 225.765625 -5.7001953125 c 0
 301.92578125 -5.7001953125 356.064453125 15.5693359375 390.211914062 56.8046875 c 2
 403.755859375 73.16015625 l 1
 403.755859375 0.419921875 l 1
 473.116210938 0.419921875 l 1
 473.116210938 333.450195312 l 2
 473.116210938 393.009765625 454.4765625 437.202148438 417.734375 467.821289062 c 0
 380.856445312 498.552734375 327.037109375 514.5 255.346679688 514.5 c 0
 192.516601562 514.5 144 500.6171875 109.04296875 473.750976562 c 0
 75.34375 447.852539062 58.109375 413.318359375 57.0126953125 368.639648438 c 1
 126.413085938 368.639648438 l 1xe3
 127.795898438 401.1953125 146.146484375 457.379882812 256.366210938 457.379882812 c 0
 304.241210938 457.379882812 401.715820312 448.045898438 401.715820312 331.41015625 c 2
 401.715820312 288.059570312 l 1
 231.885742188 288.059570312 l 2
 172.129882812 288.059570312 39.6162109375 277.486328125 39.6162109375 143.73046875 c 0xe5
401.71484375 189.630859375 m 2
 401.71484375 74.375 323.609375 49.3798828125 243.106445312 49.3798828125 c 0
 185.952148438 49.3798828125 109.99609375 60.6728515625 109.99609375 144.75 c 0xe5
 109.99609375 227.611328125 188.018554688 238.081054688 246.165039062 238.081054688 c 2
 401.71484375 238.081054688 l 1
 401.71484375 189.630859375 l 2
399.672851562 667.126953125 m 1
 375.692382812 646.765625 357.58203125 637.920898438 328.783203125 637.920898438 c 0xf1
 271.848632812 637.920898438 250.571289062 676.680664062 192.104492188 676.680664062 c 0
 167.702148438 676.680664062 145.38671875 670.27734375 116.115234375 643.276367188 c 1
 116.115234375 590.943359375 l 1
 141.353515625 611.756835938 159.327148438 620.581054688 187.004882812 620.581054688 c 0xe9
 207.193359375 620.581054688 217.325195312 617.774414062 253.51953125 601.487304688 c 0
 287.705078125 584.393554688 303.069335938 581.821289062 323.68359375 581.821289062 c 0xf1
 352.602539062 581.821289062 377.650390625 592.33203125 399.672851562 614.041015625 c 1
 399.672851562 667.126953125 l 1
EndSplineSet
EndChar

StartChar: adieresis
Encoding: 228 228 166
Width: 548
GlyphClass: 2
Flags: MW
HStem: -5.7002 55.0801<214.529 263.846> 238.081 49.9785<246.165 401.715 401.715 401.715> 457.38 57.1201<223.932 280.304>
VStem: 39.6162 70.3799<122.295 186.181 102.711 210.608> 57.0127 69.4004<368.64 368.64> 401.715 71.4014<132.003 189.631 189.631 238.081>
LayerCount: 2
Fore
SplineSet
39.6162109375 143.73046875 m 0xf4
 39.6162109375 100.859375 49.73046875 -5.7001953125 225.765625 -5.7001953125 c 0
 301.92578125 -5.7001953125 356.064453125 15.5693359375 390.211914062 56.8046875 c 2
 403.755859375 73.16015625 l 1
 403.755859375 0.419921875 l 1
 473.116210938 0.419921875 l 1
 473.116210938 333.450195312 l 2
 473.116210938 393.009765625 454.4765625 437.202148438 417.734375 467.821289062 c 0
 380.856445312 498.552734375 327.037109375 514.5 255.346679688 514.5 c 0
 192.516601562 514.5 144 500.6171875 109.04296875 473.750976562 c 0
 75.34375 447.852539062 58.109375 413.318359375 57.0126953125 368.639648438 c 1
 126.413085938 368.639648438 l 1xec
 127.795898438 401.1953125 146.146484375 457.379882812 256.366210938 457.379882812 c 0
 304.241210938 457.379882812 401.715820312 448.045898438 401.715820312 331.41015625 c 2
 401.715820312 288.059570312 l 1
 231.885742188 288.059570312 l 2
 172.129882812 288.059570312 39.6162109375 277.486328125 39.6162109375 143.73046875 c 0xf4
401.71484375 189.630859375 m 2
 401.71484375 74.375 323.609375 49.3798828125 243.106445312 49.3798828125 c 0
 185.952148438 49.3798828125 109.99609375 60.6728515625 109.99609375 144.75 c 0xf4
 109.99609375 227.611328125 188.018554688 238.081054688 246.165039062 238.081054688 c 2
 401.71484375 238.081054688 l 1
 401.71484375 189.630859375 l 2
184.455078125 674.640625 m 1
 113.0546875 674.640625 l 1
 113.0546875 593.041015625 l 1
 184.455078125 593.041015625 l 1
 184.455078125 674.640625 l 1
402.735351562 674.640625 m 1
 332.354492188 674.640625 l 1
 332.354492188 593.041015625 l 1
 402.735351562 593.041015625 l 1
 402.735351562 674.640625 l 1
EndSplineSet
EndChar

StartChar: aring
Encoding: 229 229 167
Width: 548
GlyphClass: 2
Flags: MW
HStem: -5.7002 55.0801<214.529 263.846> 238.081 49.9785<246.165 401.715 401.715 401.715> 457.38 57.1201<223.932 280.304> 573.661 27.54<245.323 271.468> 722.581 28.5596<245.342 271.102 245.342 275.346>
VStem: 39.6162 70.3799<122.295 186.181 102.711 210.608> 57.0127 69.4004<368.64 368.64> 170.175 29.5801<648.809 674.972> 317.055 29.5801<649.175 674.953 649.175 679.935> 401.715 71.4014<132.003 189.631 189.631 238.081>
LayerCount: 2
Fore
SplineSet
39.6162109375 143.73046875 m 0xfdc0
 39.6162109375 100.859375 49.73046875 -5.7001953125 225.765625 -5.7001953125 c 0
 301.92578125 -5.7001953125 356.064453125 15.5693359375 390.211914062 56.8046875 c 2
 403.755859375 73.16015625 l 1
 403.755859375 0.419921875 l 1
 473.116210938 0.419921875 l 1
 473.116210938 333.450195312 l 2
 473.116210938 393.009765625 454.4765625 437.202148438 417.734375 467.821289062 c 0
 380.856445312 498.552734375 327.037109375 514.5 255.346679688 514.5 c 0
 192.516601562 514.5 144 500.6171875 109.04296875 473.750976562 c 0
 75.34375 447.852539062 58.109375 413.318359375 57.0126953125 368.639648438 c 1
 126.413085938 368.639648438 l 1xfbc0
 127.795898438 401.1953125 146.146484375 457.379882812 256.366210938 457.379882812 c 0
 304.241210938 457.379882812 401.715820312 448.045898438 401.715820312 331.41015625 c 2
 401.715820312 288.059570312 l 1
 231.885742188 288.059570312 l 2
 172.129882812 288.059570312 39.6162109375 277.486328125 39.6162109375 143.73046875 c 0xfdc0
401.71484375 189.630859375 m 2
 401.71484375 74.375 323.609375 49.3798828125 243.106445312 49.3798828125 c 0
 185.952148438 49.3798828125 109.99609375 60.6728515625 109.99609375 144.75 c 0xfdc0
 109.99609375 227.611328125 188.018554688 238.081054688 246.165039062 238.081054688 c 2
 401.71484375 238.081054688 l 1
 401.71484375 189.630859375 l 2
258.405273438 573.661132812 m 0
 284.53125 573.661132812 305.26171875 582.0625 321.795898438 598.908203125 c 0
 338.40234375 615.827148438 346.634765625 636.458984375 346.634765625 661.890625 c 0
 346.634765625 688.015625 338.228515625 708.951171875 321.336914062 725.842773438 c 0
 304.40625 742.7734375 283.797851562 751.140625 258.405273438 751.140625 c 0
 232.278320312 751.140625 211.547851562 742.739257812 195.013671875 725.893554688 c 0
 178.446289062 709.013671875 170.174804688 688.053710938 170.174804688 661.890625 c 0
 170.174804688 635.7265625 178.44140625 614.970703125 194.962890625 598.44921875 c 0
 211.485351562 581.927734375 232.240234375 573.661132812 258.405273438 573.661132812 c 0
317.0546875 661.890625 m 0
 317.0546875 628.598632812 293.69921875 601.201171875 258.405273438 601.201171875 c 0
 223.108398438 601.201171875 199.754882812 628.599609375 199.754882812 661.890625 c 0
 199.754882812 697.979492188 224.524414062 722.581054688 258.405273438 722.581054688 c 0
 292.286132812 722.581054688 317.0546875 697.978515625 317.0546875 661.890625 c 0
EndSplineSet
EndChar

StartChar: ae
Encoding: 230 230 168
Width: 906
GlyphClass: 2
Flags: MW
HStem: -8.75879 60.1797<594.032 659.161 594.032 660.174> 240.12 49.9805<473.117 776.056 472.697 847.457> 456.361 61.1982<602.793 659.928 598.059 662.021>
VStem: 39.6162 70.3799<120.567 185.461 106.944 211.628> 57.0127 69.4004<368.64 368.64> 401.717 71.4004<165.171 240.12 228.391 240.12 228.391 240.122> 776.056 71.4014<290.101 292.65 292.65 305.911 290.101 290.101>
LayerCount: 2
Fore
SplineSet
638.8671875 51.4208984375 m 0xf6
 549.196289062 51.4208984375 473.1171875 91.69921875 473.1171875 228.390625 c 2
 473.1171875 240.120117188 l 1
 847.45703125 240.120117188 l 1
 847.45703125 292.650390625 l 2
 847.45703125 366.788085938 827.501953125 422.103515625 788.568359375 460.063476562 c 0
 749.498046875 498.15625 695.268554688 517.559570312 624.586914062 517.559570312 c 0
 571.530273438 517.559570312 500.09765625 504.5859375 452.046875 444.936523438 c 2
 446.0234375 437.458984375 l 1
 440.077148438 444.998046875 l 2
 403.979492188 490.765625 343.168945312 514.5 255.346679688 514.5 c 0
 192.516601562 514.5 144 500.6171875 109.04296875 473.750976562 c 0
 75.34375 447.852539062 58.109375 413.318359375 57.0126953125 368.639648438 c 1
 126.413085938 368.639648438 l 1xee
 127.795898438 401.1953125 146.146484375 457.379882812 256.366210938 457.379882812 c 0
 304.241210938 457.379882812 401.715820312 448.045898438 401.715820312 331.41015625 c 2
 401.715820312 289.080078125 l 1
 231.885742188 289.080078125 l 2
 172.129882812 289.080078125 39.6162109375 278.506835938 39.6162109375 144.75 c 0
 39.6162109375 96.3837890625 56.7646484375 59.90234375 91.1826171875 33.5263671875 c 0
 125.752929688 7.0341796875 174.788085938 -6.71875 239.026367188 -6.71875 c 0
 331.375 -6.71875 395.40625 21.177734375 433.701171875 75.701171875 c 2
 439.884765625 84.50390625 l 1
 462.16015625 53.60546875 507.120117188 -8.7587890625 638.866210938 -8.7587890625 c 0
 681.482421875 -8.7587890625 718.056640625 -1.267578125 748.790039062 13.4453125 c 0
 779.676757812 28.2314453125 802.916992188 48.1767578125 819.081054688 73.3916015625 c 0
 834.674804688 97.7177734375 843.046875 124.275390625 844.280273438 153.420898438 c 1
 773.740234375 153.420898438 l 1
 771.369140625 124.100585938 758.672851562 99.509765625 736.060546875 80.724609375 c 0
 712.162109375 60.869140625 679.455078125 51.4208984375 638.8671875 51.4208984375 c 0xf6
625.606445312 456.361328125 m 0
 698.436523438 456.361328125 776.055664062 427.775390625 776.055664062 305.911132812 c 2
 776.055664062 290.100585938 l 1
 472.697265625 290.100585938 l 1
 474.216796875 318.59375 477.36328125 377.583984375 516.668945312 416.889648438 c 0
 543.216796875 443.438476562 579.979492188 456.361328125 625.606445312 456.361328125 c 0
401.716796875 191.671875 m 2
 401.716796875 138.669921875 384.440429688 49.380859375 248.206054688 49.380859375 c 0
 180.329101562 49.380859375 109.99609375 68.1162109375 109.99609375 145.772460938 c 0xf6
 109.99609375 225.150390625 179.848632812 240.122070312 246.166992188 240.122070312 c 2
 401.716796875 240.122070312 l 1
 401.716796875 191.671875 l 2
EndSplineSet
EndChar

StartChar: ccedilla
Encoding: 231 231 169
Width: 552
GlyphClass: 2
Flags: MW
HStem: 455.341 62.2188<244.157 303.848>
VStem: 49.8184 71.3994<191.268 278.371 230.431 278.371 278.371 280.41> 423.098 69.375<167.701 167.701>
LayerCount: 2
Fore
SplineSet
423.09765625 167.701171875 m 1
 421.708984375 106.34765625 382.12890625 52.44140625 281.868164062 52.44140625 c 0
 195.063476562 52.44140625 121.217773438 92.8671875 121.217773438 230.430664062 c 2
 121.217773438 278.37109375 l 2
 121.217773438 345.131835938 137.897460938 455.340820312 281.868164062 455.340820312 c 0
 325.827148438 455.340820312 360.790039062 445.237304688 385.767578125 423.93359375 c 0
 410.204101562 403.091796875 422.5625 373.948242188 423.118164062 338.040039062 c 1
 492.484375 338.040039062 l 1
 491.94140625 394.2265625 473.368164062 437.35546875 436.995117188 468.942382812 c 0
 400.014648438 501.056640625 348.309570312 517.559570312 280.846679688 517.559570312 c 0
 207.466796875 517.559570312 151.2265625 497.15625 110.793945312 457.049804688 c 0
 70.484375 417.065429688 49.818359375 358.661132812 49.818359375 280.41015625 c 2
 49.818359375 228.389648438 l 2
 49.818359375 154.146484375 68.34375 97.765625 104.4375 58.095703125 c 0
 140.612304688 18.3349609375 191.309570312 -3.76171875 257.852539062 -7.75390625 c 2
 269.552734375 -8.4560546875 l 1
 194.440429688 -154.620117188 l 1
 264.64453125 -154.620117188 l 1
 330.616210938 -5.4228515625 l 1
 354.7265625 -1.6162109375 410.100585938 7.638671875 451.095703125 53.4580078125 c 0
 477.932617188 83.4521484375 491.799804688 121.220703125 492.47265625 167.701171875 c 1
 423.09765625 167.701171875 l 1
EndSplineSet
EndChar

StartChar: egrave
Encoding: 232 232 170
Width: 556
GlyphClass: 2
Flags: MW
HStem: -8.75977 60.1797<247.555 306.234> 456.36 61.1992<250.892 305.526>
VStem: 49.8174 71.3984<228.39 233.49 233.49 240.12 228.39 275.31> 424.155 71.4014<290.1 293.67 293.67 306.93 290.1 290.1>
LayerCount: 2
Fore
SplineSet
286.965820312 51.419921875 m 0
 197.294921875 51.419921875 121.215820312 91.6982421875 121.215820312 228.389648438 c 2
 121.215820312 240.120117188 l 1
 495.556640625 240.120117188 l 1
 495.556640625 293.669921875 l 2
 495.556640625 367.109375 475.6171875 422.087890625 436.66796875 460.063476562 c 0
 397.583007812 498.171875 343.689453125 517.559570312 273.70703125 517.559570312 c 0
 202.471679688 517.559570312 148.034179688 496.576171875 108.927734375 455.188476562 c 0
 69.8564453125 413.838867188 49.8173828125 354.296875 49.8173828125 275.309570312 c 2
 49.8173828125 233.490234375 l 2
 49.8173828125 153.180664062 70.83984375 93.4189453125 111.813476562 52.76953125 c 0
 152.922851562 11.9873046875 210.182617188 -8.759765625 284.926757812 -8.759765625 c 0
 327.541992188 -8.759765625 364.295898438 -1.2705078125 395.388671875 13.4580078125 c 0
 430.266601562 29.978515625 488.9296875 70.02734375 492.3828125 153.419921875 c 1
 421.926757812 153.419921875 l 1
 420.151367188 124.711914062 407.735351562 100.318359375 385.233398438 81.2783203125 c 0
 361.307617188 61.0341796875 328.227539062 51.419921875 286.965820312 51.419921875 c 0
273.705078125 456.360351562 m 0
 337.34765625 456.360351562 424.155273438 433.213867188 424.155273438 306.9296875 c 2
 424.155273438 290.099609375 l 1
 120.795898438 290.099609375 l 1
 122.315429688 318.592773438 125.461914062 377.583007812 164.767578125 416.888671875 c 0
 191.31640625 443.4375 228.079101562 456.360351562 273.705078125 456.360351562 c 0
224.314453125 699.120117188 m 1
 137.243164062 699.120117188 l 1
 262.408203125 583.860351562 l 1
 324.266601562 583.860351562 l 1
 224.314453125 699.120117188 l 1
EndSplineSet
EndChar

StartChar: eacute
Encoding: 233 233 171
Width: 556
GlyphClass: 2
Flags: MW
HStem: -8.75977 60.1797<247.555 306.234> 456.36 61.1992<250.892 305.526>
VStem: 49.8174 71.3984<228.39 233.49 233.49 240.12 228.39 275.31> 424.155 71.4014<290.1 293.67 293.67 306.93 290.1 290.1>
LayerCount: 2
Fore
SplineSet
286.965820312 51.419921875 m 0
 197.294921875 51.419921875 121.215820312 91.6982421875 121.215820312 228.389648438 c 2
 121.215820312 240.120117188 l 1
 495.556640625 240.120117188 l 1
 495.556640625 293.669921875 l 2
 495.556640625 367.109375 475.6171875 422.087890625 436.66796875 460.063476562 c 0
 397.583007812 498.171875 343.689453125 517.559570312 273.70703125 517.559570312 c 0
 202.471679688 517.559570312 148.034179688 496.576171875 108.927734375 455.188476562 c 0
 69.8564453125 413.838867188 49.8173828125 354.296875 49.8173828125 275.309570312 c 2
 49.8173828125 233.490234375 l 2
 49.8173828125 153.180664062 70.83984375 93.4189453125 111.813476562 52.76953125 c 0
 152.922851562 11.9873046875 210.182617188 -8.759765625 284.926757812 -8.759765625 c 0
 327.541992188 -8.759765625 364.295898438 -1.2705078125 395.388671875 13.4580078125 c 0
 430.266601562 29.978515625 488.9296875 70.02734375 492.3828125 153.419921875 c 1
 421.926757812 153.419921875 l 1
 420.151367188 124.711914062 407.735351562 100.318359375 385.233398438 81.2783203125 c 0
 361.307617188 61.0341796875 328.227539062 51.419921875 286.965820312 51.419921875 c 0
273.705078125 456.360351562 m 0
 337.34765625 456.360351562 424.155273438 433.213867188 424.155273438 306.9296875 c 2
 424.155273438 290.099609375 l 1
 120.795898438 290.099609375 l 1
 122.315429688 318.592773438 125.461914062 377.583007812 164.767578125 416.888671875 c 0
 191.31640625 443.4375 228.079101562 456.360351562 273.705078125 456.360351562 c 0
389.766601562 699.120117188 m 1
 303.694335938 699.120117188 l 1
 202.841796875 583.860351562 l 1
 264.6015625 583.860351562 l 1
 389.766601562 699.120117188 l 1
EndSplineSet
EndChar

StartChar: ecircumflex
Encoding: 234 234 172
Width: 556
GlyphClass: 2
Flags: MW
HStem: -8.75977 60.1797<247.555 306.234> 456.36 61.1992<250.892 305.526>
VStem: 49.8174 71.3984<228.39 233.49 233.49 240.12 228.39 275.31> 424.155 71.4014<290.1 293.67 293.67 306.93 290.1 290.1>
LayerCount: 2
Fore
SplineSet
286.965820312 51.419921875 m 0
 197.294921875 51.419921875 121.215820312 91.6982421875 121.215820312 228.389648438 c 2
 121.215820312 240.120117188 l 1
 495.556640625 240.120117188 l 1
 495.556640625 293.669921875 l 2
 495.556640625 367.109375 475.6171875 422.087890625 436.66796875 460.063476562 c 0
 397.583007812 498.171875 343.689453125 517.559570312 273.70703125 517.559570312 c 0
 202.471679688 517.559570312 148.034179688 496.576171875 108.927734375 455.188476562 c 0
 69.8564453125 413.838867188 49.8173828125 354.296875 49.8173828125 275.309570312 c 2
 49.8173828125 233.490234375 l 2
 49.8173828125 153.180664062 70.83984375 93.4189453125 111.813476562 52.76953125 c 0
 152.922851562 11.9873046875 210.182617188 -8.759765625 284.926757812 -8.759765625 c 0
 327.541992188 -8.759765625 364.295898438 -1.2705078125 395.388671875 13.4580078125 c 0
 430.266601562 29.978515625 488.9296875 70.02734375 492.3828125 153.419921875 c 1
 421.926757812 153.419921875 l 1
 420.151367188 124.711914062 407.735351562 100.318359375 385.233398438 81.2783203125 c 0
 361.307617188 61.0341796875 328.227539062 51.419921875 286.965820312 51.419921875 c 0
273.705078125 456.360351562 m 0
 337.34765625 456.360351562 424.155273438 433.213867188 424.155273438 306.9296875 c 2
 424.155273438 290.099609375 l 1
 120.795898438 290.099609375 l 1
 122.315429688 318.592773438 125.461914062 377.583007812 164.767578125 416.888671875 c 0
 191.31640625 443.4375 228.079101562 456.360351562 273.705078125 456.360351562 c 0
302.932617188 712.379882812 m 1
 243.45703125 712.379882812 l 1
 123.565429688 578.759765625 l 1
 184.703125 578.759765625 l 1
 273.73828125 674.155273438 l 1
 361.71484375 578.759765625 l 1
 422.825195312 578.759765625 l 1
 302.932617188 712.379882812 l 1
EndSplineSet
EndChar

